<svg width="839" height="468" viewBox="0 0 839 468" fill="none" xmlns="http://www.w3.org/2000/svg">
<g clip-path="url(#clip0_659:1639)">
<path d="M818 467.5C818 467.765 642.483 468 426.018 468C209.553 468 34 467.765 34 467.5C34 467.235 209.481 467 426.018 467C642.555 467 818 467.088 818 467.5Z" fill="#C7CAD2"/>
<path d="M668.252 212.024C668.167 204.627 670.279 197.37 674.32 191.17C678.362 184.97 684.153 180.104 690.961 177.187C697.77 174.27 705.292 173.432 712.577 174.779C719.862 176.126 726.584 179.598 731.895 184.756C737.206 189.914 740.868 196.528 742.418 203.762C743.968 210.996 743.337 218.526 740.605 225.403C737.873 232.279 733.162 238.193 727.066 242.399C720.971 246.605 713.765 248.913 706.356 249.033C696.392 249.157 686.786 245.331 679.643 238.393C672.499 231.456 668.403 221.973 668.252 212.024ZM723.678 211.125C723.604 207.59 722.483 204.155 720.455 201.255C718.428 198.355 715.586 196.119 712.287 194.83C708.989 193.542 705.382 193.258 701.921 194.014C698.461 194.77 695.303 196.533 692.846 199.08C690.388 201.627 688.741 204.843 688.113 208.324C687.484 211.805 687.902 215.393 689.315 218.636C690.727 221.88 693.07 224.633 696.047 226.548C699.025 228.463 702.504 229.455 706.046 229.397C710.809 229.304 715.34 227.327 718.646 223.902C721.951 220.476 723.761 215.882 723.678 211.125Z" fill="#455A64"/>
<path d="M668.252 212.024C668.078 202.072 671.864 192.458 678.781 185.29C685.697 178.122 695.179 173.987 705.146 173.792L705.456 193.427C700.757 193.618 696.319 195.637 693.089 199.051C689.86 202.465 688.095 207.004 688.172 211.7C688.249 216.395 690.162 220.874 693.501 224.181C696.841 227.488 701.343 229.36 706.046 229.397L706.357 249.033C696.39 249.165 686.779 245.342 679.634 238.403C672.489 231.463 668.395 221.976 668.252 212.024Z" fill="#00BD6A"/>
<path d="M701.778 170.769C707.479 170.633 713.149 171.634 718.458 173.713C723.767 175.793 728.607 178.909 732.694 182.879C736.782 186.85 740.035 191.594 742.264 196.836C744.492 202.077 745.65 207.709 745.672 213.403L722.762 213.775C722.576 202.167 713.744 194.868 702.166 195.054L701.778 170.769Z" fill="#C7CAD2"/>
<path d="M380.782 71.1091C381.057 55.7907 368.844 43.1494 353.503 42.874C338.161 42.5986 325.501 54.7933 325.225 70.1117C324.949 85.4301 337.162 98.0714 352.504 98.3468C367.845 98.6222 380.506 86.4275 380.782 71.1091Z" fill="#00BD6A"/>
<g opacity="0.1">
<path opacity="0.1" d="M358.232 43.3626C354.643 42.6654 350.952 42.6824 347.37 43.4126C343.787 44.1428 340.385 45.5718 337.357 47.6177C334.329 49.6636 331.735 52.2862 329.724 55.335C327.713 58.3839 326.324 61.7991 325.638 65.3848C325.638 65.3848 344.651 69.9101 350.736 63.0757C356.82 56.2412 358.232 43.3626 358.232 43.3626Z" fill="white"/>
</g>
<path d="M373.397 74.0638C372.609 78.1609 370.623 81.9329 367.689 84.9028C364.755 87.8727 361.004 89.9071 356.912 90.7487C352.82 91.5903 348.57 91.2013 344.699 89.6309C340.828 88.0605 337.51 85.3792 335.166 81.9261C332.821 78.4731 331.555 74.4034 331.527 70.2316C331.499 66.0599 332.71 61.9735 335.008 58.4893C337.306 55.0052 340.587 52.2796 344.437 50.6575C348.286 49.0353 352.531 48.5893 356.634 49.3759C362.133 50.4344 366.987 53.6287 370.13 58.2574C373.273 62.8861 374.448 68.571 373.397 74.0638Z" fill="#00BD6A"/>
<g opacity="0.2">
<path opacity="0.2" d="M373.397 74.0638C372.609 78.1609 370.623 81.9329 367.689 84.9028C364.755 87.8727 361.004 89.9071 356.912 90.7487C352.82 91.5903 348.57 91.2013 344.699 89.6309C340.828 88.0605 337.51 85.3792 335.166 81.9261C332.821 78.4731 331.555 74.4034 331.527 70.2316C331.499 66.0599 332.71 61.9735 335.008 58.4893C337.306 55.0052 340.587 52.2796 344.437 50.6575C348.286 49.0353 352.531 48.5893 356.634 49.3759C362.133 50.4344 366.987 53.6287 370.13 58.2574C373.273 62.8861 374.448 68.571 373.397 74.0638Z" fill="black"/>
</g>
<path d="M373.815 75.0398C373.041 79.0838 371.083 82.8078 368.189 85.7407C365.296 88.6736 361.595 90.6836 357.557 91.5164C353.519 92.3493 349.324 91.9675 345.503 90.4195C341.682 88.8715 338.407 86.2267 336.092 82.8198C333.777 79.4128 332.525 75.3968 332.496 71.2797C332.467 67.1625 333.662 63.1293 335.929 59.6902C338.196 56.2511 341.434 53.5606 345.232 51.959C349.031 50.3575 353.22 49.9169 357.27 50.6929C359.957 51.2059 362.518 52.2427 364.804 53.7441C367.091 55.2456 369.058 57.1821 370.595 59.4431C372.131 61.7042 373.207 64.2454 373.759 66.9215C374.312 69.5977 374.331 72.3563 373.815 75.0398Z" fill="#00BD6A"/>
<g opacity="0.2">
<path opacity="0.2" d="M373.815 75.0398C373.041 79.0838 371.083 82.8078 368.189 85.7407C365.296 88.6736 361.595 90.6836 357.557 91.5164C353.519 92.3493 349.324 91.9675 345.503 90.4195C341.682 88.8715 338.407 86.2267 336.092 82.8198C333.777 79.4128 332.525 75.3968 332.496 71.2797C332.467 67.1625 333.662 63.1293 335.929 59.6902C338.196 56.2511 341.434 53.5606 345.232 51.959C349.031 50.3575 353.22 49.9169 357.27 50.6929C359.957 51.2059 362.518 52.2427 364.804 53.7441C367.091 55.2456 369.058 57.1821 370.595 59.4431C372.131 61.7042 373.207 64.2454 373.759 66.9215C374.312 69.5977 374.331 72.3563 373.815 75.0398Z" fill="white"/>
</g>
<path d="M354.461 69.5075L355.47 64.2693C356.402 64.5661 357.29 64.9884 358.108 65.5246C358.527 65.8401 358.912 66.1985 359.257 66.5939L359.365 66.439L360.529 64.7187L360.793 64.3158L360.048 63.1689L359.567 63.2774C358.508 62.435 357.288 61.8179 355.982 61.4642L356.541 58.5816L355.78 57.6982L355.64 58.4111L354.461 58.1477L353.902 61.0767C349.773 60.6893 347.414 62.6265 346.902 65.2611C346.219 68.8721 349.121 70.3909 351.869 71.6307L350.875 76.8224C349.024 76.3088 347.356 75.2826 346.064 73.8624L344.387 76.249C345.983 77.9438 348.056 79.1163 350.332 79.612L349.913 81.7817L348.904 81.6112L349.773 82.4946L351.9 82.8975L352.458 79.9995C356.618 80.3559 358.993 78.4497 359.505 75.8151C360.219 72.2661 357.255 70.7473 354.461 69.5075ZM352.443 68.5466C351.015 67.8183 350.006 66.9969 350.254 65.8035C350.503 64.6102 351.419 63.8818 353.359 63.9438L352.443 68.5466ZM353.048 77.2254L353.933 72.576C355.485 73.3199 356.432 74.1258 356.184 75.3966C355.935 76.6674 354.973 77.3028 353.017 77.2254H353.048Z" fill="#00BD6A"/>
<g opacity="0.3">
<path opacity="0.3" d="M354.461 69.5075L355.47 64.2693C356.402 64.5661 357.29 64.9884 358.108 65.5246C358.527 65.8401 358.912 66.1985 359.257 66.5939L359.365 66.439L360.529 64.7187L360.793 64.3158L360.048 63.1689L359.567 63.2774C358.508 62.435 357.288 61.8179 355.982 61.4642L356.541 58.5816L355.78 57.6982L355.64 58.4111L354.461 58.1477L353.902 61.0767C349.773 60.6893 347.414 62.6265 346.902 65.2611C346.219 68.8721 349.121 70.3909 351.869 71.6307L350.875 76.8224C349.024 76.3088 347.356 75.2826 346.064 73.8624L344.387 76.249C345.983 77.9438 348.056 79.1163 350.332 79.612L349.913 81.7817L348.904 81.6112L349.773 82.4946L351.9 82.8975L352.458 79.9995C356.618 80.3559 358.993 78.4497 359.505 75.8151C360.219 72.2661 357.255 70.7473 354.461 69.5075ZM352.443 68.5466C351.015 67.8183 350.006 66.9969 350.254 65.8035C350.503 64.6102 351.419 63.8818 353.359 63.9438L352.443 68.5466ZM353.048 77.2254L353.933 72.576C355.485 73.3199 356.432 74.1258 356.184 75.3966C355.935 76.6674 354.973 77.3028 353.017 77.2254H353.048Z" fill="black"/>
</g>
<path d="M351.744 79.1623L351.186 82.0604L349.059 81.6574L349.602 78.7749C347.326 78.2792 345.254 77.1067 343.658 75.4119L345.334 73.0252C346.626 74.4455 348.294 75.4717 350.146 75.9853L351.139 70.809C348.392 69.5537 345.489 68.035 346.172 64.424C346.685 61.7894 349.044 59.7747 353.172 60.2396L353.731 57.3105L355.858 57.7135L355.299 60.5961C357.147 61.0243 358.856 61.9149 360.266 63.1842L358.713 65.6018C357.574 64.5969 356.236 63.8419 354.787 63.3856L353.778 68.6239C356.525 69.8792 359.489 71.3825 358.791 74.9779C358.279 77.628 355.889 79.5343 351.744 79.1623ZM351.744 67.6785L352.629 63.0292C350.736 63.0292 349.773 63.7421 349.525 64.8889C349.277 66.0358 350.316 66.9501 351.744 67.6785ZM355.407 74.575C355.656 73.3042 354.631 72.4983 353.157 71.7544L352.272 76.4037C354.228 76.4192 355.206 75.6908 355.407 74.575Z" fill="#00BD6A"/>
<path d="M327.314 78.9298L327.221 78.6973L327.019 78.0154C326.926 77.7055 326.817 77.349 326.724 76.9151C326.631 76.4812 326.507 75.9852 326.429 75.3653L326.29 74.4975C326.29 74.203 326.29 73.8775 326.181 73.5521C326.103 72.9012 326.088 72.2038 326.041 71.4599C326.02 69.858 326.124 68.2569 326.352 66.6711C326.606 65.0954 326.98 63.5412 327.469 62.0218C327.733 61.3399 327.951 60.6735 328.23 60.0691L328.602 59.2012L328.99 58.4108C329.239 57.9149 329.503 57.481 329.72 57.0935C329.905 56.7628 330.107 56.4421 330.325 56.1327L330.729 55.5438L330.868 55.3423C330.868 55.3423 330.868 55.4198 330.76 55.5593L330.387 56.1792C330.217 56.4426 330.03 56.7681 329.813 57.1555C329.596 57.543 329.347 57.9769 329.13 58.4883L328.758 59.2632C328.618 59.5422 328.509 59.8366 328.385 60.1311C328.121 60.7355 327.904 61.4019 327.656 62.0838C327.168 63.6027 326.8 65.1572 326.554 66.7331C326.325 68.3084 326.222 69.8993 326.243 71.4909C326.243 72.2193 326.243 72.9167 326.352 73.5676C326.352 73.893 326.352 74.203 326.445 74.5129L326.569 75.3653C326.647 75.9232 326.755 76.4037 326.849 76.9151C326.942 77.4265 327.019 77.721 327.097 78.0154L327.268 78.7128L327.314 78.9298Z" fill="white"/>
<path d="M347.538 66.9346C347.316 66.7424 347.145 66.4972 347.042 66.2217C346.758 65.5678 346.687 64.8412 346.84 64.145C347.003 63.4549 347.384 62.8354 347.926 62.3783C348.141 62.1817 348.395 62.0337 348.672 61.9443C348.672 61.9443 348.408 62.1303 348.02 62.4868C347.536 62.9492 347.197 63.5411 347.042 64.1915C346.897 64.8525 346.946 65.541 347.181 66.1752C347.368 66.6556 347.57 66.9191 347.538 66.9346Z" fill="white"/>
<path d="M353.684 59.8986C353.621 59.6075 353.621 59.3063 353.684 59.0152C353.713 58.7258 353.803 58.4458 353.948 58.1938C353.948 58.1938 353.948 58.5968 353.948 59.0617C353.931 59.3583 353.841 59.6459 353.684 59.8986Z" fill="white"/>
<path d="M358.604 49.2053C358.377 49.1784 358.153 49.1264 357.937 49.0503L357.177 48.8643C356.866 48.8643 356.525 48.7094 356.152 48.6629C355.78 48.6164 355.345 48.5079 354.879 48.4614C354.414 48.4149 353.948 48.3839 353.436 48.3374C352.323 48.2875 351.208 48.3134 350.099 48.4149C348.99 48.5298 347.891 48.7214 346.808 48.9883C346.312 49.1278 345.831 49.2518 345.412 49.4068C344.992 49.5618 344.573 49.7012 344.201 49.8407C343.828 49.9802 343.518 50.1197 343.239 50.2436C342.959 50.3676 342.711 50.4761 342.525 50.5846L341.904 50.8636C342.083 50.7265 342.275 50.6071 342.478 50.5071L343.192 50.1352C343.471 50.0112 343.782 49.8407 344.154 49.7012C344.527 49.5618 344.915 49.3913 345.349 49.2518C345.784 49.1123 346.265 48.9573 346.762 48.8024C347.848 48.5246 348.953 48.3226 350.068 48.198C351.194 48.1137 352.325 48.1137 353.451 48.198C353.964 48.198 354.46 48.1979 354.91 48.3529C355.333 48.3988 355.752 48.4661 356.168 48.5544L357.208 48.8024L357.968 49.0193L358.604 49.2053Z" fill="white"/>
<path d="M351.356 97.062H350.844C350.518 97.062 350.037 97.062 349.447 97.062C347.91 96.9669 346.39 96.6965 344.915 96.2561C343.436 95.8127 342.014 95.199 340.678 94.4274C340.165 94.1329 339.762 93.8695 339.498 93.6835C339.355 93.5922 339.22 93.4885 339.094 93.3735C339.253 93.4398 339.404 93.5229 339.545 93.6215C339.824 93.792 340.227 94.0244 340.755 94.3034C342.098 95.0305 343.513 95.6173 344.977 96.0546C346.44 96.4883 347.943 96.7789 349.463 96.9225L350.844 97.0155L351.356 97.062Z" fill="white"/>
<path d="M359.505 217.96C360.403 221.208 360.316 224.649 359.256 227.848C358.196 231.047 356.21 233.861 353.55 235.933C350.889 238.006 347.673 239.245 344.308 239.494C340.942 239.743 337.578 238.99 334.641 237.332C331.704 235.673 329.325 233.182 327.804 230.173C326.284 227.165 325.691 223.775 326.099 220.43C326.508 217.085 327.9 213.936 330.099 211.381C332.299 208.826 335.208 206.978 338.459 206.073C340.622 205.47 342.884 205.3 345.113 205.571C347.343 205.843 349.497 206.551 351.453 207.655C353.408 208.759 355.125 210.238 356.507 212.006C357.889 213.774 358.908 215.798 359.505 217.96Z" fill="#00BD6A"/>
<g opacity="0.1">
<path opacity="0.1" d="M338.459 206.073C336.292 206.667 334.264 207.681 332.491 209.058C330.718 210.435 329.234 212.149 328.126 214.099C327.017 216.05 326.304 218.2 326.029 220.426C325.754 222.653 325.922 224.911 326.523 227.073C326.523 227.073 338.257 224.376 339.747 218.952C341.237 213.528 338.459 206.073 338.459 206.073Z" fill="white"/>
</g>
<path d="M355.206 218.874C355.889 221.347 355.823 223.967 355.016 226.402C354.209 228.837 352.696 230.979 350.67 232.556C348.644 234.133 346.195 235.075 343.633 235.262C341.071 235.45 338.51 234.875 336.275 233.61C334.04 232.344 332.231 230.446 331.077 228.154C329.923 225.863 329.475 223.281 329.79 220.735C330.105 218.189 331.169 215.793 332.847 213.851C334.526 211.909 336.743 210.508 339.219 209.824C340.864 209.369 342.582 209.243 344.276 209.452C345.97 209.661 347.606 210.201 349.091 211.042C350.575 211.882 351.879 213.006 352.929 214.35C353.978 215.694 354.752 217.232 355.206 218.874Z" fill="#00BD6A"/>
<g opacity="0.2">
<path opacity="0.2" d="M355.206 218.874C355.889 221.347 355.823 223.967 355.016 226.402C354.209 228.837 352.696 230.979 350.67 232.556C348.644 234.133 346.195 235.075 343.633 235.262C341.071 235.45 338.51 234.875 336.275 233.61C334.04 232.344 332.231 230.446 331.077 228.154C329.923 225.863 329.475 223.281 329.79 220.735C330.105 218.189 331.169 215.793 332.847 213.851C334.526 211.909 336.743 210.508 339.219 209.824C340.864 209.369 342.582 209.243 344.276 209.452C345.97 209.661 347.606 210.201 349.091 211.042C350.575 211.882 351.879 213.006 352.929 214.35C353.978 215.694 354.752 217.232 355.206 218.874Z" fill="black"/>
</g>
<path d="M355.718 219.324C356.4 221.766 356.341 224.356 355.548 226.766C354.756 229.175 353.265 231.296 351.265 232.859C349.264 234.422 346.845 235.357 344.312 235.546C341.779 235.736 339.247 235.171 337.036 233.922C334.825 232.674 333.035 230.799 331.891 228.534C330.748 226.27 330.303 223.717 330.614 221.2C330.924 218.683 331.975 216.315 333.634 214.394C335.293 212.474 337.485 211.088 339.933 210.412C341.555 209.962 343.251 209.836 344.922 210.04C346.594 210.244 348.208 210.776 349.674 211.603C351.14 212.431 352.428 213.538 353.465 214.863C354.502 216.188 355.268 217.703 355.718 219.324Z" fill="#00BD6A"/>
<g opacity="0.2">
<path opacity="0.2" d="M355.718 219.324C356.4 221.766 356.341 224.356 355.548 226.766C354.756 229.175 353.265 231.296 351.265 232.859C349.264 234.422 346.845 235.357 344.312 235.546C341.779 235.736 339.247 235.171 337.036 233.922C334.825 232.674 333.035 230.799 331.891 228.534C330.748 226.27 330.303 223.717 330.614 221.2C330.924 218.683 331.975 216.315 333.634 214.394C335.293 212.474 337.485 211.088 339.933 210.412C341.555 209.962 343.251 209.836 344.922 210.04C346.594 210.244 348.208 210.776 349.674 211.603C351.14 212.431 352.428 213.538 353.465 214.863C354.502 216.188 355.268 217.703 355.718 219.324Z" fill="white"/>
</g>
<path d="M343.596 221.509L342.711 218.41C343.314 218.332 343.924 218.332 344.527 218.41C344.841 218.473 345.147 218.567 345.443 218.689V218.58L345.614 217.309V217.015L344.884 216.581L344.651 216.782C343.832 216.612 342.987 216.612 342.168 216.782L341.687 215.047L341.019 214.768L341.144 215.202L340.399 215.403L340.895 217.17C338.521 218.084 337.791 219.789 338.195 221.385C338.784 223.57 340.818 223.617 342.665 223.555L343.534 226.654C342.373 226.877 341.172 226.764 340.073 226.329L339.809 228.096C341.149 228.597 342.609 228.683 344 228.344L344.372 229.645L343.767 229.831L344.481 230.079L345.769 229.723L345.288 227.972C347.678 227.042 348.392 225.337 348.02 223.741C347.445 221.478 345.412 221.447 343.596 221.509ZM342.215 221.509C341.237 221.509 340.461 221.339 340.259 220.579C340.057 219.82 340.383 219.2 341.454 218.719L342.215 221.509ZM344.884 226.143L344.124 223.369C345.133 223.369 345.924 223.539 346.141 224.314C346.359 225.089 345.94 225.678 344.838 226.174L344.884 226.143Z" fill="#00BD6A"/>
<g opacity="0.3">
<path opacity="0.3" d="M343.596 221.509L342.711 218.41C343.314 218.332 343.924 218.332 344.527 218.41C344.841 218.473 345.147 218.567 345.443 218.689V218.58L345.614 217.309V217.015L344.884 216.581L344.651 216.782C343.832 216.612 342.987 216.612 342.168 216.782L341.687 215.047L341.019 214.768L341.144 215.202L340.399 215.403L340.895 217.17C338.521 218.084 337.791 219.789 338.195 221.385C338.784 223.57 340.818 223.617 342.665 223.555L343.534 226.654C342.373 226.877 341.172 226.764 340.073 226.329L339.809 228.096C341.149 228.597 342.609 228.683 344 228.344L344.372 229.645L343.767 229.831L344.481 230.079L345.769 229.723L345.288 227.972C347.678 227.042 348.392 225.337 348.02 223.741C347.445 221.478 345.412 221.447 343.596 221.509ZM342.215 221.509C341.237 221.509 340.461 221.339 340.259 220.579C340.057 219.82 340.383 219.2 341.454 218.719L342.215 221.509ZM344.884 226.143L344.124 223.369C345.133 223.369 345.924 223.539 346.141 224.314C346.359 225.089 345.94 225.678 344.838 226.174L344.884 226.143Z" fill="black"/>
</g>
<path d="M344.667 227.599L345.148 229.351L343.876 229.707L343.379 227.956C341.991 228.308 340.528 228.227 339.188 227.723L339.452 225.957C340.553 226.387 341.754 226.494 342.913 226.266L342.044 223.167C340.197 223.167 338.164 223.167 337.574 220.997C337.124 219.447 337.9 217.696 340.275 216.782L339.778 215.015L341.066 214.659L341.547 216.394C342.677 216.098 343.864 216.098 344.993 216.394L344.791 218.146C343.891 217.901 342.949 217.854 342.029 218.006L342.898 221.106C344.76 221.106 346.809 221.106 347.414 223.244C347.849 224.965 347.057 226.654 344.667 227.599ZM341.563 221.245L340.802 218.471C339.731 218.952 339.421 219.633 339.607 220.331C339.794 221.028 340.492 221.245 341.516 221.245H341.563ZM345.49 224.066C345.273 223.291 344.481 223.12 343.472 223.12L344.233 225.895C345.288 225.399 345.63 224.732 345.443 224.066H345.49Z" fill="#00BD6A"/>
<path d="M331.179 234.124L331.07 234.015L330.76 233.705C330.6 233.539 330.449 233.363 330.31 233.179C330.139 232.962 329.922 232.729 329.735 232.45L329.425 232.001L329.099 231.52C328.882 231.179 328.68 230.792 328.463 230.404C328.01 229.526 327.626 228.614 327.314 227.677C327.013 226.737 326.795 225.772 326.662 224.794C326.662 224.345 326.554 223.911 326.538 223.508C326.523 223.105 326.538 223.121 326.538 222.935V222.423C326.538 222.082 326.538 221.772 326.538 221.493C326.551 221.26 326.577 221.027 326.616 220.796V220.362C326.616 220.254 326.616 220.207 326.616 220.207C326.62 220.259 326.62 220.31 326.616 220.362V220.796C326.616 220.997 326.616 221.23 326.616 221.493C326.616 221.757 326.616 222.082 326.616 222.423V222.95V223.539C326.616 223.942 326.616 224.36 326.74 224.81C326.884 225.777 327.107 226.731 327.407 227.661C327.706 228.594 328.08 229.501 328.525 230.374C328.742 230.776 328.944 231.148 329.161 231.489C329.378 231.83 329.363 231.83 329.472 231.985L329.782 232.419C329.968 232.714 330.17 232.946 330.325 233.163L330.775 233.705L331.055 234.031L331.179 234.124Z" fill="white"/>
<path d="M338.94 221.989C338.767 221.946 338.607 221.861 338.474 221.741C338.14 221.452 337.902 221.069 337.791 220.641C337.69 220.215 337.734 219.768 337.916 219.37C338.04 219.06 338.195 218.921 338.21 218.936C338.226 218.952 338.102 219.107 337.993 219.401C337.852 219.794 337.826 220.218 337.916 220.625C338.017 221.025 338.232 221.386 338.536 221.664C338.831 221.881 339.018 221.974 338.94 221.989Z" fill="white"/>
<path d="M340.492 216.426C340.492 216.426 340.352 216.224 340.274 215.93C340.234 215.756 340.234 215.576 340.274 215.403C340.274 215.403 340.399 215.62 340.476 215.899C340.515 216.072 340.52 216.251 340.492 216.426Z" fill="white"/>
<path d="M340.259 209.188C340.129 209.239 339.993 209.275 339.855 209.296L339.374 209.389C339.188 209.389 338.971 209.482 338.753 209.56C338.5 209.626 338.251 209.709 338.008 209.808C337.729 209.885 337.465 210.009 337.17 210.118C336.538 210.396 335.926 210.717 335.339 211.079C334.759 211.443 334.208 211.852 333.693 212.303C333.46 212.493 333.238 212.695 333.026 212.907C332.824 213.093 332.653 213.295 332.483 213.465L332.064 213.961C331.939 214.101 331.846 214.24 331.753 214.333C331.66 214.426 331.505 214.674 331.489 214.659L331.722 214.318L332.002 213.915C332.126 213.76 332.25 213.589 332.421 213.403C332.591 213.217 332.747 213.031 332.948 212.83L333.616 212.21C334.136 211.754 334.691 211.339 335.276 210.97C335.866 210.607 336.484 210.29 337.123 210.025L337.962 209.699L338.722 209.467L339.359 209.327L339.84 209.234L340.259 209.188Z" fill="white"/>
<path d="M349.354 237.564C349.354 237.564 349.261 237.642 349.09 237.735L348.314 238.107C347.436 238.472 346.52 238.737 345.583 238.897C344.649 239.043 343.702 239.09 342.758 239.037C342.466 239.031 342.175 239 341.889 238.944H341.578H341.904C342.106 238.944 342.401 238.944 342.758 238.944C343.698 238.979 344.64 238.916 345.567 238.758C346.496 238.606 347.407 238.357 348.283 238.014L349.059 237.688L349.354 237.564Z" fill="white"/>
<path d="M515.493 194.527C516.104 196.734 516.045 199.073 515.325 201.246C514.605 203.42 513.256 205.332 511.448 206.74C509.639 208.148 507.454 208.989 505.167 209.157C502.88 209.325 500.594 208.812 498.599 207.682C496.604 206.553 494.99 204.859 493.959 202.813C492.929 200.768 492.529 198.463 492.811 196.191C493.092 193.918 494.042 191.78 495.541 190.047C497.039 188.314 499.018 187.063 501.229 186.453C504.193 185.635 507.36 186.026 510.035 187.54C512.71 189.055 514.673 191.568 515.493 194.527Z" fill="#00BD6A"/>
<g opacity="0.1">
<path opacity="0.1" d="M501.228 186.375C499.761 186.782 498.387 187.473 497.187 188.41C495.987 189.347 494.984 190.51 494.234 191.835C493.485 193.159 493.004 194.617 492.819 196.127C492.634 197.637 492.749 199.168 493.157 200.633C493.157 200.633 501.104 198.805 502.113 195.132C503.122 191.459 501.228 186.375 501.228 186.375Z" fill="white"/>
</g>
<path d="M512.59 195.054C513.057 196.731 513.015 198.509 512.471 200.162C511.926 201.816 510.902 203.271 509.53 204.343C508.157 205.416 506.496 206.058 504.758 206.189C503.02 206.32 501.282 205.933 499.764 205.077C498.245 204.222 497.015 202.937 496.229 201.383C495.442 199.83 495.134 198.079 495.344 196.351C495.554 194.623 496.273 192.996 497.408 191.676C498.544 190.355 500.046 189.401 501.725 188.933C502.841 188.622 504.008 188.533 505.158 188.672C506.308 188.812 507.42 189.176 508.429 189.745C509.438 190.313 510.325 191.075 511.039 191.986C511.753 192.897 512.28 193.94 512.59 195.054Z" fill="#00BD6A"/>
<g opacity="0.2">
<path opacity="0.2" d="M512.59 195.054C513.057 196.731 513.015 198.509 512.471 200.162C511.926 201.816 510.902 203.271 509.53 204.343C508.157 205.416 506.496 206.058 504.758 206.189C503.02 206.32 501.282 205.933 499.764 205.077C498.245 204.222 497.015 202.937 496.229 201.383C495.442 199.83 495.134 198.079 495.344 196.351C495.554 194.623 496.273 192.996 497.408 191.676C498.544 190.355 500.046 189.401 501.725 188.933C502.841 188.622 504.008 188.533 505.158 188.672C506.308 188.812 507.42 189.176 508.429 189.745C509.438 190.313 510.325 191.075 511.039 191.986C511.753 192.897 512.28 193.94 512.59 195.054Z" fill="black"/>
</g>
<path d="M507.194 205.94C511.765 204.478 514.284 199.592 512.82 195.027C511.356 190.462 506.463 187.947 501.891 189.409C497.319 190.871 494.8 195.757 496.265 200.322C497.729 204.886 502.622 207.402 507.194 205.94Z" fill="#00BD6A"/>
<g opacity="0.2">
<path opacity="0.2" d="M507.194 205.94C511.765 204.478 514.284 199.592 512.82 195.027C511.356 190.462 506.463 187.947 501.891 189.409C497.319 190.871 494.8 195.757 496.265 200.322C497.729 204.886 502.622 207.402 507.194 205.94Z" fill="white"/>
</g>
<path d="M504.674 196.852L504.085 194.698C504.492 194.644 504.904 194.644 505.311 194.698C505.522 194.743 505.73 194.805 505.932 194.884V194.806L506.04 193.954V193.752L505.544 193.458L505.388 193.597C504.835 193.489 504.266 193.489 503.712 193.597L503.386 192.435L502.936 192.233L503.014 192.528L502.501 192.667L502.843 193.861C501.291 194.481 500.701 195.643 501.011 196.728C501.415 198.2 502.781 198.278 504.116 198.2L504.705 200.308C503.92 200.461 503.106 200.386 502.362 200.091L502.176 201.3C503.09 201.64 504.086 201.694 505.031 201.455L505.28 202.353L504.861 202.462L505.357 202.632L506.227 202.4L505.901 201.207C507.453 200.571 508.058 199.424 507.748 198.339C507.329 196.821 505.932 196.805 504.674 196.852ZM503.743 196.852C503.076 196.852 502.564 196.728 502.424 196.216C502.284 195.705 502.501 195.286 503.231 194.961L503.743 196.852ZM505.637 199.982L505.109 198.107C505.807 198.107 506.335 198.231 506.475 198.758C506.615 199.285 506.304 199.672 505.559 199.998L505.637 199.982Z" fill="#00BD6A"/>
<g opacity="0.3">
<path opacity="0.3" d="M504.674 196.852L504.085 194.698C504.492 194.644 504.904 194.644 505.311 194.698C505.522 194.743 505.73 194.805 505.932 194.884V194.806L506.04 193.954V193.752L505.544 193.458L505.388 193.597C504.835 193.489 504.266 193.489 503.712 193.597L503.386 192.435L502.936 192.233L503.014 192.528L502.501 192.667L502.843 193.861C501.291 194.481 500.701 195.643 501.011 196.728C501.415 198.2 502.781 198.278 504.116 198.2L504.705 200.308C503.92 200.461 503.106 200.386 502.362 200.091L502.176 201.3C503.09 201.64 504.086 201.694 505.031 201.455L505.28 202.353L504.861 202.462L505.357 202.632L506.227 202.4L505.901 201.207C507.453 200.571 508.058 199.424 507.748 198.339C507.329 196.821 505.932 196.805 504.674 196.852ZM503.743 196.852C503.076 196.852 502.564 196.728 502.424 196.216C502.284 195.705 502.501 195.286 503.231 194.961L503.743 196.852ZM505.637 199.982L505.109 198.107C505.807 198.107 506.335 198.231 506.475 198.758C506.615 199.285 506.304 199.672 505.559 199.998L505.637 199.982Z" fill="black"/>
</g>
<path d="M505.435 200.974L505.761 202.152L504.892 202.4L504.566 201.222C503.625 201.455 502.636 201.401 501.725 201.067L501.912 199.858C502.656 200.155 503.47 200.23 504.255 200.075L503.666 197.952C502.408 197.952 501.043 197.952 500.561 196.495C500.266 195.411 500.794 194.248 502.393 193.628L502.067 192.435L502.936 192.187L503.262 193.365C504.032 193.178 504.836 193.178 505.606 193.365L505.466 194.558C504.853 194.4 504.214 194.368 503.588 194.465L504.178 196.604C505.435 196.604 506.832 196.604 507.282 198.061C507.592 199.177 507.065 200.339 505.435 200.974ZM503.309 196.666L502.781 194.791C502.067 195.116 501.85 195.581 501.974 196.046C502.098 196.511 502.641 196.666 503.309 196.666ZM505.963 198.572C505.823 198.061 505.28 197.937 504.597 197.937L505.125 199.812C505.854 199.486 506.087 199.037 505.963 198.572Z" fill="#00BD6A"/>
<path d="M496.262 205.375H496.184L495.983 205.158L495.672 204.802C495.532 204.646 495.402 204.48 495.284 204.306L495.067 204.012L494.85 203.671C494.71 203.454 494.57 203.19 494.415 202.911C494.105 202.319 493.846 201.702 493.639 201.067C493.433 200.431 493.287 199.778 493.204 199.114C493.159 198.827 493.128 198.537 493.111 198.247C493.111 198.107 493.111 197.983 493.111 197.859V197.487C493.111 197.255 493.111 197.053 493.111 196.867C493.093 196.708 493.093 196.546 493.111 196.387V196.092V195.984C493.115 196.02 493.115 196.056 493.111 196.092V196.387C493.102 196.547 493.102 196.707 493.111 196.867C493.111 197.053 493.111 197.255 493.111 197.487V197.859C493.111 197.983 493.111 198.107 493.111 198.247C493.111 198.386 493.111 198.804 493.204 199.114C493.306 199.769 493.451 200.416 493.639 201.052C493.855 201.678 494.115 202.289 494.415 202.88C494.555 203.144 494.694 203.407 494.834 203.64C494.974 203.872 494.974 203.872 495.051 203.965L495.253 204.275C495.377 204.461 495.517 204.616 495.626 204.771L495.936 205.143L496.122 205.36L496.262 205.375Z" fill="white"/>
<path d="M501.601 197.177C501.484 197.141 501.378 197.077 501.291 196.991C501.055 196.81 500.89 196.553 500.825 196.263C500.759 195.973 500.786 195.669 500.903 195.395C500.996 195.194 501.089 195.085 501.105 195.101C501.047 195.206 500.996 195.315 500.949 195.426C500.875 195.695 500.875 195.979 500.949 196.247C501.022 196.519 501.167 196.765 501.368 196.96C501.477 197.1 501.601 197.162 501.601 197.177Z" fill="white"/>
<path d="M502.595 193.396C502.595 193.396 502.502 193.257 502.455 193.071C502.438 192.947 502.438 192.822 502.455 192.699C502.455 192.699 502.548 192.854 502.595 193.04C502.62 193.157 502.62 193.279 502.595 193.396Z" fill="white"/>
<path d="M502.455 188.499H502.176L501.85 188.576L501.431 188.685L500.918 188.839L500.36 189.072C499.932 189.256 499.517 189.468 499.118 189.707C498.725 189.959 498.352 190.238 498 190.544L497.55 190.947L497.255 191.428L496.976 191.753C496.902 191.835 496.834 191.923 496.774 192.017L496.588 192.233C496.633 192.151 496.685 192.074 496.743 192.001L496.93 191.722C497.023 191.629 497.1 191.505 497.209 191.381L497.581 190.994C497.719 190.847 497.864 190.707 498.016 190.575C498.369 190.265 498.748 189.985 499.149 189.738C499.55 189.488 499.97 189.271 500.406 189.087L500.98 188.871L501.493 188.716L501.912 188.623H502.238L502.455 188.499Z" fill="white"/>
<path d="M508.617 207.731L508.431 207.84C508.264 207.94 508.087 208.023 507.903 208.088C507.312 208.345 506.692 208.527 506.056 208.63C505.426 208.741 504.785 208.772 504.147 208.723C503.951 208.737 503.753 208.737 503.557 208.723H503.355C503.355 208.723 503.433 208.723 503.557 208.723H504.147C505.423 208.75 506.692 208.534 507.888 208.088L508.415 207.855L508.617 207.731Z" fill="white"/>
<path d="M465.189 323.484H398.448V466.993H465.189V323.484Z" fill="#00BD6A"/>
<g opacity="0.3">
<path opacity="0.3" d="M465.189 323.484H444.499V466.993H465.189V323.484Z" fill="black"/>
</g>
<path d="M444.483 466.977C444.313 466.977 444.188 435.222 444.188 396.044C444.188 356.866 444.313 325.096 444.483 325.096C444.654 325.096 444.763 356.851 444.763 396.044C444.763 435.238 444.67 466.977 444.483 466.977Z" fill="white"/>
<path d="M383.734 272.884H316.993V466.977H383.734V272.884Z" fill="#00BD6A"/>
<g opacity="0.3">
<path opacity="0.3" d="M383.734 272.884H363.044V466.977H383.734V272.884Z" fill="black"/>
</g>
<path d="M363.044 466.977C362.888 466.977 362.764 424.017 362.764 371.031C362.764 318.044 362.888 275.069 363.044 275.069C363.199 275.069 363.323 318.029 363.323 371.031C363.323 424.033 363.199 466.977 363.044 466.977Z" fill="white"/>
<path d="M547.544 365.25H480.803V466.977H547.544V365.25Z" fill="#00BD6A"/>
<g opacity="0.3">
<path opacity="0.3" d="M547.544 365.25H526.855V466.977H547.544V365.25Z" fill="black"/>
</g>
<path d="M526.854 466.977C526.699 466.977 526.575 444.459 526.575 416.687C526.575 388.915 526.699 366.397 526.854 366.397C527.009 366.397 527.149 388.915 527.149 416.687C527.149 444.459 527.009 466.977 526.854 466.977Z" fill="white"/>
<path d="M628.114 411.48H561.373V466.993H628.114V411.48Z" fill="#00BD6A"/>
<g opacity="0.3">
<path opacity="0.3" d="M628.114 411.48H607.424V466.993H628.114V411.48Z" fill="black"/>
</g>
<path d="M607.456 466.977C607.301 466.977 607.176 454.687 607.176 439.546C607.176 424.405 607.301 412.1 607.456 412.1C607.611 412.1 607.751 424.389 607.751 439.546C607.751 454.703 607.595 466.977 607.456 466.977Z" fill="white"/>
<path d="M709.569 430.682H642.828V466.977H709.569V430.682Z" fill="#00BD6A"/>
<g opacity="0.3">
<path opacity="0.3" d="M709.585 430.682H688.895V466.977H709.585V430.682Z" fill="black"/>
</g>
<path d="M688.895 466.977C688.74 466.977 688.616 458.949 688.616 449.031C688.616 439.112 688.74 431.084 688.895 431.084C689.05 431.084 689.174 439.128 689.174 449.031C689.174 458.934 689.05 466.977 688.895 466.977Z" fill="white"/>
<path d="M302.263 209.08H235.522V466.946H302.263V209.08Z" fill="#00BD6A"/>
<g opacity="0.3">
<path opacity="0.3" d="M302.263 209.08H281.573V466.946H302.263V209.08Z" fill="black"/>
</g>
<path d="M281.589 468C281.434 468 281.294 410.658 281.294 339.989C281.294 269.319 281.434 211.978 281.589 211.978C281.744 211.978 281.868 269.319 281.868 339.989C281.868 410.658 281.744 468 281.589 468Z" fill="white"/>
<path d="M220.808 156.744H154.067V468H220.808V156.744Z" fill="#00BD6A"/>
<g opacity="0.3">
<path opacity="0.3" d="M220.808 156.744H200.118V468H220.808V156.744Z" fill="black"/>
</g>
<path d="M200.118 468C199.963 468 199.839 399.097 199.839 314.123C199.839 229.149 199.963 160.247 200.118 160.247C200.274 160.247 200.398 229.134 200.398 314.123C200.398 399.113 200.274 468 200.118 468Z" fill="white"/>
<path d="M207.037 129.107C226.436 115.993 231.515 89.6588 218.381 70.2887C205.246 50.9186 178.872 45.8474 159.473 58.962C140.073 72.0766 134.995 98.4106 148.129 117.781C161.263 137.151 187.637 142.222 207.037 129.107Z" fill="#00BD6A"/>
<path opacity="0.3" d="M207.037 129.107C226.436 115.993 231.515 89.6588 218.381 70.2887C205.246 50.9186 178.872 45.8474 159.473 58.962C140.073 72.0766 134.995 98.4106 148.129 117.781C161.263 137.151 187.637 142.222 207.037 129.107Z" fill="black"/>
<path d="M207.032 124.441C226.431 111.327 231.51 84.9928 218.376 65.6227C205.241 46.2526 178.868 41.1814 159.468 54.296C140.069 67.4105 134.99 93.7446 148.124 113.115C161.259 132.485 187.633 137.556 207.032 124.441Z" fill="#00BD6A"/>
<path d="M183.247 117.736C198.942 117.736 211.666 105.032 211.666 89.3597C211.666 73.6879 198.942 60.9834 183.247 60.9834C167.551 60.9834 154.828 73.6879 154.828 89.3597C154.828 105.032 167.551 117.736 183.247 117.736Z" fill="white"/>
<path d="M193.084 99.1783C198.515 93.7554 198.515 84.9633 193.084 79.5405C187.653 74.1177 178.847 74.1177 173.416 79.5405C167.985 84.9633 167.985 93.7554 173.416 99.1782C178.847 104.601 187.653 104.601 193.084 99.1783Z" fill="#00BD6A"/>
<path d="M217.362 53.4982L216.198 44.463L225.418 34.6064L226.085 44.37L217.362 53.4982Z" fill="#455A64"/>
<path d="M237.136 46.3072L227.792 45.5479L218.417 54.5365L227.792 55.5439L237.136 46.3072Z" fill="#455A64"/>
<path opacity="0.3" d="M185.109 89.143L217.548 64.3466C216.331 62.5904 214.971 60.9369 213.482 59.4028L185.109 86.9578V89.143Z" fill="black"/>
<path d="M226.923 41.937L212.054 57.0008L188.384 80.8827L182.967 86.3689C181.245 88.1202 183.93 90.8013 185.653 89.0655L200.537 74.0018L224.145 50.1198L229.577 44.6181C231.285 42.8824 228.6 40.2012 226.877 41.937H226.923Z" fill="#C7CAD2"/>
<path d="M183.246 36.2027C183.107 36.2027 182.983 28.0974 182.983 18.1013C182.983 8.10532 183.107 0 183.246 0C183.386 0 183.51 8.10532 183.51 18.1013C183.51 28.0974 183.402 36.2027 183.246 36.2027Z" fill="#C7CAD2"/>
<path d="M210.642 17.3107C210.766 17.4037 207.864 21.4641 204.17 26.3924C200.476 31.3206 197.387 35.2416 197.278 35.1486C197.17 35.0556 200.057 30.9952 203.751 26.0824C207.445 21.1696 210.533 17.2332 210.642 17.3107Z" fill="#C7CAD2"/>
<path d="M155.526 16.4741C155.65 16.4741 158.164 20.7205 161.145 26.1137C164.125 31.5069 166.437 35.9237 166.298 35.9857C166.158 36.0477 163.659 31.7549 160.679 26.3617C157.699 20.9685 155.402 16.5516 155.526 16.4741Z" fill="#C7CAD2"/>
<path d="M608.356 127.5L616.442 126.554C620.992 131.19 627.113 133.96 633.604 134.319C640.094 134.678 646.484 132.6 651.519 128.495C656.554 124.389 659.869 118.552 660.813 112.13C661.757 105.709 660.262 99.1666 656.621 93.7894C652.981 88.4122 647.458 84.5887 641.138 83.07C634.818 81.5514 628.158 82.4474 622.466 85.5821C616.774 88.7167 612.462 93.8634 610.376 100.011C608.291 106.158 608.583 112.862 611.196 118.805L608.356 127.5Z" fill="white"/>
<path d="M608.356 127.499L608.511 126.957L609.023 125.314L611.088 118.805V118.604L611.227 118.774L611.025 118.883C609.225 114.901 608.462 110.53 608.806 106.175C609.029 103.381 609.711 100.643 610.824 98.0693C613.073 92.7919 616.999 88.3996 621.995 85.5693C626.991 82.7389 632.781 81.6274 638.472 82.4062C644.163 83.185 649.439 85.8109 653.488 89.8791C657.538 93.9473 660.135 99.2321 660.879 104.919C661.394 108.959 660.975 113.062 659.653 116.915C658.398 120.532 656.352 123.825 653.662 126.554C650.306 129.986 646.07 132.431 641.416 133.62C636.762 134.809 631.87 134.697 627.276 133.296C623.114 132.025 619.34 129.728 616.303 126.616H616.396L610.327 127.252L608.775 127.407H608.278L608.821 127.329L610.374 127.112L616.349 126.353C618.77 128.782 621.651 130.705 624.825 132.01C627.998 133.315 631.401 133.975 634.833 133.952C638.265 133.929 641.658 133.223 644.813 131.876C647.969 130.528 650.824 128.566 653.212 126.105C655.851 123.428 657.851 120.191 659.063 116.636C660.359 112.858 660.768 108.833 660.259 104.873C659.453 98.794 656.499 93.2027 651.928 89.1077C647.357 85.0126 641.471 82.6836 635.332 82.5406C631.772 82.4626 628.236 83.1219 624.945 84.477C621.653 85.832 618.679 87.8533 616.21 90.4135C612.155 94.7279 609.691 100.292 609.225 106.19C608.856 110.492 609.571 114.818 611.305 118.774L611.646 119.565L611.103 118.898H611.305L609.132 125.268L608.558 126.942C608.433 127.298 608.356 127.499 608.356 127.499Z" fill="#C7CAD2"/>
<path d="M622.154 109.321L625.351 105.896L631.948 111.351L644.07 98.8755L647.267 102.084L631.684 117.752L622.154 109.321Z" fill="#00BD6A"/>
<path d="M492.831 145.338C491.343 143.724 489.695 142.264 487.911 140.983C486.983 140.48 485.991 140.105 484.962 139.867C484.962 139.867 469.891 135.714 466.725 135.435C463.559 135.156 463.869 137.744 466.818 138.224C469.958 139.03 473.034 140.066 476.022 141.324C475.652 141.392 475.315 141.581 475.065 141.862C474.815 142.143 474.666 142.499 474.641 142.873C474.548 144.222 475.479 144.423 475.479 144.423C475.225 144.641 475.019 144.909 474.874 145.21C474.73 145.512 474.65 145.84 474.64 146.174C474.63 146.508 474.689 146.84 474.815 147.15C474.941 147.46 475.13 147.74 475.37 147.972C475.37 147.972 474.284 148.871 474.625 149.863C475.104 150.777 475.745 151.597 476.519 152.281C476.519 152.281 482.96 156.341 484.357 156.449C485.754 156.558 487.353 156.868 487.353 156.868L489.619 158.511L495.703 148.98C494.846 147.69 493.886 146.472 492.831 145.338Z" fill="#FFBE9D"/>
<path d="M476.007 141.184C476.425 141.356 476.863 141.476 477.311 141.541C477.749 141.644 478.196 141.706 478.645 141.727C478.23 141.546 477.791 141.426 477.342 141.37C476.907 141.248 476.458 141.186 476.007 141.184Z" fill="#EB996E"/>
<path d="M475.386 144.408C476.218 144.714 477.068 144.967 477.931 145.167C477.556 144.925 477.141 144.752 476.705 144.656C476.28 144.507 475.836 144.423 475.386 144.408Z" fill="#EB996E"/>
<path d="M475.014 147.461C475.453 147.693 475.91 147.89 476.38 148.05C476.824 148.27 477.286 148.451 477.761 148.592C477.364 148.296 476.925 148.061 476.458 147.895C476.001 147.678 475.514 147.532 475.014 147.461Z" fill="#EB996E"/>
<path d="M604.631 293.713C604.631 293.713 601.945 269.133 596.187 266.406C590.429 263.678 582.42 261.88 580.247 265.553C577.557 270.22 575.752 275.343 574.923 280.664C574.403 285.6 574.279 290.57 574.551 295.526L581.132 294.798C581.132 294.798 580.806 270.296 582.792 266.685C584.779 263.074 594.914 265.972 596.016 270.327C597.118 274.681 599.555 294.271 599.555 294.271L604.631 293.713Z" fill="#455A64"/>
<path d="M627.509 328.319C627.198 318.183 626.221 295.774 625.786 286.01C625.734 284.721 625.182 283.502 624.246 282.611C623.311 281.721 622.065 281.228 620.773 281.237L560.395 281.593C559.098 281.597 557.853 282.106 556.925 283.012C555.998 283.918 555.461 285.149 555.429 286.444L554.233 328.086C554.217 328.752 554.333 329.413 554.576 330.033C554.819 330.653 555.182 331.218 555.646 331.696C556.11 332.173 556.665 332.554 557.278 332.815C557.89 333.076 558.549 333.212 559.216 333.216L622.495 333.464C623.166 333.467 623.831 333.334 624.449 333.075C625.068 332.815 625.628 332.434 626.096 331.954C626.563 331.474 626.93 330.904 627.173 330.28C627.415 329.655 627.53 328.989 627.509 328.319Z" fill="#455A64"/>
<path d="M559.619 296.812C559.619 296.812 559.619 296.951 559.619 297.261V298.594C559.619 299.803 559.619 301.554 559.619 303.801C559.619 308.358 559.619 314.929 559.728 323.034V324.584C559.71 325.123 559.833 325.657 560.085 326.134C560.365 326.639 560.801 327.041 561.327 327.281C561.864 327.492 562.443 327.577 563.019 327.529H569.91H585.152H601.977H610.886H616.582C616.982 327.555 617.384 327.529 617.777 327.451C618.191 327.355 618.577 327.166 618.905 326.897C619.234 326.628 619.496 326.287 619.671 325.901C619.829 325.571 619.919 325.213 619.935 324.847C619.935 324.491 619.935 324.181 619.935 323.84V321.872C619.935 320.555 619.935 319.253 619.857 317.951C619.857 315.363 619.748 312.806 619.686 310.28C619.578 305.243 619.469 300.376 619.376 295.727V295.495H619.143C601.806 296.548 586.921 296.843 576.382 296.889C571.121 296.889 566.945 296.889 564.074 296.889H559.945C559.759 296.889 559.666 296.889 559.666 296.889H559.961H560.815L564.074 296.982C566.945 297.06 571.121 297.122 576.382 297.137C586.921 297.137 601.821 296.936 619.174 295.913L618.941 295.696C619.05 300.345 619.143 305.227 619.252 310.264C619.252 312.775 619.345 315.347 619.407 317.935C619.407 319.237 619.407 320.539 619.484 321.856V323.825C619.572 324.446 619.502 325.08 619.283 325.669C619.137 325.986 618.922 326.266 618.653 326.489C618.385 326.711 618.069 326.871 617.731 326.955C617.365 327.003 616.994 327.003 616.629 326.955H610.932H602.023H585.198H569.956H563.05C562.524 327.012 561.992 326.943 561.497 326.754C561.04 326.545 560.66 326.198 560.411 325.762C560.164 325.323 560.05 324.822 560.085 324.32C560.085 323.809 560.085 323.298 560.085 322.771C559.961 314.712 559.868 308.172 559.79 303.631C559.79 301.368 559.79 299.617 559.697 298.393V297.029C559.635 297.044 559.619 296.812 559.619 296.812Z" fill="#C7CAD2"/>
<path d="M576.972 323.623C576.972 323.623 576.6 323.623 575.917 323.468C574.918 323.259 574.005 322.757 573.294 322.027C572.744 321.446 572.328 320.753 572.074 319.996C571.819 319.239 571.732 318.435 571.819 317.641C571.819 315.75 571.819 313.596 571.819 311.225C571.819 310.032 571.819 308.792 571.819 307.49C571.697 306.17 572.08 304.852 572.89 303.802C573.32 303.25 573.862 302.796 574.479 302.467C575.097 302.139 575.777 301.944 576.475 301.896C577.934 301.896 579.58 301.896 581.132 301.896L601.635 301.725C602.501 301.719 603.353 301.938 604.11 302.359C604.866 302.78 605.5 303.389 605.95 304.127C606.393 304.847 606.64 305.67 606.664 306.514C606.664 307.382 606.664 308.234 606.664 309.086C606.664 310.807 606.664 312.48 606.664 314.139C606.664 314.96 606.664 315.766 606.664 316.572C606.711 317.356 606.711 318.143 606.664 318.927C606.513 320.016 606.007 321.025 605.224 321.798C604.441 322.571 603.426 323.065 602.334 323.205C601.651 323.282 600.906 323.205 600.207 323.205L592.447 323.298L581.147 323.484H578.043H577.236H576.972H581.07H592.353H600.114C600.813 323.484 601.511 323.484 602.272 323.484C603.45 323.325 604.544 322.784 605.386 321.944C606.227 321.104 606.769 320.012 606.928 318.834C607.021 318.013 606.928 317.285 606.928 316.417C606.928 315.549 606.928 314.867 606.928 313.968C606.928 312.325 606.928 310.652 606.928 308.931C606.928 308.079 606.928 307.211 606.928 306.328C606.891 305.412 606.619 304.52 606.136 303.74C605.653 302.938 604.97 302.276 604.154 301.817C603.338 301.358 602.417 301.118 601.48 301.121L581.07 301.462C579.518 301.462 577.965 301.462 576.413 301.462C575.663 301.516 574.932 301.727 574.269 302.082C573.605 302.438 573.025 302.928 572.564 303.523C571.712 304.644 571.308 306.042 571.431 307.444C571.431 308.745 571.431 309.985 571.431 311.179C571.431 313.55 571.431 315.704 571.524 317.61C571.524 318.075 571.524 318.524 571.524 318.989C571.679 320.167 572.226 321.259 573.076 322.089C573.826 322.819 574.777 323.31 575.808 323.499C576.188 323.593 576.58 323.635 576.972 323.623Z" fill="#C7CAD2"/>
<g opacity="0.3">
<path opacity="0.3" d="M618.057 327.219C600.042 332.65 580.828 332.698 562.786 327.358L618.057 327.219Z" fill="black"/>
</g>
<path d="M583.872 308.085L591.011 308.021C592.126 308.011 593.021 307.1 593.011 305.988L593.011 305.972C593 304.86 592.089 303.966 590.975 303.976L583.835 304.041C582.721 304.051 581.826 304.961 581.836 306.074L581.836 306.089C581.846 307.202 582.758 308.096 583.872 308.085Z" fill="#E0E0E0"/>
<path d="M584.174 256.146C583.135 257.064 582.213 258.105 581.426 259.246C580.632 261.388 579.994 263.584 579.517 265.817C579.517 265.817 580.526 266.731 582.326 263.864C583.235 262.509 584.014 261.072 584.655 259.571L584.174 256.146Z" fill="#FFBE9D"/>
<path d="M593.052 245.375L590.646 249.591L584.049 256.255L581.566 266.142C581.293 267.182 581.414 268.286 581.907 269.242C582.04 269.549 582.269 269.804 582.559 269.97C583.304 270.28 585.4 269.211 585.4 269.211C585.4 269.211 586.952 271.102 588.504 269.986C588.504 269.986 590.848 271.195 592.151 269.986C592.151 269.986 593.703 271.164 594.743 270.435C596.334 268.79 597.768 267 599.027 265.089L603.28 249.854L593.052 245.375Z" fill="#FFBE9D"/>
<path d="M608.604 161.982C609.918 162.937 610.998 164.176 611.764 165.606C612.53 167.036 612.962 168.621 613.028 170.242C613.199 174.396 616.318 202.555 616.132 210.133C615.946 217.712 602.939 253.527 602.939 253.527L588.675 249.25L600.999 209.157L599.695 184.066L608.604 161.982Z" fill="#EBEBEB"/>
<path d="M583.6 100.115C583.23 99.3959 582.647 98.8076 581.931 98.4304C581.214 98.0533 580.399 97.9057 579.595 98.0077C578.664 97.2619 577.51 96.8465 576.316 96.8269C575.122 96.8073 573.955 97.1845 572.999 97.8992C572.304 97.4766 571.515 97.2327 570.702 97.1895C569.889 97.1462 569.079 97.3049 568.343 97.6512C567.611 98.0183 566.985 98.565 566.524 99.2401C566.062 99.9151 565.78 100.696 565.704 101.51C564.885 101.372 564.042 101.482 563.287 101.828C562.531 102.173 561.897 102.737 561.467 103.447C561.064 104.182 560.898 105.023 560.992 105.856C561.087 106.688 561.437 107.471 561.994 108.097C561.065 108.332 560.259 108.912 559.741 109.717C559.222 110.523 559.029 111.495 559.201 112.438C559.372 113.38 559.895 114.222 560.664 114.794C561.433 115.366 562.391 115.626 563.345 115.52L582.777 104.579C583.369 104.017 583.767 103.282 583.915 102.481C584.063 101.679 583.953 100.851 583.6 100.115Z" fill="black"/>
<path d="M560.893 136.488C561.001 132.32 561.901 123.734 562.802 115.985C563.293 111.951 565.284 108.248 568.38 105.611C571.476 102.973 575.451 101.592 579.518 101.743H580.356C589.42 102.579 593.766 110.669 592.664 119.611L590.119 147.786L572.518 163.532L568.653 152.451L569.258 146.779C569.258 146.779 560.629 145.121 560.893 136.488Z" fill="#FFBE9D"/>
<path d="M569.227 146.764C573.276 146.897 577.28 145.882 580.775 143.834C580.775 143.834 577.872 150.034 569.196 148.887L569.227 146.764Z" fill="#EB996E"/>
<path d="M564.99 123.501C564.977 123.824 565.092 124.138 565.31 124.376C565.528 124.614 565.831 124.756 566.154 124.772C566.31 124.792 566.469 124.78 566.62 124.737C566.772 124.694 566.913 124.621 567.036 124.523C567.159 124.425 567.261 124.303 567.336 124.165C567.411 124.027 567.458 123.875 567.473 123.718C567.486 123.395 567.371 123.079 567.154 122.838C566.936 122.598 566.633 122.452 566.309 122.432C566.151 122.413 565.992 122.425 565.839 122.469C565.687 122.513 565.545 122.587 565.422 122.687C565.298 122.787 565.197 122.91 565.122 123.05C565.048 123.19 565.003 123.344 564.99 123.501Z" fill="black"/>
<path d="M564.447 120.278C564.602 120.448 565.564 119.782 566.915 119.828C568.265 119.875 569.212 120.588 569.352 120.417C569.491 120.247 569.352 120.061 568.87 119.735C568.304 119.314 567.62 119.081 566.915 119.069C566.217 119.037 565.527 119.227 564.943 119.611C564.524 119.921 564.385 120.138 564.447 120.278Z" fill="black"/>
<path d="M577.081 124.137C577.068 124.461 577.183 124.776 577.4 125.017C577.618 125.257 577.921 125.403 578.245 125.423C578.402 125.442 578.562 125.43 578.714 125.386C578.867 125.342 579.009 125.268 579.132 125.169C579.255 125.069 579.357 124.945 579.431 124.805C579.505 124.665 579.551 124.512 579.564 124.354C579.577 124.032 579.465 123.719 579.25 123.479C579.036 123.239 578.737 123.091 578.416 123.067C578.257 123.048 578.097 123.061 577.943 123.104C577.79 123.148 577.647 123.222 577.522 123.321C577.398 123.421 577.295 123.544 577.219 123.684C577.143 123.824 577.096 123.978 577.081 124.137Z" fill="black"/>
<path d="M577.608 120.975C577.764 121.146 578.741 120.479 580.076 120.541C581.411 120.603 582.373 121.285 582.529 121.13C582.684 120.975 582.451 120.758 582.032 120.433C581.46 120.022 580.78 119.79 580.076 119.766C579.38 119.728 578.691 119.924 578.121 120.324C577.686 120.619 577.546 120.898 577.608 120.975Z" fill="black"/>
<path d="M572.409 130.646C571.702 130.421 570.974 130.27 570.236 130.196C569.894 130.196 569.584 130.057 569.537 129.824C569.51 129.473 569.603 129.124 569.801 128.832C570.143 128.027 570.515 127.174 570.903 126.291C571.916 124.136 572.752 121.902 573.402 119.611C572.204 121.684 571.167 123.844 570.298 126.074C569.925 126.973 569.568 127.825 569.242 128.631C569.005 129.032 568.923 129.506 569.01 129.964C569.057 130.083 569.131 130.191 569.224 130.28C569.318 130.368 569.43 130.435 569.553 130.475C569.744 130.533 569.943 130.564 570.143 130.568C570.891 130.697 571.653 130.723 572.409 130.646Z" fill="black"/>
<path d="M576.32 131.7C576.103 131.7 576.041 133.125 574.768 134.102C573.496 135.078 571.943 134.877 571.928 135.078C571.912 135.28 572.254 135.373 572.906 135.404C573.759 135.451 574.601 135.193 575.28 134.675C575.933 134.188 576.368 133.465 576.491 132.661C576.569 132.072 576.414 131.7 576.32 131.7Z" fill="black"/>
<path d="M577.453 115.768C577.577 116.124 578.912 116 580.48 116.248C582.048 116.496 583.305 116.961 583.584 116.636C583.863 116.31 583.475 116.14 582.979 115.783C582.313 115.322 581.547 115.025 580.744 114.916C579.942 114.787 579.122 114.856 578.353 115.117C577.702 115.319 577.407 115.598 577.453 115.768Z" fill="black"/>
<path d="M565.083 116.45C565.3 116.76 566.231 116.45 567.349 116.45C568.466 116.45 569.398 116.713 569.615 116.45C569.832 116.186 569.615 116 569.18 115.706C568.644 115.332 568.003 115.137 567.349 115.148C566.697 115.132 566.056 115.322 565.517 115.69C565.114 116 564.974 116.31 565.083 116.45Z" fill="black"/>
<path d="M563.701 112.049C563.701 112.049 566.2 106.733 568.87 105.555C572.114 104.145 573.371 107.647 576.428 106.919C579.486 106.19 582.637 104.811 585.617 107.244C588.923 109.91 587.278 111.646 587.34 115.489C587.65 130.987 590.366 135.543 591.437 128.244C591.546 127.453 593.828 126.895 594.278 123.594C594.868 119.209 595.225 113.893 594.278 110.731C593.462 108.041 591.754 105.708 589.435 104.114C585.276 100.813 579.393 100.549 575.388 100.797C571.384 101.045 563.577 105.276 563.701 112.049Z" fill="black"/>
<path d="M590.895 127.996C590.916 127.678 591.001 127.368 591.146 127.084C591.291 126.801 591.493 126.55 591.738 126.347C591.984 126.144 592.268 125.993 592.574 125.903C592.88 125.814 593.201 125.787 593.518 125.826C595.147 126.027 596.917 127.004 596.7 130.336C596.296 136.225 590.398 134.613 590.398 134.458C590.398 134.303 590.693 130.46 590.895 127.996Z" fill="#FFBE9D"/>
<path d="M591.842 132.32C591.842 132.32 591.95 132.32 592.121 132.49C592.37 132.592 592.648 132.592 592.897 132.49C593.297 132.276 593.631 131.959 593.866 131.572C594.101 131.185 594.227 130.742 594.232 130.289C594.285 129.765 594.221 129.236 594.046 128.74C594.001 128.552 593.911 128.377 593.784 128.231C593.657 128.086 593.497 127.973 593.316 127.903C593.199 127.864 593.073 127.866 592.957 127.908C592.842 127.95 592.744 128.03 592.68 128.135C592.587 128.306 592.68 128.414 592.587 128.43C592.494 128.445 592.478 128.321 592.587 128.073C592.627 127.934 592.715 127.814 592.835 127.732C593.009 127.619 593.22 127.575 593.425 127.608C593.663 127.68 593.88 127.807 594.058 127.98C594.236 128.152 594.37 128.365 594.449 128.6C594.669 129.129 594.754 129.704 594.698 130.274C594.688 130.801 594.522 131.314 594.221 131.747C593.92 132.18 593.497 132.514 593.006 132.707C592.844 132.747 592.676 132.748 592.514 132.71C592.352 132.672 592.202 132.597 592.074 132.49C591.935 132.537 591.826 132.32 591.842 132.32Z" fill="#EB996E"/>
<path d="M591.174 116.558C590.421 117.119 589.541 117.486 588.613 117.628C588.146 117.681 587.676 117.564 587.289 117.299C586.901 117.035 586.622 116.64 586.502 116.187C586.502 115.784 586.502 115.303 586.3 114.978C586.098 114.652 585.384 114.683 584.872 114.714C584.002 114.753 583.146 114.492 582.445 113.976C581.744 113.46 581.242 112.719 581.023 111.878C580.751 112.17 580.376 112.346 579.977 112.369C579.578 112.392 579.185 112.261 578.881 112.002C578.281 111.492 577.758 110.896 577.329 110.235C577.108 109.903 576.808 109.631 576.456 109.441C576.104 109.252 575.711 109.152 575.311 109.151C574.888 109.282 574.45 109.36 574.007 109.383C573.231 109.29 572.874 108.376 572.781 107.601C572.688 106.826 572.642 105.927 571.99 105.478C571.318 105.187 570.565 105.143 569.863 105.354C569.134 105.354 568.203 105.23 568.047 104.532C568.025 104.342 568.04 104.15 568.094 103.966C568.147 103.782 568.237 103.611 568.358 103.463C568.876 102.757 569.617 102.245 570.462 102.012C571.307 101.779 572.206 101.837 573.014 102.177C573.358 101.214 573.976 100.373 574.792 99.7567C575.609 99.1405 576.588 98.7763 577.609 98.7087C578.63 98.6412 579.649 98.8733 580.539 99.3766C581.43 99.8799 582.154 100.632 582.622 101.541C583.276 100.994 584.052 100.611 584.886 100.425C585.719 100.239 586.584 100.256 587.41 100.473C588.235 100.69 588.997 101.101 589.63 101.673C590.263 102.244 590.75 102.959 591.05 103.757C591.791 103.61 592.559 103.677 593.263 103.952C593.968 104.227 594.578 104.697 595.023 105.307C595.455 105.916 595.701 106.636 595.731 107.382C595.762 108.127 595.575 108.865 595.194 109.507C595.739 109.797 596.2 110.221 596.534 110.739C596.868 111.257 597.064 111.852 597.103 112.467C597.103 112.769 597.037 113.068 596.909 113.342C596.781 113.616 596.594 113.859 596.361 114.053C596.129 114.246 595.856 114.387 595.563 114.463C595.27 114.54 594.964 114.552 594.666 114.497C594.872 114.991 594.889 115.543 594.714 116.048C594.54 116.554 594.186 116.978 593.719 117.24C593.237 117.481 592.683 117.536 592.162 117.396C591.642 117.256 591.191 116.931 590.894 116.481" fill="black"/>
<path d="M595.039 114.389C595.056 114.596 595.027 114.805 594.955 115.001C594.883 115.196 594.768 115.373 594.62 115.52C594.31 115.881 593.88 116.117 593.409 116.186C593.104 116.22 592.794 116.188 592.502 116.091C592.21 115.995 591.943 115.837 591.717 115.628H591.981C591.643 116.164 591.224 116.645 590.739 117.054C590.408 117.33 590.029 117.546 589.622 117.69C589.231 117.797 588.818 117.797 588.427 117.69C588.086 117.651 587.758 117.538 587.465 117.358C587.173 117.179 586.924 116.938 586.735 116.651C586.51 116.27 586.363 115.849 586.3 115.412C586.273 115.253 586.273 115.09 586.3 114.931C586.3 114.931 586.3 115.086 586.456 115.381C586.569 115.786 586.742 116.172 586.968 116.527C587.183 116.786 587.449 116.998 587.75 117.149C588.051 117.301 588.38 117.389 588.717 117.408C589.053 117.427 589.39 117.376 589.706 117.259C590.022 117.142 590.31 116.962 590.553 116.729C591.012 116.341 591.41 115.886 591.733 115.381L591.841 115.21L591.981 115.365C592.171 115.544 592.396 115.68 592.642 115.766C592.888 115.851 593.15 115.884 593.409 115.861C593.827 115.822 594.218 115.635 594.511 115.334C594.748 115.057 594.927 114.735 595.039 114.389Z" fill="#455A64"/>
<path d="M578.338 132.645C578.245 132.645 578.23 132.01 577.733 131.483C577.236 130.956 576.646 130.832 576.646 130.739C576.646 130.646 576.817 130.661 577.097 130.739C577.444 130.827 577.757 131.016 577.997 131.281C578.231 131.553 578.382 131.887 578.431 132.242C578.447 132.537 578.385 132.645 578.338 132.645Z" fill="#EB996E"/>
<path d="M578.928 130.987C578.835 130.987 578.633 130.832 578.323 130.677C578.012 130.522 577.717 130.475 577.702 130.382C577.686 130.289 578.059 130.165 578.478 130.382C578.897 130.599 579.006 130.987 578.928 130.987Z" fill="#EB996E"/>
<path d="M568.016 97.8062C568.016 97.8062 567.364 98.1316 566.883 99.108C566.596 99.68 566.417 100.3 566.356 100.937C566.281 101.739 566.495 102.541 566.961 103.199C567.459 103.816 568.097 104.305 568.823 104.625C569.398 104.885 569.989 105.108 570.593 105.292C571.131 105.485 571.688 105.625 572.254 105.71C571.771 105.407 571.248 105.173 570.701 105.013C570.205 104.811 569.631 104.594 569.01 104.284C568.354 103.97 567.776 103.515 567.318 102.951C566.907 102.369 566.71 101.663 566.759 100.952C566.795 100.358 566.937 99.7759 567.178 99.2319C567.397 98.7239 567.679 98.245 568.016 97.8062Z" fill="#E0E0E0"/>
<path d="M564.229 101.681C564.229 101.681 564.136 102.053 564.307 102.642C564.527 103.41 564.957 104.102 565.548 104.641C566.128 105.172 566.842 105.536 567.612 105.695C568.202 105.819 568.575 105.695 568.575 105.695C568.575 105.695 568.218 105.586 567.69 105.416C567.007 105.182 566.379 104.813 565.843 104.331C565.313 103.839 564.89 103.243 564.601 102.58C564.369 102.022 564.291 101.681 564.229 101.681Z" fill="#E0E0E0"/>
<path d="M557.99 158.278L549.407 226.7C548.988 230.032 552.014 236.076 555.258 236.898L598.624 241.547C599.239 241.632 599.864 241.588 600.46 241.418C601.056 241.249 601.61 240.957 602.088 240.562C602.565 240.167 602.955 239.677 603.232 239.124C603.51 238.571 603.669 237.965 603.7 237.347C604.786 228.049 605.531 208.568 606.804 195.86C608.279 181.912 610.964 164.059 607.704 161.517C602.466 157.683 596.916 154.293 591.112 151.381L590.383 145.027C590.383 145.027 571.043 147.259 567.753 150.095L566.201 156.294L557.99 158.278Z" fill="#EBEBEB"/>
<path d="M564.85 157.085L525.069 160.835L494.151 145.709L487.617 159.27L492.351 161.734C499.972 166.585 513.879 176.782 519.668 179.34C527.786 182.92 568.575 178.301 568.575 178.301L564.85 157.085Z" fill="#EBEBEB"/>
<path d="M553.582 179.975C554.463 179.907 555.34 179.783 556.205 179.603C558.56 179.041 560.71 177.833 562.414 176.116C564.9 173.552 566.376 170.179 566.573 166.616C566.676 164.534 566.232 162.461 565.285 160.603C564.866 159.619 564.121 158.809 563.174 158.309C562.123 157.923 560.997 157.785 559.884 157.906C550.571 158.604 542.127 159.456 536.028 159.952L528.795 160.572L526.824 160.711C526.597 160.739 526.367 160.739 526.141 160.711C526.357 160.644 526.581 160.602 526.808 160.588L528.779 160.34L535.997 159.549C542.096 158.929 550.509 157.999 559.868 157.348C561.062 157.219 562.269 157.373 563.391 157.798C564.448 158.378 565.267 159.311 565.704 160.433C566.669 162.351 567.118 164.487 567.008 166.632C566.785 170.3 565.229 173.761 562.631 176.364C560.876 178.103 558.655 179.297 556.236 179.805C555.587 179.934 554.927 180.006 554.265 180.022L553.582 179.975Z" fill="#C7CAD2"/>
<path d="M591.174 151.444C589.972 151.753 588.755 151.996 587.526 152.172C585.276 152.606 582.187 153.304 578.788 154.14C575.389 154.977 572.269 155.613 569.987 155.954C568.854 156.124 567.923 156.233 567.287 156.279C566.952 156.326 566.613 156.326 566.278 156.279C566.278 156.202 567.675 155.985 569.925 155.551C572.176 155.117 575.265 154.419 578.664 153.598C582.063 152.777 585.183 152.048 587.464 151.769C588.597 151.614 589.529 151.49 590.165 151.444C590.5 151.407 590.839 151.407 591.174 151.444Z" fill="#C7CAD2"/>
<path d="M609.008 168.692C609.046 168.939 609.046 169.19 609.008 169.436C609.008 169.979 608.884 170.692 608.791 171.59C608.589 173.512 608.31 176.24 607.984 179.494C607.316 186.174 606.509 195.41 605.95 205.639C605.656 210.753 605.469 215.619 605.33 220.067C605.33 222.268 605.221 224.376 605.159 226.359C605.097 228.343 605.159 230.172 605.004 231.861C604.923 233.382 604.673 234.889 604.259 236.355C603.95 237.466 603.451 238.515 602.784 239.455C602.355 240.053 601.831 240.577 601.232 241.005L600.58 241.392C601.362 240.821 602.048 240.131 602.613 239.347C603.246 238.4 603.708 237.352 603.979 236.247C604.354 234.797 604.572 233.311 604.631 231.815C604.724 230.156 604.631 228.312 604.724 226.328C604.817 224.345 604.724 222.252 604.833 220.036C604.957 215.588 605.128 210.738 605.423 205.592C605.981 195.364 606.851 186.112 607.611 179.448C607.984 176.116 608.325 173.419 608.589 171.559C608.713 170.661 608.822 170.01 608.899 169.405C608.915 169.165 608.952 168.926 609.008 168.692Z" fill="#C7CAD2"/>
<path d="M520.63 336.889L528.391 354.185C528.391 354.185 507.949 362.166 507.794 365.963L547.575 365.25V361.934L538.805 333.418L520.63 336.889Z" fill="#455A64"/>
<path d="M540.047 351.054C540.43 351.166 540.76 351.413 540.974 351.75C541.188 352.086 541.272 352.489 541.211 352.883C541.118 353.274 540.877 353.614 540.538 353.831C540.199 354.048 539.79 354.125 539.395 354.045C538.989 353.929 538.64 353.667 538.417 353.309C538.193 352.951 538.11 352.523 538.184 352.108C538.326 351.713 538.614 351.387 538.99 351.2C539.366 351.012 539.801 350.977 540.202 351.101" fill="#E0E0E0"/>
<path d="M547.575 365.25V361.934L509.393 363.917C509.393 363.917 507.623 364.723 507.84 365.963L547.575 365.25Z" fill="#C7CAD2"/>
<path d="M527.755 353.983C527.755 354.185 528.732 354.247 529.695 354.851C530.657 355.455 531.247 356.277 531.371 356.184C531.495 356.091 531.231 354.99 530.052 354.278C528.872 353.565 527.708 353.813 527.755 353.983Z" fill="#C7CAD2"/>
<path d="M523.641 355.781C523.641 355.967 524.448 356.292 525.116 357.098C525.783 357.904 526 358.772 526.187 358.757C526.373 358.741 526.481 357.641 525.628 356.664C524.774 355.688 523.641 355.595 523.641 355.781Z" fill="#C7CAD2"/>
<path d="M521.329 360.818C521.499 360.818 521.763 359.873 521.235 358.819C520.708 357.765 519.808 357.362 519.683 357.532C519.559 357.703 520.164 358.245 520.584 359.082C521.003 359.919 521.127 360.802 521.329 360.818Z" fill="#C7CAD2"/>
<path d="M526.296 349.504C526.389 349.69 527.274 349.396 528.376 349.504C529.478 349.613 530.331 349.892 530.425 349.721C530.518 349.551 529.695 348.869 528.391 348.823C527.087 348.776 526.203 349.334 526.296 349.504Z" fill="#C7CAD2"/>
<path d="M590.584 379.151L591.469 412.115L574.101 412.053L573.169 379.895L590.584 379.151Z" fill="#455A64"/>
<path d="M582.839 410.441C582.699 410.441 582.482 403.405 582.358 394.742C582.233 386.079 582.249 379.043 582.358 379.027C582.466 379.012 582.73 386.063 582.854 394.727C582.979 403.39 582.994 410.441 582.839 410.441Z" fill="#C7CAD2"/>
<path d="M573.806 401.778C573.909 401.518 574.056 401.276 574.24 401.065C574.704 400.456 575.224 399.89 575.792 399.376C576.616 398.601 577.546 397.949 578.555 397.439C579.796 396.788 581.173 396.438 582.575 396.416C583.843 396.384 585.104 396.614 586.28 397.092C587.455 397.569 588.518 398.283 589.404 399.19C589.928 399.746 590.372 400.372 590.724 401.05C590.862 401.291 590.961 401.553 591.019 401.825C590.456 400.986 589.828 400.193 589.141 399.454C587.37 397.784 585.01 396.881 582.575 396.943C580.151 397.077 577.845 398.034 576.041 399.655C574.566 400.879 573.883 401.84 573.806 401.778Z" fill="#C7CAD2"/>
<path d="M591.391 412.146L574.116 412.069L573.992 408.163L591.423 408.241L591.391 412.146Z" fill="#C7CAD2"/>
<path d="M591.935 239.471L555.941 236.371L555.336 240.308C546.178 247.653 517.588 265.181 502.827 279.548C502.827 279.548 497.38 287.142 499.553 293.821L522.633 346.048L546.116 340.64L531.774 296.301L575.87 275.751C584.438 272.651 592.152 261.803 593.983 255.604C595.551 250.319 592.183 246.29 591.935 239.471Z" fill="#C7CAD2"/>
<path d="M561.73 281.097L571.245 392.045L595.287 391.906C595.287 391.906 596.063 358.043 595.582 335.2C595.101 312.356 597.879 265.956 597.879 265.956L561.73 281.097Z" fill="#C7CAD2"/>
<path d="M591.935 239.471L603.498 240.742C603.498 240.742 604.631 263.787 603.793 266.7C602.955 269.614 596.731 281.191 596.731 281.191L562.584 291.125V265.181L591.935 239.471Z" fill="#C7CAD2"/>
<path d="M588.907 263.089C588.841 263.307 588.747 263.515 588.628 263.709C588.349 264.302 588.033 264.877 587.681 265.429C586.413 267.495 584.844 269.359 583.025 270.962C580.338 273.328 577.353 275.333 574.147 276.929C570.577 278.788 566.51 280.508 562.304 282.461L540.73 292.333L534.164 295.278L532.379 296.053C532.171 296.154 531.953 296.232 531.727 296.285C531.92 296.161 532.123 296.052 532.333 295.96L534.086 295.107L540.59 292.008L562.118 282.012C566.308 280.059 570.39 278.354 573.945 276.51C577.129 274.955 580.102 273.002 582.792 270.698C584.588 269.132 586.156 267.322 587.448 265.321C588.442 263.91 588.83 263.074 588.907 263.089Z" fill="#455A64"/>
<path d="M516.517 294.301C517.32 294.032 518.155 293.87 519 293.821C521.038 293.593 523.094 293.593 525.131 293.821C527.166 294.05 529.167 294.518 531.091 295.216C531.897 295.474 532.665 295.838 533.373 296.301C532.562 296.096 531.763 295.842 530.983 295.541C529.055 294.943 527.075 294.528 525.069 294.301C523.064 294.088 521.044 294.047 519.032 294.177C518.197 294.273 517.357 294.314 516.517 294.301Z" fill="#455A64"/>
<path d="M555.087 240.261L603.684 244.848L603.529 241.284L555.956 236.355L555.087 240.261Z" fill="#455A64"/>
<path d="M565.393 241.733C565.533 241.454 565.89 237.239 565.89 237.239L568.529 237.518L567.892 242.663L565.393 241.733Z" fill="#C7CAD2"/>
<path d="M590.879 244.445C591.019 244.167 591.36 239.951 591.36 239.951L594.014 240.23L593.378 245.375L590.879 244.445Z" fill="#C7CAD2"/>
</g>
<defs>
<clipPath id="clip0_659:1639">
<rect width="839" height="468" fill="white"/>
</clipPath>
</defs>
</svg>
