<svg width="213" height="195" viewBox="0 0 213 195" fill="none" xmlns="http://www.w3.org/2000/svg">
<path fill-rule="evenodd" clip-rule="evenodd" d="M112.345 12.0513C137.485 14.5009 148.043 42.3794 164.463 61.4532C182.233 82.0945 213.677 97.9357 209.372 124.76C204.977 152.148 171.664 161.234 146.519 173.269C121.37 185.306 95.1414 202.004 69.156 191.872C41.552 181.109 24.4315 152.861 19.6112 123.786C15.1191 96.6919 28.0311 71.0568 45.6132 49.8721C62.755 29.2181 85.5323 9.43853 112.345 12.0513Z" fill="#5FEEA9"/>
<path fill-rule="evenodd" clip-rule="evenodd" d="M91.0985 176.509C96.932 176.509 101.661 171.78 101.661 165.947C101.661 160.113 96.932 155.384 91.0985 155.384C85.265 155.384 80.536 160.113 80.536 165.947C80.536 171.78 85.265 176.509 91.0985 176.509ZM91.0985 182.197C100.073 182.197 107.348 174.922 107.348 165.947C107.348 156.972 100.073 149.697 91.0985 149.697C82.1239 149.697 74.8485 156.972 74.8485 165.947C74.8485 174.922 82.1239 182.197 91.0985 182.197Z" fill="black"/>
<path fill-rule="evenodd" clip-rule="evenodd" d="M154.129 176.509C159.962 176.509 164.691 171.78 164.691 165.947C164.691 160.113 159.962 155.384 154.129 155.384C148.295 155.384 143.566 160.113 143.566 165.947C143.566 171.78 148.295 176.509 154.129 176.509ZM154.129 182.197C163.103 182.197 170.379 174.922 170.379 165.947C170.379 156.972 163.103 149.697 154.129 149.697C145.154 149.697 137.879 156.972 137.879 165.947C137.879 174.922 145.154 182.197 154.129 182.197Z" fill="black"/>
<path fill-rule="evenodd" clip-rule="evenodd" d="M11.1054 35.052C8.03874 35.052 5.55271 37.5173 5.55271 40.5584C5.55271 43.5996 8.03874 46.0649 11.1054 46.0649H26.7348C28.3992 46.0649 29.8428 47.2057 30.2143 48.8146L52.4594 145.143C52.9961 147.467 55.0812 149.115 57.4854 149.115H193.551C196.18 149.115 198.311 147.002 198.311 144.395C198.311 141.788 196.18 139.675 193.551 139.675H69.1263C64.0478 139.675 59.6677 136.138 58.6394 131.206L39.4413 39.1298C38.9461 36.7551 36.8372 35.052 34.392 35.052H11.1054ZM0 40.5584C0 34.4761 4.97206 29.5455 11.1054 29.5455H34.392C39.4705 29.5455 43.8506 33.0829 44.879 38.0148L64.077 130.091C64.5722 132.465 66.6811 134.169 69.1263 134.169H193.551C199.247 134.169 203.864 138.747 203.864 144.395C203.864 150.043 199.247 154.621 193.551 154.621H57.4854C52.4921 154.621 48.1615 151.199 47.0469 146.372L25.1545 51.5714H11.1054C4.97206 51.5714 0 46.6407 0 40.5584Z" fill="black"/>
<path fill-rule="evenodd" clip-rule="evenodd" d="M45.303 54.9607C45.303 53.4343 46.5362 52.197 48.0574 52.197H197.371C207.724 52.197 215.106 62.2727 212.018 72.1881L194.312 129.043C192.31 135.472 186.377 139.848 179.665 139.848H74.0267C72.5056 139.848 71.2724 138.611 71.2724 137.085C71.2724 135.558 72.5056 134.321 74.0267 134.321H179.665C183.967 134.321 187.77 131.515 189.054 127.394L206.76 70.5394C208.74 64.1833 204.007 57.7245 197.371 57.7245H48.0574C46.5362 57.7245 45.303 56.4871 45.303 54.9607Z" fill="black"/>
<path fill-rule="evenodd" clip-rule="evenodd" d="M49.7348 20.2623V51.6316H82.2348V20.2623H49.7348ZM47.4134 14.7727C45.704 14.7727 44.3182 16.1772 44.3182 17.9096V53.9843C44.3182 55.7167 45.704 57.1212 47.4134 57.1212H84.5563C86.2657 57.1212 87.6515 55.7167 87.6515 53.9843V17.9096C87.6515 16.1772 86.2657 14.7727 84.5563 14.7727H47.4134Z" fill="black"/>
<path d="M135.302 51.5678V5.55345H78.41V16.6604H72.8788V3.1734C72.8788 1.42078 74.2939 0 76.0395 0H137.673C139.418 0 140.833 1.42078 140.833 3.1734V53.9478C140.833 55.7004 139.418 57.1212 137.673 57.1212H85.1264V51.5678H135.302Z" fill="black"/>
<path d="M152.528 51.5678V34.1141H137.879V28.5606H155.114C157.017 28.5606 158.561 29.9814 158.561 31.734V53.9478C158.561 55.7004 157.017 57.1212 155.114 57.1212H137.879V51.5678H152.528Z" fill="black"/>
<path d="M187.475 39.3438C187.475 24.5198 175.573 12.5025 160.892 12.5025C151.062 12.5025 142.479 17.889 137.879 25.8979V16.6922C143.716 10.6474 151.87 6.89392 160.892 6.89392C178.641 6.89392 193.03 21.4222 193.03 39.3438C193.03 44.6843 191.753 49.7235 189.489 54.1666H183.058C185.849 49.9193 187.475 44.8233 187.475 39.3438Z" fill="black"/>
<path fill-rule="evenodd" clip-rule="evenodd" d="M107.841 91.4333C110.354 91.4333 112.391 89.2992 112.391 86.6666C112.391 84.0341 110.354 81.9 107.841 81.9C105.328 81.9 103.291 84.0341 103.291 86.6666C103.291 89.2992 105.328 91.4333 107.841 91.4333ZM107.841 97.5C113.552 97.5 118.182 92.6497 118.182 86.6666C118.182 80.6836 113.552 75.8333 107.841 75.8333C102.13 75.8333 97.5 80.6836 97.5 86.6666C97.5 92.6497 102.13 97.5 107.841 97.5Z" fill="black"/>
<path fill-rule="evenodd" clip-rule="evenodd" d="M137.879 108.452C140.272 108.452 142.212 106.414 142.212 103.902C142.212 101.389 140.272 99.3515 137.879 99.3515C135.486 99.3515 133.545 101.389 133.545 103.902C133.545 106.414 135.486 108.452 137.879 108.452ZM137.879 114.242C143.318 114.242 147.727 109.613 147.727 103.902C147.727 98.1904 143.318 93.5606 137.879 93.5606C132.44 93.5606 128.03 98.1904 128.03 103.902C128.03 109.613 132.44 114.242 137.879 114.242Z" fill="black"/>
<path fill-rule="evenodd" clip-rule="evenodd" d="M139.831 75.4811C141.01 76.4491 141.172 78.1795 140.194 79.3461L109.3 116.205C108.322 117.371 106.574 117.532 105.396 116.564C104.218 115.596 104.055 113.866 105.033 112.699L135.927 75.8406C136.905 74.674 138.653 74.5131 139.831 75.4811Z" fill="black"/>
</svg>
