<svg width="1440" height="1573" viewBox="0 0 1440 1573" fill="none" xmlns="http://www.w3.org/2000/svg">
<g opacity="0.5">
<path d="M1056.44 1398.52C1056.44 1407.12 1063.39 1414.1 1071.97 1414.1L1177.64 1414.1C1186.21 1414.1 1193.16 1407.12 1193.16 1398.52L1193.16 1292.43C1193.16 1283.82 1186.21 1276.84 1177.64 1276.84L1071.97 1276.84C1063.39 1276.84 1056.44 1283.82 1056.44 1292.43L1056.44 1398.52Z" fill="white"/>
<path fill-rule="evenodd" clip-rule="evenodd" d="M1177.64 1410.58L1071.97 1410.58C1065.33 1410.58 1059.95 1405.18 1059.95 1398.52L1059.95 1292.43C1059.95 1285.76 1065.33 1280.36 1071.97 1280.36L1177.64 1280.36C1184.28 1280.36 1189.66 1285.76 1189.66 1292.43L1189.66 1398.52C1189.66 1405.18 1184.28 1410.58 1177.64 1410.58ZM1071.97 1414.1C1063.39 1414.1 1056.44 1407.12 1056.44 1398.52L1056.44 1292.43C1056.44 1283.82 1063.39 1276.84 1071.97 1276.84L1177.64 1276.84C1186.21 1276.84 1193.16 1283.82 1193.16 1292.43L1193.16 1398.52C1193.16 1407.12 1186.21 1414.1 1177.64 1414.1L1071.97 1414.1Z" fill="#EFF0F2"/>
<path d="M1042.3 1389.08L1056.44 1389.08L1056.44 1382.32L1042.3 1382.32L1042.3 1389.08Z" fill="#EFF0F2"/>
<path fill-rule="evenodd" clip-rule="evenodd" d="M961.64 1386.38L1049.7 1386.38L1049.7 1383.86L962.676 1383.86L931.66 1352.57L721.029 1352.57L721.029 1355.09L930.624 1355.09L961.64 1386.38Z" fill="#EFF0F2"/>
<path d="M1042.3 1368.8L1056.44 1368.8L1056.44 1361.36L1042.3 1361.36L1042.3 1368.8Z" fill="#EFF0F2"/>
<path fill-rule="evenodd" clip-rule="evenodd" d="M978.795 1366.1L1048.36 1366.1L1048.36 1363.57L979.832 1363.57L912.788 1295.77L689.375 1295.77L689.375 1298.3L911.752 1298.3L978.795 1366.1Z" fill="#EFF0F2"/>
<path d="M1042.3 1347.84L1056.44 1347.84L1056.44 1341.08L1042.3 1341.08L1042.3 1347.84Z" fill="#EFF0F2"/>
<path fill-rule="evenodd" clip-rule="evenodd" d="M673.21 1345.13L1049.03 1345.13L1049.03 1343.11L673.21 1343.11L673.21 1345.13Z" fill="#EFF0F2"/>
<path d="M1042.3 1327.55L1056.44 1327.55L1056.44 1320.79L1042.3 1320.79L1042.3 1327.55Z" fill="#EFF0F2"/>
<path fill-rule="evenodd" clip-rule="evenodd" d="M992.465 1325.53L1049.03 1325.53L1049.03 1323.02L993.501 1323.02L900.921 1230.19L592.387 1230.19L592.387 1232.7L899.885 1232.7L992.465 1325.53Z" fill="#EFF0F2"/>
<path d="M1042.3 1307.27L1056.44 1307.27L1056.44 1299.83L1042.3 1299.83L1042.3 1307.27Z" fill="#EFF0F2"/>
<path fill-rule="evenodd" clip-rule="evenodd" d="M1012.66 1305.24L1049.03 1305.24L1049.03 1303.21L1012.66 1303.21L1012.66 1305.24Z" fill="#EFF0F2"/>
<path d="M1193.16 1389.08L1207.31 1389.08L1207.31 1382.32L1193.16 1382.32L1193.16 1389.08Z" fill="#EFF0F2"/>
<path fill-rule="evenodd" clip-rule="evenodd" d="M1411.74 1429.65L1451.12 1429.65L1451.12 1427.16L1412.78 1427.16L1369.66 1384.35L1201.92 1384.35L1201.92 1386.84L1368.62 1386.84L1411.74 1429.65Z" fill="#EFF0F2"/>
<path d="M1193.16 1368.8L1207.31 1368.8L1207.31 1361.36L1193.16 1361.36L1193.16 1368.8Z" fill="#EFF0F2"/>
<path fill-rule="evenodd" clip-rule="evenodd" d="M1276.01 1363.39L1201.25 1363.39L1201.25 1366.1L1276.01 1366.1L1276.01 1363.39Z" fill="#EFF0F2"/>
<path d="M1193.16 1349.19L1207.31 1349.19L1207.31 1342.43L1193.16 1342.43L1193.16 1349.19Z" fill="#EFF0F2"/>
<path d="M1193.16 1326.88L1207.31 1326.88L1207.31 1319.44L1193.16 1319.44L1193.16 1326.88Z" fill="#EFF0F2"/>
<path fill-rule="evenodd" clip-rule="evenodd" d="M1298.63 1322.33L1200.57 1322.33L1200.57 1324.85L1299.66 1324.85L1371.7 1252.36L1371.7 1189.92L1399.74 1161.71L1439 1161.71L1439 1159.19L1398.7 1159.19L1369.2 1188.88L1369.2 1251.32L1298.63 1322.33Z" fill="#EFF0F2"/>
<path fill-rule="evenodd" clip-rule="evenodd" d="M1337.3 1345.13L1200.57 1345.13L1200.57 1347.84L1337.3 1347.84L1337.3 1345.13Z" fill="#EFF0F2"/>
<path d="M1193.16 1307.95L1207.31 1307.95L1207.31 1301.18L1193.16 1301.18L1193.16 1307.95Z" fill="#EFF0F2"/>
<path fill-rule="evenodd" clip-rule="evenodd" d="M1277.5 1303.41L1200.57 1303.41L1200.57 1305.92L1278.54 1305.92L1336.23 1247.96L1336.23 995.724L1374.34 957.441L1372.57 955.666L1333.73 994.684L1333.73 1246.92L1277.5 1303.41Z" fill="#EFF0F2"/>
<path d="M1168.24 1428.3L1168.24 1414.1L1160.84 1414.1L1160.84 1428.3L1168.24 1428.3Z" fill="#EFF0F2"/>
<path fill-rule="evenodd" clip-rule="evenodd" d="M1226.36 1543.25L1259.84 1543.25L1259.84 1540.73L1227.4 1540.73L1166.7 1479.57L1166.7 1422.22L1164.2 1422.22L1164.2 1480.61L1226.36 1543.25Z" fill="#EFF0F2"/>
<path d="M1148.04 1428.3L1148.04 1414.1L1141.3 1414.1L1141.3 1428.3L1148.04 1428.3Z" fill="#EFF0F2"/>
<path fill-rule="evenodd" clip-rule="evenodd" d="M1146.02 1546.63L1146.02 1422.22L1143.32 1422.22L1143.32 1546.63L1146.02 1546.63Z" fill="#EFF0F2"/>
<path d="M1127.83 1428.3L1127.83 1414.1L1121.1 1414.1L1121.1 1428.3L1127.83 1428.3Z" fill="#EFF0F2"/>
<path fill-rule="evenodd" clip-rule="evenodd" d="M1079.08 1562.86L1125.81 1515.85L1125.81 1421.54L1123.32 1421.54L1123.32 1514.81L1077.32 1561.08L1079.08 1562.86Z" fill="#EFF0F2"/>
<path fill-rule="evenodd" clip-rule="evenodd" d="M962.148 1568.27L1039.28 1568.27L1105.61 1501.67L1105.61 1422.22L1103.1 1422.22L1103.1 1500.63L1038.24 1565.75L962.148 1565.75L962.148 1568.27Z" fill="#EFF0F2"/>
<path d="M1108.3 1428.3L1108.3 1414.1L1100.89 1414.1L1100.89 1428.3L1108.3 1428.3Z" fill="#EFF0F2"/>
<path d="M1088.1 1428.3L1088.1 1414.1L1081.36 1414.1L1081.36 1428.3L1088.1 1428.3Z" fill="#EFF0F2"/>
<path fill-rule="evenodd" clip-rule="evenodd" d="M743.256 1462.79L1073.5 1462.79L1086.75 1449.47L1086.75 1421.54L1084.25 1421.54L1084.25 1448.43L1072.46 1460.27L743.256 1460.27L743.256 1462.79Z" fill="#EFF0F2"/>
<path d="M1168.24 1276.84L1168.24 1262.64L1160.84 1262.64L1160.84 1276.84L1168.24 1276.84Z" fill="#EFF0F2"/>
<path fill-rule="evenodd" clip-rule="evenodd" d="M1164.88 1269.4L1167.38 1269.4L1167.38 1137.59L1205.93 1098.82L1352.79 1098.82L1352.79 1096.31L1204.89 1096.31L1164.88 1136.54L1164.88 1269.4Z" fill="#EFF0F2"/>
<path d="M1148.04 1276.84L1148.04 1262.64L1141.3 1262.64L1141.3 1276.84L1148.04 1276.84Z" fill="#EFF0F2"/>
<path fill-rule="evenodd" clip-rule="evenodd" d="M1144 1267.38L1146.5 1267.38L1146.5 1029.45L1276.28 899.282L1407.3 899.282L1467.29 839.115L1465.51 837.338L1406.26 896.77L1275.25 896.77L1144 1028.41L1144 1267.38Z" fill="#EFF0F2"/>
<path d="M1127.83 1276.84L1127.83 1262.64L1121.1 1262.64L1121.1 1276.84L1127.83 1276.84Z" fill="#EFF0F2"/>
<path fill-rule="evenodd" clip-rule="evenodd" d="M1123.79 1193.67L1123.79 1268.05L1126.49 1268.05L1126.49 1193.67L1123.79 1193.67Z" fill="#EFF0F2"/>
<path d="M1108.3 1276.84L1108.3 1262.64L1100.89 1262.64L1100.89 1276.84L1108.3 1276.84Z" fill="#EFF0F2"/>
<path fill-rule="evenodd" clip-rule="evenodd" d="M1103.78 1107.55L1103.78 1269.4L1106.28 1269.4L1106.28 1106.51L984.254 984.065L698.13 984.065L698.13 986.575L983.218 986.575L1103.78 1107.55Z" fill="#EFF0F2"/>
<path d="M1088.1 1276.84L1088.1 1262.64L1081.36 1262.64L1081.36 1276.84L1088.1 1276.84Z" fill="#EFF0F2"/>
<path fill-rule="evenodd" clip-rule="evenodd" d="M1082.9 1270.76L1085.4 1270.76L1085.4 957.629L857.761 729.153L654.352 729.153L654.352 731.664L856.725 731.664L911.013 786.151L884.029 786.151L852.007 754.011L723.9 754.011L723.9 756.522L850.971 756.522L882.993 788.662L913.514 788.662L1082.9 958.669L1082.9 1270.76Z" fill="#EFF0F2"/>
<path d="M1018.72 1304.23C1018.72 1301.05 1016.16 1298.48 1013 1298.48C1009.84 1298.48 1007.27 1301.05 1007.27 1304.23C1007.27 1307.4 1009.84 1309.97 1013 1309.97C1016.16 1309.97 1018.72 1307.4 1018.72 1304.23Z" fill="#EFF0F2"/>
<path d="M1358.18 1097.66C1358.18 1094.67 1355.76 1092.25 1352.79 1092.25C1349.81 1092.25 1347.4 1094.67 1347.4 1097.66C1347.4 1100.65 1349.81 1103.07 1352.79 1103.07C1355.76 1103.07 1358.18 1100.65 1358.18 1097.66Z" fill="#EFF0F2"/>
<path d="M732.479 755.523C732.479 752.536 729.916 750.114 726.754 750.114C723.592 750.114 721.029 752.536 721.029 755.523C721.029 758.511 723.592 760.932 726.754 760.932C729.916 760.932 732.479 758.511 732.479 755.523Z" fill="#EFF0F2"/>
<path d="M660.412 730.167C660.412 726.993 657.849 724.42 654.687 724.42C651.526 724.42 648.962 726.993 648.962 730.167C648.962 733.341 651.526 735.914 654.687 735.914C657.849 735.914 660.412 733.341 660.412 730.167Z" fill="#EFF0F2"/>
<path d="M703.518 985.079C703.518 981.905 701.106 979.332 698.13 979.332C695.154 979.332 692.742 981.905 692.742 985.079C692.742 988.253 695.154 990.826 698.13 990.826C701.106 990.826 703.518 988.253 703.518 985.079Z" fill="#EFF0F2"/>
<path d="M1131.2 1193C1131.2 1190.01 1128.79 1187.59 1125.81 1187.59C1122.84 1187.59 1120.42 1190.01 1120.42 1193C1120.42 1195.99 1122.84 1198.41 1125.81 1198.41C1128.79 1198.41 1131.2 1195.99 1131.2 1193Z" fill="#EFF0F2"/>
<path d="M1379.73 956.342C1379.73 953.355 1377.17 950.933 1374 950.933C1370.84 950.933 1368.28 953.355 1368.28 956.342C1368.28 959.33 1370.84 961.751 1374 961.751C1377.17 961.751 1379.73 959.33 1379.73 956.342Z" fill="#EFF0F2"/>
<path d="M1444.39 1160.54C1444.39 1157.56 1441.97 1155.13 1439 1155.13C1436.02 1155.13 1433.61 1157.56 1433.61 1160.54C1433.61 1163.53 1436.02 1165.95 1439 1165.95C1441.97 1165.95 1444.39 1163.53 1444.39 1160.54Z" fill="#EFF0F2"/>
<path d="M1342.68 1345.47C1342.68 1342.3 1340.27 1339.72 1337.3 1339.72C1334.32 1339.72 1331.91 1342.3 1331.91 1345.47C1331.91 1348.65 1334.32 1351.22 1337.3 1351.22C1340.27 1351.22 1342.68 1348.65 1342.68 1345.47Z" fill="#EFF0F2"/>
<path d="M1280.05 1365.42C1280.05 1362.43 1277.48 1360.01 1274.32 1360.01C1271.16 1360.01 1268.6 1362.43 1268.6 1365.42C1268.6 1368.41 1271.16 1370.83 1274.32 1370.83C1277.48 1370.83 1280.05 1368.41 1280.05 1365.42Z" fill="#EFF0F2"/>
<path d="M1264.56 1541.22C1264.56 1538.23 1262.15 1535.81 1259.17 1535.81C1256.19 1535.81 1253.78 1538.23 1253.78 1541.22C1253.78 1544.21 1256.19 1546.63 1259.17 1546.63C1262.15 1546.63 1264.56 1544.21 1264.56 1541.22Z" fill="#EFF0F2"/>
<path d="M1150.73 1546.97C1150.73 1543.79 1148.32 1541.22 1145.35 1541.22C1142.37 1541.22 1139.96 1543.79 1139.96 1546.97C1139.96 1550.14 1142.37 1552.72 1145.35 1552.72C1148.32 1552.72 1150.73 1550.14 1150.73 1546.97Z" fill="#EFF0F2"/>
<path d="M1083.38 1561.84C1083.38 1558.67 1080.97 1556.1 1077.99 1556.1C1075.02 1556.1 1072.61 1558.67 1072.61 1561.84C1072.61 1565.02 1075.02 1567.59 1077.99 1567.59C1080.97 1567.59 1083.38 1565.02 1083.38 1561.84Z" fill="#EFF0F2"/>
<path d="M968.21 1567.59C968.21 1564.6 965.647 1562.18 962.485 1562.18C959.323 1562.18 956.76 1564.6 956.76 1567.59C956.76 1570.58 959.323 1573 962.485 1573C965.647 1573 968.21 1570.58 968.21 1567.59Z" fill="#EFF0F2"/>
<path d="M748.643 1461.43C748.643 1458.45 746.231 1456.02 743.255 1456.02C740.28 1456.02 737.867 1458.45 737.867 1461.43C737.867 1464.42 740.28 1466.84 743.255 1466.84C746.231 1466.84 748.643 1464.42 748.643 1461.43Z" fill="#EFF0F2"/>
<path d="M597.776 1231.2C597.776 1228.03 595.364 1225.45 592.388 1225.45C589.412 1225.45 587 1228.03 587 1231.2C587 1234.38 589.412 1236.95 592.388 1236.95C595.364 1236.95 597.776 1234.38 597.776 1231.2Z" fill="#EFF0F2"/>
<path d="M694.762 1297.13C694.762 1294.14 692.199 1291.72 689.037 1291.72C685.875 1291.72 683.312 1294.14 683.312 1297.13C683.312 1300.11 685.875 1302.54 689.037 1302.54C692.199 1302.54 694.762 1300.11 694.762 1297.13Z" fill="#EFF0F2"/>
<path d="M678.598 1345.47C678.598 1342.3 676.185 1339.72 673.21 1339.72C670.234 1339.72 667.821 1342.3 667.821 1345.47C667.821 1348.65 670.234 1351.22 673.21 1351.22C676.185 1351.22 678.598 1348.65 678.598 1345.47Z" fill="#EFF0F2"/>
<path d="M726.418 1353.92C726.418 1350.94 724.006 1348.52 721.03 1348.52C718.054 1348.52 715.642 1350.94 715.642 1353.92C715.642 1356.91 718.054 1359.33 721.03 1359.33C724.006 1359.33 726.418 1356.91 726.418 1353.92Z" fill="#EFF0F2"/>
</g>
<g opacity="0.5">
<path d="M266.818 720.552C266.818 710.115 258.357 701.654 247.921 701.654L119.296 701.654C108.859 701.654 100.398 710.115 100.398 720.552L100.398 849.176C100.398 859.613 108.859 868.074 119.296 868.074L247.921 868.074C258.357 868.074 266.818 859.613 266.818 849.176L266.818 720.552Z" fill="white"/>
<path fill-rule="evenodd" clip-rule="evenodd" d="M119.296 705.921L247.921 705.921C256.001 705.921 262.551 712.472 262.551 720.552L262.551 849.176C262.551 857.257 256.001 863.807 247.921 863.807L119.296 863.807C111.216 863.807 104.666 857.257 104.666 849.176L104.666 720.552C104.666 712.472 111.216 705.921 119.296 705.921ZM247.921 701.654C258.357 701.654 266.818 710.115 266.818 720.552L266.818 849.176C266.818 859.613 258.357 868.074 247.921 868.074L119.296 868.074C108.859 868.074 100.398 859.613 100.398 849.176L100.398 720.552C100.398 710.115 108.859 701.654 119.296 701.654L247.921 701.654Z" fill="#EFF0F2"/>
<path d="M284.034 731.987L266.818 731.987L266.818 740.185L284.034 740.185L284.034 731.987Z" fill="#EFF0F2"/>
<path fill-rule="evenodd" clip-rule="evenodd" d="M382.208 735.266L275.016 735.266V738.324L380.947 738.324L418.7 776.256L675.079 776.256L675.079 773.197L419.961 773.197L382.208 735.266Z" fill="#EFF0F2"/>
<path d="M284.034 756.581L266.818 756.581L266.818 765.599L284.034 765.599L284.034 756.581Z" fill="#EFF0F2"/>
<path fill-rule="evenodd" clip-rule="evenodd" d="M361.328 759.86L276.656 759.86V762.927L360.067 762.927L441.672 845.119L713.61 845.119V842.053L442.933 842.053L361.328 759.86Z" fill="#EFF0F2"/>
<path d="M284.034 781.995L266.818 781.995L266.818 790.193L284.034 790.193L284.034 781.995Z" fill="#EFF0F2"/>
<path fill-rule="evenodd" clip-rule="evenodd" d="M733.287 785.273L275.837 785.273V787.733L733.287 787.733V785.273Z" fill="#EFF0F2"/>
<path d="M284.034 806.589L266.818 806.589L266.818 814.787L284.034 814.787L284.034 806.589Z" fill="#EFF0F2"/>
<path fill-rule="evenodd" clip-rule="evenodd" d="M344.688 809.048L275.836 809.048V812.09L343.427 812.09L456.115 924.64L831.661 924.64V921.598L457.376 921.598L344.688 809.048Z" fill="#EFF0F2"/>
<path d="M284.034 831.183L266.818 831.183L266.818 840.2L284.034 840.2L284.034 831.183Z" fill="#EFF0F2"/>
<path fill-rule="evenodd" clip-rule="evenodd" d="M320.105 833.643L275.836 833.643V836.102L320.105 836.102V833.643Z" fill="#EFF0F2"/>
<path d="M100.398 731.987L83.1824 731.987L83.1824 740.185L100.398 740.185L100.398 731.987Z" fill="#EFF0F2"/>
<path fill-rule="evenodd" clip-rule="evenodd" d="M-165.654 682.799L-213.586 682.799V685.817L-166.918 685.817L-114.431 737.725L89.7408 737.725L89.7408 734.708L-113.167 734.708L-165.654 682.799Z" fill="#EFF0F2"/>
<path d="M100.398 756.581L83.1824 756.581L83.1824 765.599L100.398 765.599L100.398 756.581Z" fill="#EFF0F2"/>
<path fill-rule="evenodd" clip-rule="evenodd" d="M-0.43737 763.139L90.5607 763.139L90.5607 759.86L-0.43737 759.86L-0.43737 763.139Z" fill="#EFF0F2"/>
<path d="M100.398 780.355L83.1824 780.355L83.1824 788.553L100.398 788.553L100.398 780.355Z" fill="#EFF0F2"/>
<path d="M100.398 807.408L83.1824 807.408L83.1824 816.426L100.398 816.426L100.398 807.408Z" fill="#EFF0F2"/>
<path fill-rule="evenodd" clip-rule="evenodd" d="M-27.9708 812.92L91.3804 812.92L91.3804 809.867L-29.2321 809.867L-116.913 897.756L-116.913 973.457L-151.041 1007.67L-198.83 1007.67V1010.72L-149.78 1010.72L-113.868 974.721L-113.868 899.021L-27.9708 812.92Z" fill="#EFF0F2"/>
<path fill-rule="evenodd" clip-rule="evenodd" d="M-75.0394 785.274L91.3804 785.274L91.3804 781.995L-75.0394 781.995L-75.0394 785.274Z" fill="#EFF0F2"/>
<path d="M100.398 830.362L83.1824 830.362L83.1824 838.56L100.398 838.56L100.398 830.362Z" fill="#EFF0F2"/>
<path fill-rule="evenodd" clip-rule="evenodd" d="M-2.25927 835.865L91.3804 835.865L91.3804 832.822L-3.51887 832.822L-73.7432 903.093L-73.7432 1208.91L-120.129 1255.33L-117.978 1257.48L-70.7023 1210.17L-70.7023 904.354L-2.25927 835.865Z" fill="#EFF0F2"/>
<path d="M130.731 684.439L130.731 701.655L139.749 701.655L139.749 684.439L130.731 684.439Z" fill="#EFF0F2"/>
<path fill-rule="evenodd" clip-rule="evenodd" d="M59.9883 545.071L19.2377 545.071L19.2377 548.122L58.7292 548.122L132.61 622.279L132.61 691.816H135.65L135.65 621.015L59.9883 545.071Z" fill="#EFF0F2"/>
<path d="M155.325 684.439L155.325 701.655L163.523 701.655L163.523 684.439L155.325 684.439Z" fill="#EFF0F2"/>
<path fill-rule="evenodd" clip-rule="evenodd" d="M157.785 540.973L157.785 691.816H161.065L161.065 540.973H157.785Z" fill="#EFF0F2"/>
<path d="M179.919 684.439L179.919 701.655L188.117 701.655L188.117 684.439L179.919 684.439Z" fill="#EFF0F2"/>
<path fill-rule="evenodd" clip-rule="evenodd" d="M239.258 521.298L182.378 578.295L182.378 692.636H185.412L185.412 579.555L241.404 523.448L239.258 521.298Z" fill="#EFF0F2"/>
<path fill-rule="evenodd" clip-rule="evenodd" d="M381.591 514.739L287.709 514.739L206.973 595.485L206.973 691.817H210.02L210.02 596.747L288.971 517.787L381.591 517.787V514.739Z" fill="#EFF0F2"/>
<path d="M203.694 684.439L203.694 701.655L212.711 701.655L212.711 684.439L203.694 684.439Z" fill="#EFF0F2"/>
<path d="M228.288 684.439L228.288 701.655L236.486 701.655L236.486 684.439L228.288 684.439Z" fill="#EFF0F2"/>
<path fill-rule="evenodd" clip-rule="evenodd" d="M648.025 642.628L246.056 642.628L229.926 658.768L229.926 692.636H232.973L232.973 660.031L247.318 645.677L648.025 645.677V642.628Z" fill="#EFF0F2"/>
<path d="M130.731 868.074L130.731 885.29L139.749 885.29L139.749 868.074L130.731 868.074Z" fill="#EFF0F2"/>
<path fill-rule="evenodd" clip-rule="evenodd" d="M134.83 877.092H131.785L131.785 1036.91L84.8609 1083.91L-93.8944 1083.91V1086.96L86.1224 1086.96L134.83 1038.18L134.83 877.092Z" fill="#EFF0F2"/>
<path d="M155.325 868.074L155.325 885.29L163.523 885.29L163.523 868.074L155.325 868.074Z" fill="#EFF0F2"/>
<path fill-rule="evenodd" clip-rule="evenodd" d="M160.244 879.551H157.195L157.195 1168.02L-0.773666 1325.84L-160.245 1325.84L-233.261 1398.79L-231.105 1400.95L-158.982 1328.89L0.489319 1328.89L160.244 1169.28L160.244 879.551Z" fill="#EFF0F2"/>
<path d="M179.919 868.074L179.919 885.29L188.117 885.29L188.117 868.074L179.919 868.074Z" fill="#EFF0F2"/>
<path fill-rule="evenodd" clip-rule="evenodd" d="M184.838 968.909L184.838 878.731H181.558L181.558 968.909H184.838Z" fill="#EFF0F2"/>
<path d="M203.694 868.074L203.694 885.29L212.711 885.29L212.711 868.074L203.694 868.074Z" fill="#EFF0F2"/>
<path fill-rule="evenodd" clip-rule="evenodd" d="M209.196 1073.32L209.196 877.091H206.152L206.152 1074.58L354.683 1223.05L702.952 1223.05L702.952 1220L355.944 1220L209.196 1073.32Z" fill="#EFF0F2"/>
<path d="M228.288 868.074L228.288 885.29L236.486 885.29L236.486 868.074L228.288 868.074Z" fill="#EFF0F2"/>
<path fill-rule="evenodd" clip-rule="evenodd" d="M234.612 875.452H231.566L231.566 1255.1L508.65 1532.11L756.24 1532.11V1529.07L509.912 1529.07L443.833 1463.01L476.677 1463.01L515.654 1501.97L671.586 1501.97V1498.93L516.915 1498.93L477.938 1459.96L440.788 1459.96L234.612 1253.84L234.612 875.452Z" fill="#EFF0F2"/>
<path d="M312.727 834.872C312.727 838.72 315.847 841.84 319.695 841.84C323.544 841.84 326.664 838.72 326.664 834.872C326.664 831.023 323.544 827.903 319.695 827.903C315.847 827.903 312.727 831.023 312.727 834.872Z" fill="#EFF0F2"/>
<path d="M661.143 1500.14C661.143 1503.76 664.262 1506.7 668.111 1506.7C671.959 1506.7 675.079 1503.76 675.079 1500.14C675.079 1496.52 671.959 1493.58 668.111 1493.58C664.262 1493.58 661.143 1496.52 661.143 1500.14Z" fill="#EFF0F2"/>
<path d="M748.862 1530.88C748.862 1534.73 751.981 1537.85 755.83 1537.85C759.678 1537.85 762.798 1534.73 762.798 1530.88C762.798 1527.04 759.678 1523.92 755.83 1523.92C751.981 1523.92 748.862 1527.04 748.862 1530.88Z" fill="#EFF0F2"/>
<path d="M696.394 1221.82C696.394 1225.67 699.33 1228.79 702.952 1228.79C706.574 1228.79 709.511 1225.67 709.511 1221.82C709.511 1217.97 706.574 1214.85 702.952 1214.85C699.33 1214.85 696.394 1217.97 696.394 1221.82Z" fill="#EFF0F2"/>
<path d="M175.82 969.729C175.82 973.352 178.756 976.288 182.378 976.288C186 976.288 188.937 973.352 188.937 969.729C188.937 966.107 186 963.171 182.378 963.171C178.756 963.171 175.82 966.107 175.82 969.729Z" fill="#EFF0F2"/>
<path d="M-5.35601 760.679C-5.35601 764.301 -2.23619 767.238 1.61231 767.238C5.46081 767.238 8.58063 764.301 8.58063 760.679C8.58063 757.057 5.46081 754.121 1.61231 754.121C-2.23619 754.121 -5.35601 757.057 -5.35601 760.679Z" fill="#EFF0F2"/>
<path d="M13.4994 547.531C13.4994 551.153 16.4357 554.089 20.0578 554.089C23.6799 554.089 26.6162 551.153 26.6162 547.531C26.6162 543.909 23.6799 540.972 20.0578 540.972C16.4357 540.972 13.4994 543.909 13.4994 547.531Z" fill="#EFF0F2"/>
<path d="M152.046 540.563C152.046 544.411 154.982 547.531 158.604 547.531C162.226 547.531 165.162 544.411 165.162 540.563C165.162 536.714 162.226 533.595 158.604 533.595C154.982 533.595 152.046 536.714 152.046 540.563Z" fill="#EFF0F2"/>
<path d="M234.025 522.527C234.025 526.375 236.961 529.495 240.584 529.495C244.206 529.495 247.142 526.375 247.142 522.527C247.142 518.678 244.206 515.558 240.584 515.558C236.961 515.558 234.025 518.678 234.025 522.527Z" fill="#EFF0F2"/>
<path d="M374.212 515.559C374.212 519.181 377.332 522.117 381.18 522.117C385.029 522.117 388.149 519.181 388.149 515.559C388.149 511.936 385.029 509 381.18 509C377.332 509 374.212 511.936 374.212 515.559Z" fill="#EFF0F2"/>
<path d="M641.468 644.268C641.468 647.89 644.404 650.826 648.026 650.826C651.648 650.826 654.585 647.89 654.585 644.268C654.585 640.646 651.648 637.709 648.026 637.709C644.404 637.709 641.468 640.646 641.468 644.268Z" fill="#EFF0F2"/>
<path d="M825.103 923.41C825.103 927.259 828.039 930.378 831.661 930.378C835.284 930.378 838.22 927.259 838.22 923.41C838.22 919.562 835.284 916.442 831.661 916.442C828.039 916.442 825.103 919.562 825.103 923.41Z" fill="#EFF0F2"/>
<path d="M707.052 843.48C707.052 847.102 710.172 850.038 714.021 850.038C717.869 850.038 720.989 847.102 720.989 843.48C720.989 839.858 717.869 836.921 714.021 836.921C710.172 836.921 707.052 839.858 707.052 843.48Z" fill="#EFF0F2"/>
<path d="M726.727 784.864C726.727 788.713 729.663 791.833 733.285 791.833C736.908 791.833 739.844 788.713 739.844 784.864C739.844 781.016 736.908 777.896 733.285 777.896C729.663 777.896 726.727 781.016 726.727 784.864Z" fill="#EFF0F2"/>
<path d="M668.521 774.616C668.521 778.238 671.457 781.174 675.079 781.174C678.701 781.174 681.638 778.238 681.638 774.616C681.638 770.994 678.701 768.057 675.079 768.057C671.457 768.057 668.521 770.994 668.521 774.616Z" fill="#EFF0F2"/>
</g>
<g opacity="0.5">
<path d="M1231.33 441.471C1240.44 441.471 1247.82 434.086 1247.82 424.977L1247.82 312.716C1247.82 303.606 1240.44 296.222 1231.33 296.222L1119.07 296.222C1109.96 296.222 1102.57 303.606 1102.57 312.716L1102.57 424.977C1102.57 434.086 1109.96 441.471 1119.07 441.471L1231.33 441.471Z" fill="white"/>
<path fill-rule="evenodd" clip-rule="evenodd" d="M1244.1 312.716L1244.1 424.977C1244.1 432.03 1238.38 437.746 1231.33 437.747L1119.07 437.747C1112.01 437.747 1106.3 432.03 1106.3 424.977L1106.3 312.716C1106.3 305.663 1112.01 299.946 1119.07 299.946L1231.33 299.946C1238.38 299.946 1244.1 305.663 1244.1 312.716ZM1247.82 424.977C1247.82 434.086 1240.44 441.471 1231.33 441.471L1119.07 441.471C1109.96 441.471 1102.57 434.086 1102.57 424.977L1102.57 312.716C1102.57 303.606 1109.96 296.222 1119.07 296.222L1231.33 296.222C1240.44 296.222 1247.82 303.606 1247.82 312.716L1247.82 424.977Z" fill="#EFF0F2"/>
<path d="M1221.35 456.496L1221.35 441.47L1214.19 441.47L1214.19 456.496L1221.35 456.496Z" fill="#EFF0F2"/>
<path fill-rule="evenodd" clip-rule="evenodd" d="M1218.48 542.182L1218.48 448.626L1215.81 448.626L1215.81 541.081L1182.71 574.031L1182.71 797.795L1185.38 797.795L1185.38 575.132L1218.48 542.182Z" fill="#EFF0F2"/>
<path d="M1199.88 456.496L1199.88 441.47L1192.01 441.47L1192.01 456.496L1199.88 456.496Z" fill="#EFF0F2"/>
<path fill-rule="evenodd" clip-rule="evenodd" d="M1197.02 523.958L1197.02 450.057L1194.34 450.057L1194.34 522.857L1122.61 594.081L1122.61 831.424L1125.28 831.424L1125.28 595.182L1197.02 523.958Z" fill="#EFF0F2"/>
<path d="M1177.7 456.496L1177.7 441.47L1170.55 441.47L1170.55 456.496L1177.7 456.496Z" fill="#EFF0F2"/>
<path fill-rule="evenodd" clip-rule="evenodd" d="M1174.84 848.595L1174.84 449.34L1172.69 449.34L1172.69 848.595L1174.84 848.595Z" fill="#EFF0F2"/>
<path d="M1156.24 456.496L1156.24 441.47L1149.08 441.47L1149.08 456.496L1156.24 456.496Z" fill="#EFF0F2"/>
<path fill-rule="evenodd" clip-rule="evenodd" d="M1154.09 509.435L1154.09 449.342L1151.44 449.342L1151.44 508.334L1053.2 606.687L1053.2 934.458L1055.86 934.458L1055.86 607.788L1154.09 509.435Z" fill="#EFF0F2"/>
<path d="M1134.77 456.496L1134.77 441.47L1126.9 441.47L1126.9 456.496L1134.77 456.496Z" fill="#EFF0F2"/>
<path fill-rule="evenodd" clip-rule="evenodd" d="M1132.62 487.979L1132.62 449.341L1130.48 449.341L1130.48 487.979L1132.62 487.979Z" fill="#EFF0F2"/>
<path d="M1221.35 296.222L1221.35 281.197L1214.19 281.197L1214.19 296.222L1221.35 296.222Z" fill="#EFF0F2"/>
<path fill-rule="evenodd" clip-rule="evenodd" d="M1264.28 64.0148L1264.28 22.181L1261.64 22.181L1261.64 62.9117L1216.34 108.722L1216.34 286.92L1218.97 286.92L1218.97 109.825L1264.28 64.0148Z" fill="#EFF0F2"/>
<path d="M1199.88 296.222L1199.88 281.197L1192.01 281.197L1192.01 296.222L1199.88 296.222Z" fill="#EFF0F2"/>
<path fill-rule="evenodd" clip-rule="evenodd" d="M1194.16 208.214L1194.16 287.636L1197.02 287.636L1197.02 208.214L1194.16 208.214Z" fill="#EFF0F2"/>
<path d="M1179.13 296.222L1179.13 281.197L1171.98 281.197L1171.98 296.222L1179.13 296.222Z" fill="#EFF0F2"/>
<path d="M1155.52 296.222L1155.52 281.197L1147.65 281.197L1147.65 296.222L1155.52 296.222Z" fill="#EFF0F2"/>
<path fill-rule="evenodd" clip-rule="evenodd" d="M1150.71 184.184L1150.71 288.352L1153.37 288.352L1153.37 183.083L1076.67 106.556L1010.6 106.556L980.738 76.7697L980.738 35.0607L978.074 35.0607L978.074 77.8706L1009.49 109.214L1075.56 109.214L1150.71 184.184Z" fill="#EFF0F2"/>
<path fill-rule="evenodd" clip-rule="evenodd" d="M1174.84 143.103L1174.84 288.352L1177.7 288.352L1177.7 143.103L1174.84 143.103Z" fill="#EFF0F2"/>
<path d="M1135.49 296.222L1135.49 281.197L1128.33 281.197L1128.33 296.222L1135.49 296.222Z" fill="#EFF0F2"/>
<path fill-rule="evenodd" clip-rule="evenodd" d="M1130.68 206.624L1130.68 288.352L1133.34 288.352L1133.34 205.525L1072.01 144.234L805.094 144.234L764.583 103.75L762.705 105.626L803.994 146.888L1070.91 146.888L1130.68 206.624Z" fill="#EFF0F2"/>
<path d="M1262.85 322.696L1247.82 322.696L1247.82 330.566L1262.85 330.566L1262.85 322.696Z" fill="#EFF0F2"/>
<path fill-rule="evenodd" clip-rule="evenodd" d="M1384.49 260.953L1384.49 225.386L1381.82 225.386L1381.82 259.854L1317.1 324.336L1256.41 324.336L1256.41 326.989L1318.2 326.989L1384.49 260.953Z" fill="#EFF0F2"/>
<path d="M1262.85 344.161L1247.82 344.161L1247.82 351.316L1262.85 351.316L1262.85 344.161Z" fill="#EFF0F2"/>
<path fill-rule="evenodd" clip-rule="evenodd" d="M1388.06 346.308L1256.41 346.308L1256.41 349.17L1388.06 349.17L1388.06 346.308Z" fill="#EFF0F2"/>
<path d="M1262.85 365.627L1247.82 365.627L1247.82 372.782L1262.85 372.782L1262.85 365.627Z" fill="#EFF0F2"/>
<path fill-rule="evenodd" clip-rule="evenodd" d="M1405.23 417.417L1355.49 367.773L1255.69 367.773L1255.69 370.421L1354.39 370.421L1403.36 419.29L1405.23 417.417Z" fill="#EFF0F2"/>
<path fill-rule="evenodd" clip-rule="evenodd" d="M1410.96 541.643L1410.96 459.704L1340.48 389.239L1256.41 389.239L1256.41 391.898L1339.38 391.898L1408.3 460.805L1408.3 541.643L1410.96 541.643Z" fill="#EFF0F2"/>
<path d="M1262.85 386.376L1247.82 386.376L1247.82 394.247L1262.85 394.247L1262.85 386.376Z" fill="#EFF0F2"/>
<path d="M1262.85 407.842L1247.82 407.842L1247.82 414.997L1262.85 414.997L1262.85 407.842Z" fill="#EFF0F2"/>
<path fill-rule="evenodd" clip-rule="evenodd" d="M1299.34 774.183L1299.34 423.35L1285.25 409.272L1255.69 409.272L1255.69 411.932L1284.15 411.932L1296.68 424.452L1296.68 774.183L1299.34 774.183Z" fill="#EFF0F2"/>
<path d="M1102.57 322.696L1087.55 322.696L1087.55 330.566L1102.57 330.566L1102.57 322.696Z" fill="#EFF0F2"/>
<path fill-rule="evenodd" clip-rule="evenodd" d="M1094.7 326.274L1094.7 323.616L955.214 323.616L914.194 282.661L914.194 126.646L911.532 126.646L911.532 283.762L954.111 326.274L1094.7 326.274Z" fill="#EFF0F2"/>
<path d="M1102.57 344.161L1087.55 344.161L1087.55 351.316L1102.57 351.316L1102.57 344.161Z" fill="#EFF0F2"/>
<path fill-rule="evenodd" clip-rule="evenodd" d="M1092.56 348.454L1092.56 345.793L840.786 345.793L703.041 207.921L703.041 68.7367L639.372 5.00898L637.491 6.89075L700.382 69.839L700.382 209.023L839.685 348.454L1092.56 348.454Z" fill="#EFF0F2"/>
<path d="M1102.57 365.627L1087.55 365.627L1087.55 372.782L1102.57 372.782L1102.57 365.627Z" fill="#EFF0F2"/>
<path fill-rule="evenodd" clip-rule="evenodd" d="M1014.56 369.919L1093.27 369.919L1093.27 367.057L1014.56 367.057L1014.56 369.919Z" fill="#EFF0F2"/>
<path d="M1102.57 386.376L1087.55 386.376L1087.55 394.247L1102.57 394.247L1102.57 386.376Z" fill="#EFF0F2"/>
<path fill-rule="evenodd" clip-rule="evenodd" d="M923.433 391.179L1094.7 391.179L1094.7 388.522L922.333 388.522L792.757 518.158L792.757 822.122L795.413 822.122L795.413 519.258L923.433 391.179Z" fill="#EFF0F2"/>
<path d="M1102.57 407.842L1087.55 407.842L1087.55 414.997L1102.57 414.997L1102.57 407.842Z" fill="#EFF0F2"/>
<path fill-rule="evenodd" clip-rule="evenodd" d="M1096.13 413.361L1096.13 410.703L764.782 410.703L523.01 652.538L523.01 868.631L525.667 868.631L525.667 653.639L583.325 595.966L583.325 624.632L549.315 658.651L549.315 794.746L551.972 794.746L551.972 659.752L585.982 625.733L585.982 593.308L765.883 413.361L1096.13 413.361Z" fill="#EFF0F2"/>
<path d="M1131.55 481.539C1128.19 481.539 1125.47 484.262 1125.47 487.62C1125.47 490.979 1128.19 493.702 1131.55 493.702C1134.91 493.702 1137.63 490.979 1137.63 487.62C1137.63 484.262 1134.91 481.539 1131.55 481.539Z" fill="#EFF0F2"/>
<path d="M912.963 120.922C909.801 120.922 907.239 123.485 907.239 126.646C907.239 129.807 909.801 132.37 912.963 132.37C916.124 132.37 918.687 129.807 918.687 126.646C918.687 123.485 916.124 120.922 912.963 120.922Z" fill="#EFF0F2"/>
<path d="M638.564 6.5309e-05C635.205 6.55626e-05 632.482 2.56283 632.482 5.72415C632.482 8.88548 635.205 11.4482 638.564 11.4482C641.923 11.4482 644.646 8.88548 644.646 5.72415C644.646 2.56283 641.923 6.50554e-05 638.564 6.5309e-05Z" fill="#EFF0F2"/>
<path d="M550.914 785.631C547.753 785.631 545.19 788.354 545.19 791.713C545.19 795.072 547.753 797.795 550.914 797.795C554.076 797.795 556.638 795.072 556.638 791.713C556.638 788.354 554.076 785.631 550.914 785.631Z" fill="#EFF0F2"/>
<path d="M524.082 862.191C520.723 862.191 518 864.914 518 868.273C518 871.632 520.723 874.354 524.082 874.354C527.441 874.354 530.164 871.632 530.164 868.273C530.164 864.914 527.441 862.191 524.082 862.191Z" fill="#EFF0F2"/>
<path d="M793.83 816.399C790.471 816.399 787.748 818.961 787.748 822.123C787.748 825.284 790.471 827.847 793.83 827.847C797.189 827.847 799.912 825.284 799.912 822.123C799.912 818.961 797.189 816.399 793.83 816.399Z" fill="#EFF0F2"/>
<path d="M1013.85 362.049C1010.69 362.049 1008.13 364.612 1008.13 367.773C1008.13 370.934 1010.69 373.497 1013.85 373.497C1017.01 373.497 1019.57 370.934 1019.57 367.773C1019.57 364.612 1017.01 362.049 1013.85 362.049Z" fill="#EFF0F2"/>
<path d="M763.421 98.0258C760.259 98.0258 757.697 100.749 757.697 104.108C757.697 107.467 760.259 110.189 763.421 110.189C766.582 110.189 769.145 107.467 769.145 104.108C769.145 100.749 766.582 98.0258 763.421 98.0258Z" fill="#EFF0F2"/>
<path d="M979.505 29.3359C976.343 29.3359 973.78 31.8986 973.78 35.06C973.78 38.2213 976.343 40.7841 979.505 40.7841C982.666 40.7841 985.229 38.2213 985.229 35.06C985.229 31.8986 982.666 29.3359 979.505 29.3359Z" fill="#EFF0F2"/>
<path d="M1175.2 137.379C1171.84 137.379 1169.11 139.942 1169.11 143.103C1169.11 146.264 1171.84 148.827 1175.2 148.827C1178.56 148.827 1181.28 146.264 1181.28 143.103C1181.28 139.942 1178.56 137.379 1175.2 137.379Z" fill="#EFF0F2"/>
<path d="M1196.3 203.922C1193.14 203.922 1190.58 206.645 1190.58 210.004C1190.58 213.363 1193.14 216.086 1196.3 216.086C1199.47 216.086 1202.03 213.363 1202.03 210.004C1202.03 206.645 1199.47 203.922 1196.3 203.922Z" fill="#EFF0F2"/>
<path d="M1262.85 16.4573C1259.69 16.4573 1257.12 19.0201 1257.12 22.1814C1257.12 25.3428 1259.69 27.9055 1262.85 27.9055C1266.01 27.9055 1268.57 25.3428 1268.57 22.1814C1268.57 19.0201 1266.01 16.4573 1262.85 16.4573Z" fill="#EFF0F2"/>
<path d="M1382.34 220.378C1379.18 220.378 1376.61 222.94 1376.61 226.102C1376.61 229.263 1379.18 231.826 1382.34 231.826C1385.5 231.826 1388.06 229.263 1388.06 226.102C1388.06 222.94 1385.5 220.378 1382.34 220.378Z" fill="#EFF0F2"/>
<path d="M1388.42 341.299C1385.06 341.299 1382.34 343.862 1382.34 347.023C1382.34 350.184 1385.06 352.747 1388.42 352.747C1391.78 352.747 1394.5 350.184 1394.5 347.023C1394.5 343.862 1391.78 341.299 1388.42 341.299Z" fill="#EFF0F2"/>
<path d="M1404.16 412.85C1400.8 412.85 1398.08 415.412 1398.08 418.574C1398.08 421.735 1400.8 424.298 1404.16 424.298C1407.52 424.298 1410.24 421.735 1410.24 418.574C1410.24 415.412 1407.52 412.85 1404.16 412.85Z" fill="#EFF0F2"/>
<path d="M1410.24 535.202C1407.08 535.202 1404.52 537.925 1404.52 541.284C1404.52 544.643 1407.08 547.366 1410.24 547.366C1413.4 547.366 1415.97 544.643 1415.97 541.284C1415.97 537.925 1413.4 535.202 1410.24 535.202Z" fill="#EFF0F2"/>
<path d="M1297.91 768.459C1294.75 768.459 1292.18 771.022 1292.18 774.183C1292.18 777.345 1294.75 779.907 1297.91 779.907C1301.07 779.907 1303.63 777.345 1303.63 774.183C1303.63 771.022 1301.07 768.459 1297.91 768.459Z" fill="#EFF0F2"/>
<path d="M1054.28 928.733C1050.92 928.733 1048.19 931.296 1048.19 934.458C1048.19 937.619 1050.92 940.182 1054.28 940.182C1057.63 940.182 1060.36 937.619 1060.36 934.458C1060.36 931.296 1057.63 928.733 1054.28 928.733Z" fill="#EFF0F2"/>
<path d="M1124.04 825.701C1120.88 825.701 1118.32 828.423 1118.32 831.782C1118.32 835.141 1120.88 837.864 1124.04 837.864C1127.2 837.864 1129.76 835.141 1129.76 831.782C1129.76 828.423 1127.2 825.701 1124.04 825.701Z" fill="#EFF0F2"/>
<path d="M1175.2 842.873C1171.84 842.873 1169.11 845.436 1169.11 848.597C1169.11 851.758 1171.84 854.321 1175.2 854.321C1178.56 854.321 1181.28 851.758 1181.28 848.597C1181.28 845.436 1178.56 842.873 1175.2 842.873Z" fill="#EFF0F2"/>
<path d="M1184.14 792.07C1180.98 792.07 1178.42 794.633 1178.42 797.795C1178.42 800.956 1180.98 803.519 1184.14 803.519C1187.3 803.519 1189.87 800.956 1189.87 797.795C1189.87 794.633 1187.3 792.07 1184.14 792.07Z" fill="#EFF0F2"/>
</g>
</svg>
