<svg width="375" height="1709" viewBox="0 0 375 1709" fill="none" xmlns="http://www.w3.org/2000/svg">
<g opacity="0.5">
<path d="M152.538 1553.1C152.538 1560.75 158.715 1566.95 166.336 1566.95L260.252 1566.95C267.873 1566.95 274.05 1560.75 274.05 1553.1L274.05 1458.82C274.05 1451.17 267.873 1444.96 260.252 1444.96L166.336 1444.96C158.715 1444.96 152.538 1451.17 152.538 1458.82L152.538 1553.1Z" fill="white"/>
<path fill-rule="evenodd" clip-rule="evenodd" d="M260.252 1563.83L166.336 1563.83C160.436 1563.83 155.653 1559.02 155.653 1553.1L155.653 1458.82C155.653 1452.89 160.436 1448.09 166.336 1448.09L260.252 1448.09C266.152 1448.09 270.935 1452.89 270.935 1458.82L270.935 1553.1C270.935 1559.02 266.152 1563.83 260.252 1563.83ZM166.336 1566.95C158.715 1566.95 152.538 1560.75 152.538 1553.1L152.538 1458.82C152.538 1451.17 158.715 1444.96 166.336 1444.96L260.252 1444.96C267.873 1444.96 274.05 1451.17 274.05 1458.82L274.05 1553.1C274.05 1560.75 267.873 1566.95 260.252 1566.95L166.336 1566.95Z" fill="#EFF0F2"/>
<path d="M139.968 1544.72L152.539 1544.72L152.539 1538.71L139.968 1538.71L139.968 1544.72Z" fill="#EFF0F2"/>
<path fill-rule="evenodd" clip-rule="evenodd" d="M68.2841 1542.32L146.551 1542.32L146.551 1540.07L69.2049 1540.07L41.639 1512.27L-145.558 1512.27L-145.558 1514.51L40.7182 1514.51L68.2841 1542.32Z" fill="#EFF0F2"/>
<path d="M139.968 1526.69L152.539 1526.69L152.539 1520.08L139.968 1520.08L139.968 1526.69Z" fill="#EFF0F2"/>
<path fill-rule="evenodd" clip-rule="evenodd" d="M83.5308 1524.29L145.355 1524.29L145.355 1522.04L84.4517 1522.04L24.8668 1461.79L-173.691 1461.79L-173.691 1464.04L23.9458 1464.04L83.5308 1524.29Z" fill="#EFF0F2"/>
<path d="M139.968 1508.06L152.539 1508.06L152.539 1502.05L139.968 1502.05L139.968 1508.06Z" fill="#EFF0F2"/>
<path fill-rule="evenodd" clip-rule="evenodd" d="M-188.058 1505.66L145.953 1505.66L145.953 1503.86L-188.058 1503.86L-188.058 1505.66Z" fill="#EFF0F2"/>
<path d="M139.968 1490.03L152.539 1490.03L152.539 1484.03L139.968 1484.03L139.968 1490.03Z" fill="#EFF0F2"/>
<path fill-rule="evenodd" clip-rule="evenodd" d="M95.6792 1488.23L145.953 1488.23L145.953 1486L96.6003 1486L14.3202 1403.5L-259.888 1403.5L-259.888 1405.73L13.3991 1405.73L95.6792 1488.23Z" fill="#EFF0F2"/>
<path d="M139.968 1472.01L152.539 1472.01L152.539 1465.4L139.968 1465.4L139.968 1472.01Z" fill="#EFF0F2"/>
<path fill-rule="evenodd" clip-rule="evenodd" d="M113.63 1470.2L145.953 1470.2L145.953 1468.4L113.63 1468.4L113.63 1470.2Z" fill="#EFF0F2"/>
<path d="M274.051 1544.72L286.621 1544.72L286.621 1538.71L274.051 1538.71L274.051 1544.72Z" fill="#EFF0F2"/>
<path fill-rule="evenodd" clip-rule="evenodd" d="M468.312 1580.78L503.309 1580.78L503.309 1578.56L469.234 1578.56L430.911 1540.51L281.833 1540.51L281.833 1542.73L429.988 1542.73L468.312 1580.78Z" fill="#EFF0F2"/>
<path d="M274.051 1526.69L286.621 1526.69L286.621 1520.08L274.051 1520.08L274.051 1526.69Z" fill="#EFF0F2"/>
<path fill-rule="evenodd" clip-rule="evenodd" d="M347.677 1521.88L281.234 1521.88L281.234 1524.29L347.677 1524.29L347.677 1521.88Z" fill="#EFF0F2"/>
<path d="M274.051 1509.26L286.621 1509.26L286.621 1503.25L274.051 1503.25L274.051 1509.26Z" fill="#EFF0F2"/>
<path d="M274.051 1489.43L286.621 1489.43L286.621 1482.82L274.051 1482.82L274.051 1489.43Z" fill="#EFF0F2"/>
<path fill-rule="evenodd" clip-rule="evenodd" d="M367.78 1485.39L280.635 1485.39L280.635 1487.63L368.701 1487.63L432.722 1423.21L432.722 1367.72L457.641 1342.64L492.534 1342.64L492.534 1340.4L456.72 1340.4L430.498 1366.79L430.498 1422.28L367.78 1485.39Z" fill="#EFF0F2"/>
<path fill-rule="evenodd" clip-rule="evenodd" d="M402.147 1505.66L280.635 1505.66L280.635 1508.06L402.147 1508.06L402.147 1505.66Z" fill="#EFF0F2"/>
<path d="M274.051 1472.61L286.621 1472.61L286.621 1466.6L274.051 1466.6L274.051 1472.61Z" fill="#EFF0F2"/>
<path fill-rule="evenodd" clip-rule="evenodd" d="M349.006 1468.57L280.635 1468.57L280.635 1470.8L349.926 1470.8L401.201 1419.29L401.201 1195.12L435.07 1161.1L433.5 1159.52L398.981 1194.2L398.981 1418.37L349.006 1468.57Z" fill="#EFF0F2"/>
<path d="M251.903 1579.57L251.903 1566.95L245.319 1566.95L245.319 1579.57L251.903 1579.57Z" fill="#EFF0F2"/>
<path fill-rule="evenodd" clip-rule="evenodd" d="M303.556 1681.73L333.311 1681.73L333.311 1679.5L304.476 1679.5L250.531 1625.14L250.531 1574.17L248.312 1574.17L248.312 1626.06L303.556 1681.73Z" fill="#EFF0F2"/>
<path d="M233.946 1579.57L233.946 1566.95L227.96 1566.95L227.96 1579.57L233.946 1579.57Z" fill="#EFF0F2"/>
<path fill-rule="evenodd" clip-rule="evenodd" d="M232.15 1684.74L232.15 1574.17L229.755 1574.17L229.755 1684.74L232.15 1684.74Z" fill="#EFF0F2"/>
<path d="M215.988 1579.57L215.988 1566.95L210.002 1566.95L210.002 1579.57L215.988 1579.57Z" fill="#EFF0F2"/>
<path fill-rule="evenodd" clip-rule="evenodd" d="M172.661 1699.16L214.192 1657.38L214.192 1573.56L211.977 1573.56L211.977 1656.46L171.094 1697.58L172.661 1699.16Z" fill="#EFF0F2"/>
<path fill-rule="evenodd" clip-rule="evenodd" d="M68.7358 1703.97L137.285 1703.97L196.235 1644.78L196.235 1574.17L194.009 1574.17L194.009 1643.85L136.363 1701.73L68.7358 1701.73L68.7358 1703.97Z" fill="#EFF0F2"/>
<path d="M198.628 1579.57L198.628 1566.95L192.044 1566.95L192.044 1579.57L198.628 1579.57Z" fill="#EFF0F2"/>
<path d="M180.671 1579.57L180.671 1566.95L174.685 1566.95L174.685 1579.57L180.671 1579.57Z" fill="#EFF0F2"/>
<path fill-rule="evenodd" clip-rule="evenodd" d="M-125.804 1610.22L167.697 1610.22L179.475 1598.39L179.475 1573.56L177.25 1573.56L177.25 1597.46L166.776 1607.99L-125.804 1607.99L-125.804 1610.22Z" fill="#EFF0F2"/>
<path d="M251.903 1444.96L251.903 1432.34L245.319 1432.34L245.319 1444.96L251.903 1444.96Z" fill="#EFF0F2"/>
<path fill-rule="evenodd" clip-rule="evenodd" d="M248.911 1438.35L251.134 1438.35L251.134 1321.2L285.396 1286.75L415.916 1286.75L415.916 1284.51L284.475 1284.51L248.911 1320.28L248.911 1438.35Z" fill="#EFF0F2"/>
<path d="M233.946 1444.96L233.946 1432.34L227.96 1432.34L227.96 1444.96L233.946 1444.96Z" fill="#EFF0F2"/>
<path fill-rule="evenodd" clip-rule="evenodd" d="M230.354 1436.55L232.581 1436.55L232.581 1225.1L347.923 1109.41L464.362 1109.41L517.675 1055.94L516.101 1054.36L463.44 1107.18L347 1107.18L230.354 1224.17L230.354 1436.55Z" fill="#EFF0F2"/>
<path d="M215.988 1444.96L215.988 1432.34L210.002 1432.34L210.002 1444.96L215.988 1444.96Z" fill="#EFF0F2"/>
<path fill-rule="evenodd" clip-rule="evenodd" d="M212.396 1371.05L212.396 1437.15L214.791 1437.15L214.791 1371.05L212.396 1371.05Z" fill="#EFF0F2"/>
<path d="M198.628 1444.96L198.628 1432.34L192.044 1432.34L192.044 1444.96L198.628 1444.96Z" fill="#EFF0F2"/>
<path fill-rule="evenodd" clip-rule="evenodd" d="M194.61 1294.51L194.61 1438.35L196.833 1438.35L196.833 1293.59L88.3819 1184.76L-165.91 1184.76L-165.91 1186.99L87.4613 1186.99L194.61 1294.51Z" fill="#EFF0F2"/>
<path d="M180.671 1444.96L180.671 1432.34L174.685 1432.34L174.685 1444.96L180.671 1444.96Z" fill="#EFF0F2"/>
<path fill-rule="evenodd" clip-rule="evenodd" d="M176.054 1439.56L178.277 1439.56L178.277 1161.26L-24.0382 958.207L-204.818 958.207L-204.818 960.439L-24.9592 960.439L23.289 1008.86L-0.692314 1008.86L-29.152 980.3L-143.007 980.3L-143.007 982.531L-30.073 982.531L-1.61327 1011.1L25.5124 1011.1L176.054 1162.19L176.054 1439.56Z" fill="#EFF0F2"/>
<path d="M119.018 1469.3C119.018 1466.48 116.74 1464.19 113.93 1464.19C111.12 1464.19 108.842 1466.48 108.842 1469.3C108.842 1472.12 111.12 1474.41 113.93 1474.41C116.74 1474.41 119.018 1472.12 119.018 1469.3Z" fill="#EFF0F2"/>
<path d="M218.98 1370.45C218.98 1367.79 216.836 1365.64 214.192 1365.64C211.547 1365.64 209.403 1367.79 209.403 1370.45C209.403 1373.1 211.547 1375.26 214.192 1375.26C216.836 1375.26 218.98 1373.1 218.98 1370.45Z" fill="#EFF0F2"/>
<path d="M351.268 1523.69C351.268 1521.03 348.99 1518.88 346.18 1518.88C343.37 1518.88 341.092 1521.03 341.092 1523.69C341.092 1526.34 343.37 1528.49 346.18 1528.49C348.99 1528.49 351.268 1526.34 351.268 1523.69Z" fill="#EFF0F2"/>
<path d="M337.501 1679.93C337.501 1677.28 335.357 1675.12 332.712 1675.12C330.068 1675.12 327.924 1677.28 327.924 1679.93C327.924 1682.59 330.068 1684.74 332.712 1684.74C335.357 1684.74 337.501 1682.59 337.501 1679.93Z" fill="#EFF0F2"/>
<path d="M236.34 1685.04C236.34 1682.22 234.196 1679.93 231.552 1679.93C228.907 1679.93 226.763 1682.22 226.763 1685.04C226.763 1687.86 228.907 1690.15 231.552 1690.15C234.196 1690.15 236.34 1687.86 236.34 1685.04Z" fill="#EFF0F2"/>
<path d="M176.482 1698.26C176.482 1695.44 174.338 1693.15 171.693 1693.15C169.048 1693.15 166.904 1695.44 166.904 1698.26C166.904 1701.08 169.048 1703.37 171.693 1703.37C174.338 1703.37 176.482 1701.08 176.482 1698.26Z" fill="#EFF0F2"/>
<path d="M74.1229 1703.37C74.1229 1700.71 71.8449 1698.56 69.0349 1698.56C66.2249 1698.56 63.9469 1700.71 63.9469 1703.37C63.9469 1706.02 66.2249 1708.17 69.0349 1708.17C71.8449 1708.17 74.1229 1706.02 74.1229 1703.37Z" fill="#EFF0F2"/>
</g>
<g opacity="0.5">
<path d="M307.969 392.356C316.065 392.356 322.628 385.793 322.628 377.698L322.628 277.925C322.628 269.829 316.065 263.267 307.969 263.267L208.197 263.267C200.101 263.267 193.538 269.829 193.538 277.925L193.538 377.698C193.538 385.793 200.101 392.356 208.197 392.356L307.969 392.356Z" fill="white"/>
<path fill-rule="evenodd" clip-rule="evenodd" d="M319.318 277.925L319.318 377.698C319.318 383.965 314.237 389.046 307.969 389.046L208.197 389.046C201.929 389.046 196.848 383.965 196.848 377.698L196.848 277.925C196.848 271.658 201.929 266.577 208.197 266.577L307.969 266.577C314.237 266.577 319.318 271.658 319.318 277.925ZM322.628 377.698C322.628 385.793 316.065 392.356 307.969 392.356L208.197 392.356C200.101 392.356 193.538 385.793 193.538 377.698L193.538 277.925C193.538 269.829 200.101 263.267 208.197 263.267L307.969 263.267C316.065 263.267 322.628 269.829 322.628 277.925L322.628 377.698Z" fill="#EFF0F2"/>
<path d="M299.099 405.71L299.099 392.356L292.74 392.356L292.74 405.71L299.099 405.71Z" fill="#EFF0F2"/>
<path fill-rule="evenodd" clip-rule="evenodd" d="M296.554 481.863L296.554 398.715L294.181 398.715L294.181 480.884L264.759 510.169L264.759 709.038L267.131 709.038L267.131 511.147L296.554 481.863Z" fill="#EFF0F2"/>
<path d="M280.021 405.71L280.021 392.356L273.026 392.356L273.026 405.71L280.021 405.71Z" fill="#EFF0F2"/>
<path fill-rule="evenodd" clip-rule="evenodd" d="M277.478 465.666L277.478 399.987L275.099 399.987L275.099 464.688L211.344 527.988L211.344 738.926L213.723 738.926L213.723 528.966L277.478 465.666Z" fill="#EFF0F2"/>
<path d="M260.308 405.71L260.308 392.356L253.949 392.356L253.949 405.71L260.308 405.71Z" fill="#EFF0F2"/>
<path fill-rule="evenodd" clip-rule="evenodd" d="M257.765 754.187L257.765 399.35L255.857 399.35L255.857 754.187L257.765 754.187Z" fill="#EFF0F2"/>
<path d="M241.231 405.71L241.231 392.356L234.872 392.356L234.872 405.71L241.231 405.71Z" fill="#EFF0F2"/>
<path fill-rule="evenodd" clip-rule="evenodd" d="M239.323 452.759L239.323 399.351L236.964 399.351L236.964 451.781L149.66 539.191L149.66 830.497L152.02 830.497L152.02 540.17L239.323 452.759Z" fill="#EFF0F2"/>
<path d="M222.154 405.71L222.154 392.356L215.159 392.356L215.159 405.71L222.154 405.71Z" fill="#EFF0F2"/>
<path fill-rule="evenodd" clip-rule="evenodd" d="M220.246 433.69L220.246 399.351L218.338 399.351L218.338 433.69L220.246 433.69Z" fill="#EFF0F2"/>
<path d="M299.099 263.267L299.099 249.913L292.74 249.913L292.74 263.267L299.099 263.267Z" fill="#EFF0F2"/>
<path fill-rule="evenodd" clip-rule="evenodd" d="M337.252 56.893L337.252 19.7133L334.912 19.7133L334.912 55.9126L294.647 96.6261L294.647 255L296.988 255L296.988 97.6066L337.252 56.893Z" fill="#EFF0F2"/>
<path d="M280.021 263.267L280.021 249.913L273.026 249.913L273.026 263.267L280.021 263.267Z" fill="#EFF0F2"/>
<path fill-rule="evenodd" clip-rule="evenodd" d="M274.934 185.05L274.934 255.635L277.477 255.635L277.477 185.05L274.934 185.05Z" fill="#EFF0F2"/>
<path d="M261.581 263.267L261.581 249.913L255.222 249.913L255.222 263.267L261.581 263.267Z" fill="#EFF0F2"/>
<path d="M240.595 263.267L240.595 249.913L233.6 249.913L233.6 263.267L240.595 263.267Z" fill="#EFF0F2"/>
<path fill-rule="evenodd" clip-rule="evenodd" d="M236.32 163.693L236.32 256.272L238.687 256.272L238.687 162.714L170.513 94.7015L111.793 94.7015L85.2575 68.2288L85.2575 31.16L82.8898 31.16L82.8898 69.2072L110.812 97.0637L169.532 97.0637L236.32 163.693Z" fill="#EFF0F2"/>
<path fill-rule="evenodd" clip-rule="evenodd" d="M257.765 127.182L257.765 256.272L260.308 256.272L260.308 127.182L257.765 127.182Z" fill="#EFF0F2"/>
<path d="M222.791 263.267L222.791 249.913L216.431 249.913L216.431 263.267L222.791 263.267Z" fill="#EFF0F2"/>
<path fill-rule="evenodd" clip-rule="evenodd" d="M218.521 183.637L218.521 256.272L220.881 256.272L220.881 182.66L166.373 128.188L-70.8461 128.188L-106.85 92.2073L-108.519 93.8753L-71.8238 130.547L165.395 130.547L218.521 183.637Z" fill="#EFF0F2"/>
<path d="M335.982 286.795L322.628 286.795L322.628 293.79L335.982 293.79L335.982 286.795Z" fill="#EFF0F2"/>
<path fill-rule="evenodd" clip-rule="evenodd" d="M444.087 231.921L444.087 200.311L441.721 200.311L441.721 230.944L384.199 288.253L330.26 288.253L330.26 290.61L385.179 290.61L444.087 231.921Z" fill="#EFF0F2"/>
<path d="M335.982 305.872L322.628 305.872L322.628 312.231L335.982 312.231L335.982 305.872Z" fill="#EFF0F2"/>
<path fill-rule="evenodd" clip-rule="evenodd" d="M447.265 307.781L330.258 307.781L330.258 310.324L447.265 310.324L447.265 307.781Z" fill="#EFF0F2"/>
<path d="M335.982 324.95L322.628 324.95L322.628 331.309L335.982 331.309L335.982 324.95Z" fill="#EFF0F2"/>
<path fill-rule="evenodd" clip-rule="evenodd" d="M462.528 370.978L418.316 326.857L329.623 326.857L329.623 329.211L417.339 329.211L460.86 372.643L462.528 370.978Z" fill="#EFF0F2"/>
<path fill-rule="evenodd" clip-rule="evenodd" d="M467.614 481.383L467.614 408.561L404.981 345.935L330.258 345.935L330.258 348.299L404.002 348.299L465.25 409.54L465.25 481.383L467.614 481.383Z" fill="#EFF0F2"/>
<path d="M335.982 343.391L322.628 343.391L322.628 350.386L335.982 350.386L335.982 343.391Z" fill="#EFF0F2"/>
<path d="M335.982 362.468L322.628 362.468L322.628 368.827L335.982 368.827L335.982 362.468Z" fill="#EFF0F2"/>
<path fill-rule="evenodd" clip-rule="evenodd" d="M368.412 688.053L368.412 376.251L355.892 363.74L329.621 363.74L329.621 366.103L354.913 366.103L366.047 377.231L366.047 688.053L368.412 688.053Z" fill="#EFF0F2"/>
<path d="M193.538 286.795L180.184 286.795L180.184 293.79L193.538 293.79L193.538 286.795Z" fill="#EFF0F2"/>
<path fill-rule="evenodd" clip-rule="evenodd" d="M186.543 289.975L186.543 287.613L62.5725 287.613L26.1167 251.214L26.1167 112.557L23.7505 112.557L23.7505 252.193L61.5924 289.975L186.543 289.975Z" fill="#EFF0F2"/>
<path d="M193.538 305.872L180.184 305.872L180.184 312.231L193.538 312.231L193.538 305.872Z" fill="#EFF0F2"/>
<path fill-rule="evenodd" clip-rule="evenodd" d="M184.636 309.688L184.636 307.323L-39.1248 307.323L-161.546 184.789L-161.546 61.0895L-218.131 4.45163L-219.802 6.12408L-163.909 62.0692L-163.909 185.769L-40.1036 309.688L184.636 309.688Z" fill="#EFF0F2"/>
<path d="M193.538 324.95L180.184 324.95L180.184 331.309L193.538 331.309L193.538 324.95Z" fill="#EFF0F2"/>
<path fill-rule="evenodd" clip-rule="evenodd" d="M115.321 328.765L185.271 328.765L185.271 326.221L115.321 326.221L115.321 328.765Z" fill="#EFF0F2"/>
<path d="M193.538 343.391L180.184 343.391L180.184 350.386L193.538 350.386L193.538 343.391Z" fill="#EFF0F2"/>
<path fill-rule="evenodd" clip-rule="evenodd" d="M34.3274 347.66L186.543 347.66L186.543 345.298L33.3498 345.298L-81.8103 460.511L-81.8103 730.659L-79.4501 730.659L-79.4501 461.49L34.3274 347.66Z" fill="#EFF0F2"/>
<path d="M193.538 362.468L180.184 362.468L180.184 368.827L193.538 368.827L193.538 362.468Z" fill="#EFF0F2"/>
<path fill-rule="evenodd" clip-rule="evenodd" d="M187.815 367.374L187.815 365.012L-106.673 365.012L-321.547 579.942L-321.547 771.993L-319.186 771.993L-319.186 580.92L-267.943 529.663L-267.943 555.14L-298.169 585.374L-298.169 706.328L-295.808 706.328L-295.808 586.353L-265.581 556.118L-265.581 527.301L-105.695 367.374L187.815 367.374Z" fill="#EFF0F2"/>
<path d="M219.293 427.966C216.308 427.966 213.888 430.386 213.888 433.371C213.888 436.357 216.308 438.777 219.293 438.777C222.278 438.777 224.698 436.357 224.698 433.371C224.698 430.386 222.278 427.966 219.293 427.966Z" fill="#EFF0F2"/>
<path d="M25.0221 107.469C22.2125 107.469 19.9348 109.747 19.9348 112.556C19.9348 115.366 22.2125 117.644 25.0221 117.644C27.8317 117.644 30.1094 115.366 30.1094 112.556C30.1094 109.747 27.8317 107.469 25.0221 107.469Z" fill="#EFF0F2"/>
<path d="M114.685 321.77C111.876 321.77 109.598 324.048 109.598 326.857C109.598 329.667 111.876 331.944 114.685 331.944C117.495 331.944 119.772 329.667 119.772 326.857C119.772 324.048 117.495 321.77 114.685 321.77Z" fill="#EFF0F2"/>
<path d="M84.161 26.0722C81.3514 26.0722 79.0738 28.3498 79.0738 31.1594C79.0738 33.9691 81.3514 36.2467 84.161 36.2467C86.9706 36.2467 89.2483 33.9691 89.2483 31.1594C89.2483 28.3498 86.9706 26.0722 84.161 26.0722Z" fill="#EFF0F2"/>
<path d="M258.082 122.095C255.097 122.095 252.677 124.373 252.677 127.182C252.677 129.992 255.097 132.27 258.082 132.27C261.067 132.27 263.487 129.992 263.487 127.182C263.487 124.373 261.067 122.095 258.082 122.095Z" fill="#EFF0F2"/>
<path d="M276.841 181.235C274.032 181.235 271.754 183.655 271.754 186.64C271.754 189.626 274.032 192.046 276.841 192.046C279.651 192.046 281.929 189.626 281.929 186.64C281.929 183.655 279.651 181.235 276.841 181.235Z" fill="#EFF0F2"/>
<path d="M335.982 14.6264C333.172 14.6264 330.895 16.904 330.895 19.7136C330.895 22.5233 333.172 24.8009 335.982 24.8009C338.792 24.8009 341.069 22.5233 341.069 19.7136C341.069 16.904 338.792 14.6264 335.982 14.6264Z" fill="#EFF0F2"/>
<path d="M367.14 682.966C364.331 682.966 362.053 685.244 362.053 688.053C362.053 690.863 364.331 693.141 367.14 693.141C369.95 693.141 372.228 690.863 372.228 688.053C372.228 685.244 369.95 682.966 367.14 682.966Z" fill="#EFF0F2"/>
<path d="M150.614 825.41C147.629 825.41 145.209 827.687 145.209 830.497C145.209 833.306 147.629 835.584 150.614 835.584C153.599 835.584 156.019 833.306 156.019 830.497C156.019 827.687 153.599 825.41 150.614 825.41Z" fill="#EFF0F2"/>
<path d="M212.616 733.839C209.806 733.839 207.529 736.259 207.529 739.244C207.529 742.23 209.806 744.65 212.616 744.65C215.426 744.65 217.703 742.23 217.703 739.244C217.703 736.259 215.426 733.839 212.616 733.839Z" fill="#EFF0F2"/>
<path d="M258.082 749.101C255.097 749.101 252.677 751.379 252.677 754.188C252.677 756.998 255.097 759.276 258.082 759.276C261.067 759.276 263.487 756.998 263.487 754.188C263.487 751.379 261.067 749.101 258.082 749.101Z" fill="#EFF0F2"/>
<path d="M266.032 703.951C263.222 703.951 260.944 706.228 260.944 709.038C260.944 711.848 263.222 714.125 266.032 714.125C268.841 714.125 271.119 711.848 271.119 709.038C271.119 706.228 268.841 703.951 266.032 703.951Z" fill="#EFF0F2"/>
</g>
</svg>
