<svg width="208" height="211" viewBox="0 0 208 211" fill="none" xmlns="http://www.w3.org/2000/svg">
<path fill-rule="evenodd" clip-rule="evenodd" d="M29.2151 125.238C31.475 102.212 57.1952 92.5403 74.7923 77.5006C93.8355 61.225 108.45 32.4237 133.198 36.3666C158.466 40.3924 166.848 70.905 177.952 93.9364C189.057 116.971 204.462 140.995 195.115 164.796C185.185 190.08 159.123 205.761 132.3 210.176C107.303 214.291 83.6524 202.464 64.1079 186.36C45.0528 170.659 26.8046 149.797 29.2151 125.238Z" fill="#5FEEA9"/>
<path fill-rule="evenodd" clip-rule="evenodd" d="M0 189C0 187.343 1.31426 186 2.93548 186H205.065C206.686 186 208 187.343 208 189C208 190.657 206.686 192 205.065 192H2.93548C1.31426 192 0 190.657 0 189Z" fill="black"/>
<path fill-rule="evenodd" clip-rule="evenodd" d="M135.114 186.105V165.053C135.114 147.845 121.184 133.895 104 133.895C86.8164 133.895 72.8864 147.845 72.8864 165.053V186.105H135.114ZM104 128C83.5655 128 67 144.589 67 165.053V192H141V165.053C141 144.589 124.435 128 104 128Z" fill="black"/>
<path d="M183.153 186.061V168.242C183.153 153.716 171.561 141.939 157.262 141.939C148.568 141.939 140.875 146.292 136.179 152.97L133 147.455C138.822 140.449 147.53 136 157.262 136C174.79 136 189 150.435 189 168.242V192H137.634V186.061H183.153Z" fill="black"/>
<path d="M50.543 141.939C36.3314 141.939 24.8106 153.716 24.8106 168.242V186.061H70.0499V192H19V168.242C19 150.435 33.1223 136 50.543 136C60.4084 136 69.2159 140.629 75 147.879L72.1251 153.913C67.5355 146.705 59.5837 141.939 50.543 141.939Z" fill="black"/>
<path fill-rule="evenodd" clip-rule="evenodd" d="M157.5 136.114C164.466 136.114 170.114 130.466 170.114 123.5C170.114 116.534 164.466 110.886 157.5 110.886C150.534 110.886 144.886 116.534 144.886 123.5C144.886 130.466 150.534 136.114 157.5 136.114ZM157.5 142C167.717 142 176 133.717 176 123.5C176 113.283 167.717 105 157.5 105C147.283 105 139 113.283 139 123.5C139 133.717 147.283 142 157.5 142Z" fill="black"/>
<path fill-rule="evenodd" clip-rule="evenodd" d="M50.5 136.114C57.4663 136.114 63.1136 130.466 63.1136 123.5C63.1136 116.534 57.4663 110.886 50.5 110.886C43.5337 110.886 37.8864 116.534 37.8864 123.5C37.8864 130.466 43.5337 136.114 50.5 136.114ZM50.5 142C60.7173 142 69 133.717 69 123.5C69 113.283 60.7173 105 50.5 105C40.2827 105 32 113.283 32 123.5C32 133.717 40.2827 142 50.5 142Z" fill="black"/>
<path fill-rule="evenodd" clip-rule="evenodd" d="M103.5 126.145C113.175 126.145 121.018 118.469 121.018 109C121.018 99.5308 113.175 91.8545 103.5 91.8545C93.825 91.8545 85.9818 99.5308 85.9818 109C85.9818 118.469 93.825 126.145 103.5 126.145ZM103.5 132C116.479 132 127 121.703 127 109C127 96.2975 116.479 86 103.5 86C90.5213 86 80 96.2975 80 109C80 121.703 90.5213 132 103.5 132Z" fill="black"/>
<path fill-rule="evenodd" clip-rule="evenodd" d="M103.5 28.2172L100.046 34.1666C98.8601 36.2092 96.8731 37.6575 94.5703 38.1578L87.863 39.615L92.4356 44.7491C94.0055 46.5117 94.7644 48.8552 94.5271 51.207L93.8358 58.057L100.116 55.2806C102.272 54.3274 104.728 54.3274 106.884 55.2806L113.164 58.057L112.473 51.207C112.236 48.8552 112.995 46.5117 114.564 44.7491L119.137 39.615L112.43 38.1578C110.127 37.6575 108.14 36.2092 106.954 34.1666L103.5 28.2172ZM105.676 20.2546C104.704 18.5818 102.296 18.5818 101.324 20.2546L94.9697 31.2004C94.614 31.8132 94.0178 32.2477 93.327 32.3977L80.9869 35.0786C79.101 35.4883 78.3567 37.7866 79.6423 39.2302L88.055 48.6759C88.526 49.2047 88.7537 49.9078 88.6825 50.6133L87.4106 63.216C87.2162 65.142 89.1649 66.5624 90.9307 65.7818L102.485 60.6738C103.132 60.3878 103.868 60.3878 104.515 60.6738L116.069 65.7818C117.835 66.5624 119.784 65.142 119.589 63.216L118.318 50.6133C118.246 49.9078 118.474 49.2047 118.945 48.6759L127.358 39.2302C128.643 37.7866 127.899 35.4883 126.013 35.0786L113.673 32.3977C112.982 32.2477 112.386 31.8132 112.03 31.2004L105.676 20.2546Z" fill="black"/>
<path fill-rule="evenodd" clip-rule="evenodd" d="M71.8714 10.8201C73.0332 9.72663 74.9168 9.72663 76.0786 10.8201L87.1286 21.2201C88.2905 22.3136 88.2905 24.0864 87.1286 25.1799C85.9668 26.2734 84.0832 26.2734 82.9214 25.1799L71.8714 14.7799C70.7095 13.6864 70.7095 11.9136 71.8714 10.8201Z" fill="black"/>
<path fill-rule="evenodd" clip-rule="evenodd" d="M103.903 1.26412C105.521 1.26412 106.833 2.57613 106.833 4.19456L106.833 12.5673C106.833 14.1857 105.521 15.4977 103.903 15.4977C102.284 15.4977 100.972 14.1857 100.972 12.5673L100.972 4.19456C100.972 2.57613 102.284 1.26412 103.903 1.26412Z" fill="black"/>
<path fill-rule="evenodd" clip-rule="evenodd" d="M135.129 10.8201C133.967 9.72663 132.083 9.72663 130.921 10.8201L119.871 21.2201C118.71 22.3136 118.71 24.0864 119.871 25.1799C121.033 26.2734 122.917 26.2734 124.079 25.1799L135.129 14.7799C136.29 13.6864 136.29 11.9136 135.129 10.8201Z" fill="black"/>
</svg>
