<svg width="96" height="96" fill="none" xmlns="http://www.w3.org/2000/svg"><path fill="#fff" d="M0 0h96v96H0z"/><path fill-rule="evenodd" clip-rule="evenodd" d="M39.285 23.088c9.474.922 13.453 11.424 19.64 18.608 6.697 7.775 18.546 13.742 16.924 23.846-1.656 10.317-14.21 13.74-23.686 18.272-9.477 4.535-19.361 10.824-29.154 7.008C12.607 86.768 6.155 76.127 4.34 65.176 2.646 54.97 7.512 45.314 14.137 37.334c6.46-7.78 15.044-15.23 25.148-14.246Z" fill="#5FEEA9"/><path d="M14.5 81a3.5 3.5 0 0 1 3.5-3.5h58a3.5 3.5 0 0 1 3.5 3.5v5.5h-65V81Z" stroke="#000" stroke-width="5"/><path d="M36 38v39M60 38v39M60 67H36M60 57H36M60 47H36" stroke="#000" stroke-width="5" stroke-linecap="round" stroke-linejoin="round"/><mask id="a" fill="#fff"><path d="M47.116 10.676a1 1 0 0 1 1.768 0l2.554 4.84a1 1 0 0 0 .714.52l5.393.933a1 1 0 0 1 .547 1.682l-3.815 3.925a1 1 0 0 0-.272.839l.779 5.417a1 1 0 0 1-1.431 1.04l-4.912-2.415a1 1 0 0 0-.882 0l-4.912 2.415a1 1 0 0 1-1.43-1.04l.778-5.417a1 1 0 0 0-.272-.84l-3.815-3.924a1 1 0 0 1 .547-1.682l5.393-.933a1 1 0 0 0 .714-.52l2.554-4.84Z"/></mask><path d="M47.116 10.676a1 1 0 0 1 1.768 0l2.554 4.84a1 1 0 0 0 .714.52l5.393.933a1 1 0 0 1 .547 1.682l-3.815 3.925a1 1 0 0 0-.272.839l.779 5.417a1 1 0 0 1-1.431 1.04l-4.912-2.415a1 1 0 0 0-.882 0l-4.912 2.415a1 1 0 0 1-1.43-1.04l.778-5.417a1 1 0 0 0-.272-.84l-3.815-3.924a1 1 0 0 1 .547-1.682l5.393-.933a1 1 0 0 0 .714-.52l2.554-4.84Z" fill="#000"/><path d="m44.562 15.517 10.613 5.6-10.613-5.6Zm-6.654 3.134-8.605 8.364 8.605-8.364Zm.547-1.682L36.409 5.144l2.046 11.825Zm3.54 6.446 11.878 1.708-11.878-1.708Zm-.272-.84-8.606 8.364 8.606-8.363Zm.924 7.297 5.295 10.769-5.295-10.77Zm-1.43-1.04-11.878-1.708 11.877 1.708Zm6.342-1.375-5.295-10.769 5.295 10.769Zm5.794 2.415L48.058 40.64l5.295-10.77Zm.924-7.296-8.605-8.364 8.605 8.364Zm-.272.839-11.878 1.708 11.878-1.708Zm3.54-6.446L55.5 28.793l2.046-11.824Zm-6.107-1.452-10.613 5.6 10.613-5.6Zm.714.519L50.106 27.86l2.046-11.824Zm-3.268-5.36-10.613 5.6 10.613-5.6Zm-1.768 0-10.614-5.6 10.614 5.6Zm-8.845 5.6 2.554 4.84L62.052 9.917l-2.554-4.84L38.27 16.276ZM50.106 27.86l5.393.933 4.092-23.649-5.393-.933-4.092 23.649Zm-.62-17.573-3.814 3.925 17.21 16.727 3.815-3.924-17.21-16.728Zm-7.36 14.836.78 5.417 23.755-3.416-.779-5.417-23.755 3.416Zm16.522-6.02-4.912-2.415-10.59 21.538 4.912 2.415 10.59-21.538Zm-16.384-2.415-4.912 2.415 10.59 21.538 4.912-2.415-10.59-21.538Zm10.83 13.852.78-5.417-23.756-3.416-.78 5.417 23.756 3.416Zm-2.766-16.328-3.814-3.925-17.211 16.728 3.814 3.924 17.211-16.727Zm-9.827 14.581 5.393-.933L41.802 4.21l-5.393.933 4.092 23.649Zm14.674-7.677 2.554-4.84-21.227-11.2-2.554 4.841 21.227 11.2Zm-9.281 6.744a13 13 0 0 0 9.281-6.744L33.948 9.917a11 11 0 0 1 7.854-5.706l4.092 23.649Zm.62-17.573c6.164 6.343 2.702 16.998-6.013 18.506L36.409 5.144c-10.3 1.782-14.391 14.375-7.106 21.87l17.21-16.727Zm7.36 14.836a13 13 0 0 0-3.546-10.91l-17.21 16.726a11 11 0 0 1-3-9.232l23.755 3.416Zm-16.522-6.02c7.938-3.902 17.001 2.683 15.742 11.437L29.34 27.124C27.85 37.47 38.562 45.253 47.942 40.641l-10.59-21.538Zm16.384-2.415a13 13 0 0 0-11.472 0l10.59 21.538a11 11 0 0 1-9.708 0l10.59-21.538ZM42.906 30.54c-1.26-8.754 7.805-15.34 15.742-11.437l-10.59 21.538c9.38 4.612 20.091-3.17 18.603-13.517L42.906 30.54Zm2.766-16.328a13 13 0 0 0-3.545 10.911l23.755-3.416a11 11 0 0 1-3 9.232l-17.21-16.727Zm9.827 14.581c-8.715-1.508-12.177-12.163-6.013-18.505l17.211 16.727c7.285-7.496 3.194-20.089-7.106-21.87l-4.092 23.648Zm-14.674-7.677a13 13 0 0 0 9.281 6.744L54.198 4.21a11 11 0 0 1 7.854 5.706l-21.227 11.2Zm18.673-16.04c-4.878-9.244-18.118-9.244-22.996 0l21.227 11.2c-4.127 7.823-15.33 7.823-19.458 0l21.227-11.2Z" fill="#000" mask="url(#a)"/><path d="M27 19h-8M29.361 12l-4-4M26.361 29l3-3M69.361 19h8M67 12l4-4M70 29l-3-3" stroke="#000" stroke-width="4" stroke-linecap="round" stroke-linejoin="round"/></svg>