<svg width="96" height="96" viewBox="0 0 96 96" fill="none" xmlns="http://www.w3.org/2000/svg">
<rect width="96" height="96" fill="white"/>
<path fill-rule="evenodd" clip-rule="evenodd" d="M20.0916 55.2446C21.0545 45.3764 32.0122 41.2316 39.5092 34.786C47.6222 27.8107 53.8487 15.4673 64.392 17.1571C75.1569 18.8824 78.7282 31.9593 83.4586 41.8299C88.1899 51.702 94.7531 61.998 90.7707 72.1985C86.5403 83.0343 75.437 89.7549 64.0094 91.6471C53.3598 93.4104 43.2839 88.3419 34.9572 81.4401C26.8391 74.7112 19.0647 65.77 20.0916 55.2446Z" fill="#5FEEA9"/>
<path d="M31 66C29.8954 66 29 66.8954 29 68C29 69.1046 29.8954 70 31 70V66ZM36 73H34V77H36V73ZM31 70H37V66H31V70ZM43 64V58H39V64H43ZM46 51V65H50V51H46ZM38 73H36V77H38V73ZM46 65C46 69.4183 42.4183 73 38 73V77C44.6274 77 50 71.6274 50 65H46ZM43 58C43 55.2386 45.2386 53 48 53V49C43.0294 49 39 53.0294 39 58H43ZM37 70C40.3137 70 43 67.3137 43 64H39C39 65.1046 38.1046 66 37 66V70Z" fill="black"/>
<path d="M43 37H53V43C53 44.1046 52.1046 45 51 45H45C43.8954 45 43 44.1046 43 43V37Z" stroke="black" stroke-width="4"/>
<circle cx="19" cy="58" r="8" stroke="black" stroke-width="4"/>
<path d="M30 70H17C12.0294 70 8 74.0294 8 79V88H30V75C30 73.8954 30.8954 73 32 73H34V88C34 90.2091 32.2091 92 30 92H8C5.79086 92 4 90.2091 4 88V79C4 71.8203 9.8203 66 17 66H34V70H30Z" fill="black"/>
<path d="M65 66C66.1046 66 67 66.8954 67 68C67 69.1046 66.1046 70 65 70V66ZM60 73H62V77H60V73ZM65 70H59V66H65V70ZM53 64V58H57V64H53ZM50 51V65H46V51H50ZM58 73H60V77H58V73ZM50 65C50 69.4183 53.5817 73 58 73V77C51.3726 77 46 71.6274 46 65H50ZM53 58C53 55.2386 50.7614 53 48 53V49C52.9706 49 57 53.0294 57 58H53ZM59 70C55.6863 70 53 67.3137 53 64H57C57 65.1046 57.8954 66 59 66V70Z" fill="black"/>
<circle r="8" transform="matrix(-1 0 0 1 77 58)" stroke="black" stroke-width="4"/>
<path d="M66 70H79C83.9706 70 88 74.0294 88 79V88H66V75C66 73.8954 65.1046 73 64 73H62V88C62 90.2091 63.7909 92 66 92H88C90.2091 92 92 90.2091 92 88V79C92 71.8203 86.1797 66 79 66H62V70H66Z" fill="black"/>
<path d="M43 35H41V37H43V35ZM53 35V37H55V35H53ZM43 37H53V33H43V37ZM55 35V34.0524H51V35H55ZM57.1241 27.7142L58.2573 26.2133L55.0651 23.803L53.9319 25.3039L57.1241 27.7142ZM37.7518 25.6924L39.0648 27.6245L42.3732 25.3763L41.0602 23.4442L37.7518 25.6924ZM41 33.9155V35H45V33.9155H41ZM39.0648 27.6245C40.3258 29.4802 41 31.672 41 33.9155H45C45 30.8702 44.0848 27.8951 42.3732 25.3763L39.0648 27.6245ZM40.1045 8.91558C35.1233 13.0711 34.1058 20.327 37.7518 25.6924L41.0602 23.4442C38.5703 19.7801 39.2652 14.825 42.6669 11.9871L40.1045 8.91558ZM55.8839 8.60858C51.202 5.00311 44.6427 5.12953 40.1045 8.91558L42.6669 11.9871C45.7656 9.40197 50.2455 9.31511 53.4434 11.7778L55.8839 8.60858ZM58.2573 26.2133C62.4293 20.6878 61.3685 12.8322 55.8839 8.60858L53.4434 11.7778C57.1904 14.6633 57.9142 20.0296 55.0651 23.803L58.2573 26.2133ZM55 34.0524C55 31.7649 55.7457 29.5398 57.1241 27.7142L53.9319 25.3039C52.0293 27.8237 51 30.895 51 34.0524H55Z" fill="black"/>
<path d="M27 21L19 21" stroke="black" stroke-width="4" stroke-linecap="round" stroke-linejoin="round"/>
<path d="M29.3613 14L25.3613 10" stroke="black" stroke-width="4" stroke-linecap="round" stroke-linejoin="round"/>
<path d="M26.3613 31L29.3613 28" stroke="black" stroke-width="4" stroke-linecap="round" stroke-linejoin="round"/>
<path d="M69.3613 21L77.3613 21" stroke="black" stroke-width="4" stroke-linecap="round" stroke-linejoin="round"/>
<path d="M67 14L71 10" stroke="black" stroke-width="4" stroke-linecap="round" stroke-linejoin="round"/>
<path d="M70 31L67 28" stroke="black" stroke-width="4" stroke-linecap="round" stroke-linejoin="round"/>
</svg>
