<svg width="113" height="63" fill="none" xmlns="http://www.w3.org/2000/svg"><ellipse cx="2.69" cy="3.531" rx="2.69" ry="2.648" fill="#364B74"/><ellipse cx="2.69" cy="17.656" rx="2.69" ry="2.648" fill="#364B74"/><ellipse cx="2.69" cy="31.781" rx="2.69" ry="2.648" fill="#364B74"/><ellipse cx="2.69" cy="45.906" rx="2.69" ry="2.648" fill="#364B74"/><ellipse cx="2.69" cy="60.031" rx="2.69" ry="2.648" fill="#364B74"/><ellipse cx="20.627" cy="3.531" rx="2.69" ry="2.648" fill="#364B74"/><ellipse cx="20.627" cy="17.656" rx="2.69" ry="2.648" fill="#364B74"/><ellipse cx="20.627" cy="31.781" rx="2.69" ry="2.648" fill="#364B74"/><ellipse cx="20.627" cy="45.906" rx="2.69" ry="2.648" fill="#364B74"/><ellipse cx="20.627" cy="60.031" rx="2.69" ry="2.648" fill="#364B74"/><ellipse cx="38.563" cy="3.531" rx="2.69" ry="2.648" fill="#364B74"/><ellipse cx="38.563" cy="17.656" rx="2.69" ry="2.648" fill="#364B74"/><ellipse cx="38.563" cy="31.781" rx="2.69" ry="2.648" fill="#364B74"/><ellipse cx="38.563" cy="45.906" rx="2.69" ry="2.648" fill="#364B74"/><ellipse cx="38.563" cy="60.031" rx="2.69" ry="2.648" fill="#364B74"/><ellipse cx="56.5" cy="3.531" rx="2.69" ry="2.648" fill="#364B74"/><ellipse cx="56.5" cy="17.656" rx="2.69" ry="2.648" fill="#364B74"/><ellipse cx="56.5" cy="31.781" rx="2.69" ry="2.648" fill="#364B74"/><ellipse cx="56.5" cy="45.906" rx="2.69" ry="2.648" fill="#364B74"/><ellipse cx="56.5" cy="60.031" rx="2.69" ry="2.648" fill="#364B74"/><ellipse cx="74.437" cy="3.531" rx="2.69" ry="2.648" fill="#364B74"/><ellipse cx="74.437" cy="17.656" rx="2.69" ry="2.648" fill="#364B74"/><ellipse cx="74.437" cy="31.781" rx="2.69" ry="2.648" fill="#364B74"/><ellipse cx="74.437" cy="45.906" rx="2.69" ry="2.648" fill="#364B74"/><ellipse cx="74.437" cy="60.031" rx="2.69" ry="2.648" fill="#364B74"/><ellipse cx="92.373" cy="3.531" rx="2.69" ry="2.648" fill="#364B74"/><ellipse cx="92.373" cy="17.656" rx="2.69" ry="2.648" fill="#364B74"/><ellipse cx="92.373" cy="31.781" rx="2.69" ry="2.648" fill="#364B74"/><ellipse cx="92.373" cy="45.906" rx="2.69" ry="2.648" fill="#364B74"/><ellipse cx="92.373" cy="60.031" rx="2.69" ry="2.648" fill="#364B74"/><ellipse cx="110.31" cy="3.531" rx="2.69" ry="2.648" fill="#364B74"/><ellipse cx="110.31" cy="17.656" rx="2.69" ry="2.648" fill="#364B74"/><ellipse cx="110.31" cy="31.781" rx="2.69" ry="2.648" fill="#364B74"/><ellipse cx="110.31" cy="45.906" rx="2.69" ry="2.648" fill="#364B74"/><ellipse cx="110.31" cy="60.031" rx="2.69" ry="2.648" fill="#364B74"/><circle cx="3.531" cy="2.648" r="2.648" fill="#fff"/><circle cx="3.531" cy="16.773" r="2.648" fill="#fff"/><circle cx="3.531" cy="30.898" r="2.648" fill="#fff"/><circle cx="3.531" cy="45.023" r="2.648" fill="#fff"/><circle cx="3.531" cy="59.148" r="2.648" fill="#fff"/><circle cx="21.188" cy="2.648" r="2.648" fill="#fff"/><circle cx="21.188" cy="16.773" r="2.648" fill="#fff"/><circle cx="21.188" cy="30.898" r="2.648" fill="#fff"/><circle cx="21.188" cy="45.023" r="2.648" fill="#fff"/><circle cx="21.188" cy="59.148" r="2.648" fill="#fff"/><circle cx="38.844" cy="2.648" r="2.648" fill="#fff"/><circle cx="38.844" cy="16.773" r="2.648" fill="#fff"/><circle cx="38.844" cy="30.898" r="2.648" fill="#fff"/><circle cx="38.844" cy="45.023" r="2.648" fill="#fff"/><circle cx="38.844" cy="59.148" r="2.648" fill="#fff"/><circle cx="56.5" cy="2.648" r="2.648" fill="#fff"/><circle cx="56.5" cy="16.773" r="2.648" fill="#fff"/><circle cx="56.5" cy="30.898" r="2.648" fill="#fff"/><circle cx="56.5" cy="45.023" r="2.648" fill="#fff"/><circle cx="56.5" cy="59.148" r="2.648" fill="#fff"/><circle cx="74.156" cy="2.648" r="2.648" fill="#fff"/><circle cx="74.156" cy="16.773" r="2.648" fill="#fff"/><circle cx="74.156" cy="30.898" r="2.648" fill="#fff"/><circle cx="74.156" cy="45.023" r="2.648" fill="#fff"/><circle cx="74.156" cy="59.148" r="2.648" fill="#fff"/><circle cx="91.813" cy="2.648" r="2.648" fill="#fff"/><circle cx="91.813" cy="16.773" r="2.648" fill="#fff"/><circle cx="91.813" cy="30.898" r="2.648" fill="#fff"/><circle cx="91.813" cy="45.023" r="2.648" fill="#fff"/><circle cx="91.813" cy="59.148" r="2.648" fill="#fff"/><circle cx="109.469" cy="2.648" r="2.648" fill="#fff"/><circle cx="109.469" cy="16.773" r="2.648" fill="#fff"/><circle cx="109.469" cy="30.898" r="2.648" fill="#fff"/><circle cx="109.469" cy="45.023" r="2.648" fill="#fff"/><circle cx="109.469" cy="59.148" r="2.648" fill="#fff"/></svg>