<svg width="235" height="219" viewBox="0 0 235 219" fill="none" xmlns="http://www.w3.org/2000/svg"><path fill-rule="evenodd" clip-rule="evenodd" d="M126.445 21.252c27.236 2.648 38.676 32.781 56.466 53.398 19.251 22.311 53.319 39.434 48.655 68.428-4.762 29.604-40.854 39.424-68.096 52.433-27.247 13.011-55.665 31.06-83.818 20.108-29.907-11.633-48.456-42.167-53.678-73.593-4.867-29.287 9.122-56.995 28.171-79.894 18.572-22.325 43.25-43.704 72.3-40.88Z" fill="#5FEEA9"/><path fill-rule="evenodd" clip-rule="evenodd" d="M0 194c0-1.657 1.325-3 2.959-3H232.04c1.634 0 2.959 1.343 2.959 3s-1.325 3-2.959 3H2.959C1.325 197 0 195.657 0 194Z" fill="#000"/><path fill-rule="evenodd" clip-rule="evenodd" d="M80.629 36.949a10.607 10.607 0 0 0-8.125 3.79L42.429 76.58a10.63 10.63 0 0 0-2.487 6.832v110.613a2.973 2.973 0 0 1-2.97 2.974A2.973 2.973 0 0 1 34 194.026V83.413c0-3.9 1.373-7.673 3.879-10.659l30.075-35.841A16.546 16.546 0 0 1 80.629 31h42.4A2.973 2.973 0 0 1 126 33.974a2.973 2.973 0 0 1-2.971 2.975h-42.4Z" fill="#000"/><path fill-rule="evenodd" clip-rule="evenodd" d="M159.674 5.948c-2.81 0-5.505 1.119-7.491 3.11l-31.147 31.227a10.634 10.634 0 0 0-3.103 7.51v146.231a2.97 2.97 0 0 1-2.967 2.974 2.97 2.97 0 0 1-2.966-2.974V47.796c0-4.395 1.741-8.61 4.841-11.717l31.147-31.226A16.505 16.505 0 0 1 159.674 0h24.799C193.601 0 201 7.418 201 16.569v177.457a2.97 2.97 0 0 1-2.966 2.974 2.97 2.97 0 0 1-2.967-2.974V16.569c0-5.866-4.743-10.621-10.594-10.621h-24.799Z" fill="#000"/><path fill-rule="evenodd" clip-rule="evenodd" d="M172.192 28.828v4.344h4.616v-4.344h-4.616ZM169.538 23c-1.954 0-3.538 1.491-3.538 3.33v9.34c0 1.839 1.584 3.33 3.538 3.33h9.924c1.954 0 3.538-1.491 3.538-3.33v-9.34c0-1.839-1.584-3.33-3.538-3.33h-9.924ZM172.192 61.192v4.616h4.616v-4.616h-4.616ZM169.538 55A3.538 3.538 0 0 0 166 58.538v9.924A3.538 3.538 0 0 0 169.538 72h9.924A3.538 3.538 0 0 0 183 68.462v-9.924A3.538 3.538 0 0 0 179.462 55h-9.924ZM172.192 93.828v4.344h4.616v-4.344h-4.616ZM169.538 88c-1.954 0-3.538 1.491-3.538 3.33v9.34c0 1.839 1.584 3.33 3.538 3.33h9.924c1.954 0 3.538-1.491 3.538-3.33v-9.34c0-1.839-1.584-3.33-3.538-3.33h-9.924ZM172.192 126.192v4.616h4.616v-4.616h-4.616ZM169.538 120a3.538 3.538 0 0 0-3.538 3.538v9.924a3.538 3.538 0 0 0 3.538 3.538h9.924a3.538 3.538 0 0 0 3.538-3.538v-9.924a3.538 3.538 0 0 0-3.538-3.538h-9.924ZM91.828 126.192v4.616h4.344v-4.616h-4.344ZM89.33 120c-1.839 0-3.33 1.584-3.33 3.538v9.924c0 1.954 1.491 3.538 3.33 3.538h9.34c1.839 0 3.33-1.584 3.33-3.538v-9.924c0-1.954-1.491-3.538-3.33-3.538h-9.34ZM91.828 93.828v4.344h4.344v-4.344h-4.344ZM89.33 88A3.33 3.33 0 0 0 86 91.33v9.34a3.33 3.33 0 0 0 3.33 3.33h9.34a3.33 3.33 0 0 0 3.33-3.33v-9.34A3.33 3.33 0 0 0 98.67 88h-9.34ZM91.828 61.192v4.616h4.344v-4.616h-4.344ZM89.33 55C87.491 55 86 56.584 86 58.538v9.924C86 70.416 87.491 72 89.33 72h9.34c1.839 0 3.33-1.584 3.33-3.538v-9.924c0-1.954-1.491-3.538-3.33-3.538h-9.34ZM172.192 158.828v4.344h4.616v-4.344h-4.616ZM169.538 153c-1.954 0-3.538 1.491-3.538 3.33v9.34c0 1.839 1.584 3.33 3.538 3.33h9.924c1.954 0 3.538-1.491 3.538-3.33v-9.34c0-1.839-1.584-3.33-3.538-3.33h-9.924ZM91.828 158.828v4.344h4.344v-4.344h-4.344ZM89.33 153a3.33 3.33 0 0 0-3.33 3.33v9.34a3.33 3.33 0 0 0 3.33 3.33h9.34a3.33 3.33 0 0 0 3.33-3.33v-9.34a3.33 3.33 0 0 0-3.33-3.33h-9.34ZM139.828 61.192v4.616h4.344v-4.616h-4.344ZM137.33 55c-1.839 0-3.33 1.584-3.33 3.538v9.924c0 1.954 1.491 3.538 3.33 3.538h9.34c1.839 0 3.33-1.584 3.33-3.538v-9.924c0-1.954-1.491-3.538-3.33-3.538h-9.34ZM139.828 93.828v4.344h4.344v-4.344h-4.344ZM137.33 88a3.33 3.33 0 0 0-3.33 3.33v9.34a3.33 3.33 0 0 0 3.33 3.33h9.34a3.33 3.33 0 0 0 3.33-3.33v-9.34a3.33 3.33 0 0 0-3.33-3.33h-9.34ZM139.828 126.192v4.616h4.344v-4.616h-4.344ZM137.33 120c-1.839 0-3.33 1.584-3.33 3.538v9.924c0 1.954 1.491 3.538 3.33 3.538h9.34c1.839 0 3.33-1.584 3.33-3.538v-9.924c0-1.954-1.491-3.538-3.33-3.538h-9.34ZM58.828 126.192v4.616h4.344v-4.616h-4.344ZM56.33 120c-1.839 0-3.33 1.584-3.33 3.538v9.924c0 1.954 1.491 3.538 3.33 3.538h9.34c1.839 0 3.33-1.584 3.33-3.538v-9.924c0-1.954-1.491-3.538-3.33-3.538h-9.34ZM58.828 93.828v4.344h4.344v-4.344h-4.344ZM56.33 88A3.33 3.33 0 0 0 53 91.33v9.34a3.33 3.33 0 0 0 3.33 3.33h9.34a3.33 3.33 0 0 0 3.33-3.33v-9.34A3.33 3.33 0 0 0 65.67 88h-9.34ZM139.828 158.828v4.344h4.344v-4.344h-4.344ZM137.33 153a3.33 3.33 0 0 0-3.33 3.33v9.34a3.33 3.33 0 0 0 3.33 3.33h9.34a3.33 3.33 0 0 0 3.33-3.33v-9.34a3.33 3.33 0 0 0-3.33-3.33h-9.34ZM58.828 158.828v4.344h4.344v-4.344h-4.344ZM56.33 153a3.33 3.33 0 0 0-3.33 3.33v9.34a3.33 3.33 0 0 0 3.33 3.33h9.34a3.33 3.33 0 0 0 3.33-3.33v-9.34a3.33 3.33 0 0 0-3.33-3.33h-9.34ZM218.5 158c1.381 0 2.5 1.345 2.5 3.004v32.992c0 1.659-1.119 3.004-2.5 3.004s-2.5-1.345-2.5-3.004v-32.992c0-1.659 1.119-3.004 2.5-3.004ZM16 178c1.657 0 3 1.331 3 2.972v13.056c0 1.641-1.343 2.972-3 2.972s-3-1.331-3-2.972v-13.056c0-1.641 1.343-2.972 3-2.972Z" fill="#000"/><path fill-rule="evenodd" clip-rule="evenodd" d="M219 158.064a5.064 5.064 0 1 0 0-10.127 5.064 5.064 0 0 0 0 10.127Zm0 5.936c6.075 0 11-4.925 11-11s-4.925-11-11-11-11 4.925-11 11 4.925 11 11 11ZM16 177.064a5.064 5.064 0 1 0 0-10.128 5.064 5.064 0 0 0 0 10.128ZM16 183c6.075 0 11-4.925 11-11s-4.925-11-11-11-11 4.925-11 11 4.925 11 11 11Z" fill="#000"/></svg>