<svg width="120" height="51" viewBox="0 0 120 51" fill="none" xmlns="http://www.w3.org/2000/svg">
<path d="M84.8858 50.7474C87.5638 50.7474 89.7277 48.6571 89.7277 46.07C89.7277 43.4829 87.5638 41.3926 84.8858 41.3926C82.2077 41.3926 80.0438 43.4829 80.0438 46.07C80.0438 48.6571 82.2077 50.7474 84.8858 50.7474Z" fill="#00BD6A"/>
<path fill-rule="evenodd" clip-rule="evenodd" d="M38.5869 31.2519C38.5441 40.8137 32.9737 47.8712 23.7826 50.1892C13.4559 52.7763 2.44371 46.112 0.386951 36.0328C-1.77693 25.3533 5.35745 15.4604 16.2197 13.846C20.9545 13.1423 25.1752 13.8874 29.3529 17.2403C29.3529 10.162 29.3529 0 29.3529 0H38.5869V31.2519ZM30.2956 32.0797C30.2528 26.3882 25.0895 21.4417 19.2191 21.4624C13.3274 21.5038 8.12122 26.533 8.18549 32.1211C8.27119 38.0196 13.4559 42.9868 19.412 42.8833C25.3251 42.7592 30.3385 37.792 30.2956 32.0797Z" fill="#223154"/>
<path d="M52.5981 14.6113H42.9356V50.7476H52.5981V14.6113Z" fill="#223154"/>
<path d="M47.7561 9.35486C50.4341 9.35486 52.598 7.26451 52.598 4.67743C52.598 2.09036 50.4341 0 47.7561 0C45.078 0 42.9141 2.09036 42.9141 4.67743C42.9355 7.26451 45.0994 9.35486 47.7561 9.35486Z" fill="#223154"/>
<path d="M100.589 13.2461C89.8557 13.2461 81.1787 21.6489 81.1787 31.9972C81.1787 34.5843 81.7143 37.0472 82.6999 39.2824C83.3854 39.0754 84.1353 38.972 84.8852 38.972C88.9558 38.972 92.2552 42.1592 92.2552 46.0916C92.2552 47.0229 92.0624 47.8922 91.741 48.6994C94.3977 50.0239 97.3971 50.769 100.589 50.769C111.302 50.769 120 42.3662 120 32.0179C120 21.6282 111.302 13.2461 100.589 13.2461ZM100.589 42.5939C94.5262 42.5939 89.62 37.8543 89.62 31.9972C89.62 26.1401 94.5262 21.4006 100.589 21.4006C106.653 21.4006 111.559 26.1401 111.559 31.9972C111.559 37.8543 106.653 42.5939 100.589 42.5939Z" fill="#223154"/>
<path d="M77.5138 46.0931C77.5138 44.3546 78.178 42.7402 79.2492 41.4984C73.2717 40.8775 71.5149 37.2142 71.5149 32.2885V22.8094H79.5706C81.0703 19.6014 83.3413 16.7867 86.1479 14.6136H71.5149V0.0224609H62.0238V14.6136H56.9248V22.8094H62.0238V32.2885C62.0238 40.6085 65.7946 49.9013 79.2706 50.6877C78.178 49.4459 77.5138 47.8316 77.5138 46.0931Z" fill="#223154"/>
</svg>
