<svg width="237" height="244" viewBox="0 0 237 244" fill="none" xmlns="http://www.w3.org/2000/svg"><path fill-rule="evenodd" clip-rule="evenodd" d="M121.756 28.275c29.737 2.888 42.226 35.761 61.649 58.252 21.019 24.34 58.213 43.019 53.122 74.649-5.199 32.295-44.604 43.008-74.348 57.2-29.748 14.194-60.773 33.883-91.51 21.936-32.652-12.691-52.904-46.001-58.605-80.284-5.314-31.949 9.96-62.176 30.757-87.156 20.276-24.355 47.219-47.678 78.935-44.597Z" fill="#5FEEA9"/><path d="M14.256 57.274c-4.429 0-8.02 3.612-8.02 8.067V183.66c0 4.455 3.591 8.067 8.02 8.067h208.488c4.429 0 8.019-3.612 8.019-8.067V65.342c0-4.456-3.59-8.068-8.019-8.068h-37.866L183.541 51h39.203C230.618 51 237 57.42 237 65.341V183.66c0 7.92-6.382 14.341-14.256 14.341H14.256C6.382 198 0 191.579 0 183.659V65.342C0 57.42 6.382 51 14.256 51h39.203l-1.782 6.274H14.256Z" fill="#000"/><path d="M223 183a4 4 0 1 1-8 0 4 4 0 0 1 8 0Z" fill="#000"/><path fill-rule="evenodd" clip-rule="evenodd" d="M2 171c0-1.657 1.399-3 3.125-3h226.75c1.726 0 3.125 1.343 3.125 3s-1.399 3-3.125 3H5.125C3.399 174 2 172.657 2 171ZM57 218.5c0-1.933 1.407-3.5 3.142-3.5h116.716c1.735 0 3.142 1.567 3.142 3.5s-1.407 3.5-3.142 3.5H60.142c-1.735 0-3.142-1.567-3.142-3.5Z" fill="#000"/><path fill-rule="evenodd" clip-rule="evenodd" d="M77.5 195c1.933 0 3.5 1.405 3.5 3.138v19.724c0 1.733-1.567 3.138-3.5 3.138s-3.5-1.405-3.5-3.138v-19.724c0-1.733 1.567-3.138 3.5-3.138ZM160 195c1.657 0 3 1.405 3 3.138v19.724c0 1.733-1.343 3.138-3 3.138s-3-1.405-3-3.138v-19.724c0-1.733 1.343-3.138 3-3.138ZM118.5 133.797c35.486 0 64.253-28.563 64.253-63.797 0-35.234-28.767-63.797-64.253-63.797-35.486 0-64.253 28.563-64.253 63.797 0 35.234 28.767 63.797 64.253 63.797Zm0 6.203c38.936 0 70.5-31.34 70.5-70S157.436 0 118.5 0 48 31.34 48 70s31.564 70 70.5 70ZM175 158.5c0-1.933 1.396-3.5 3.118-3.5h42.764c1.722 0 3.118 1.567 3.118 3.5s-1.396 3.5-3.118 3.5h-42.764c-1.722 0-3.118-1.567-3.118-3.5ZM209 147c0-1.657 1.383-3 3.088-3h8.824c1.705 0 3.088 1.343 3.088 3s-1.383 3-3.088 3h-8.824c-1.705 0-3.088-1.343-3.088-3ZM187 136c0-1.657 1.414-3 3.159-3h30.682c1.745 0 3.159 1.343 3.159 3s-1.414 3-3.159 3h-30.682c-1.745 0-3.159-1.343-3.159-3Z" fill="#000"/><path fill-rule="evenodd" clip-rule="evenodd" d="M141.457 18.913c-.14-2.26-.135-4.772.55-6.396.302-.718.624-.985.915-1.11.334-.145 1.186-.34 2.984.204a3.1 3.1 0 0 0 3.865-2.096c.492-1.653-.44-3.395-2.081-3.891-2.637-.797-5.091-.88-7.214.037-2.166.935-3.451 2.677-4.184 4.415-1.363 3.236-1.158 7.313-1.015 9.465l.013.204.04.2c.84 4.228 3.068 7.542 4.712 9.986.379.563.727 1.08 1.019 1.552.854 1.375 1.326 2.413 1.478 3.4.138.896.051 2.01-.734 3.59-.607 1.224-1.315 1.83-2.113 2.206-.901.422-2.132.65-3.918.697-1.358.036-2.809-.03-4.491-.106-.563-.025-1.151-.052-1.771-.076-2.391-.095-5.081-.143-7.952.132-4.198.403-7.49 2.943-9.88 5.318-2.434 2.419-4.301 3.43-5.687 3.814-1.325.367-2.476.237-3.678-.172-.999-.34-1.865-.797-2.915-1.352a84.83 84.83 0 0 0-1.252-.652c-1.472-.747-3.485-1.671-5.788-1.575-3.258.136-5.574 2.553-6.517 4.959-1.472 3.756-.446 7.417 1.684 10.353 2.085 2.873 5.342 5.273 9.029 7.058 7.354 3.56 17.431 5.157 26.225 2.373 1.763-.558 3.683.04 4.646 1.288 6.191 8.011 13.67 11.028 19.021 12.384 1.59.403 2.476 1.09 2.902 1.719.383.564.63 1.416.266 2.783-2.4 8.997-7.1 13.77-11.491 17.731-.367.331-.742.665-1.12 1.001-1.821 1.621-3.716 3.308-5.164 5.098-1.865 2.307-3.222 5.037-3.222 8.571 0 2.925-.03 5.034-.186 6.628-.158 1.622-.419 2.332-.625 2.669-.122.198-.31.43-1.039.688-.715.252-1.737.451-3.29.641a6.96 6.96 0 0 1-.219-.49c-.541-1.33-1.044-3.439-1.471-6.167-.843-5.389-1.274-12.396-1.465-18.46a18.39 18.39 0 0 0-8.184-14.713c-2.767-1.842-4.249-2.977-5.053-3.76-.383-.371-.523-.58-.569-.658-.02-.036-.018-.035-.017-.035h.001c-.01-.063-.018-.193 0-.622l.008-.187c.017-.377.042-.909.03-1.497-.031-1.486-.283-3.3-1.163-5.735-.646-1.789-1.854-3.453-3.233-4.944-1.404-1.52-3.138-3.022-5.037-4.472-3.799-2.901-8.486-5.761-13.09-8.288-6.023-3.307-8.496-11.135-5.81-17.9 2.01-5.06 2.965-9.268 3.012-12.687.047-3.416-.82-6.35-2.807-8.356-2.025-2.045-4.714-2.626-7.218-2.324-2.47.298-4.921 1.45-7.013 3.114a3.14 3.14 0 0 0-.513 4.39 3.089 3.089 0 0 0 4.359.516c1.385-1.101 2.79-1.679 3.906-1.813 1.08-.13 1.708.152 2.084.53.412.417 1.028 1.467.995 3.855-.033 2.386-.722 5.803-2.568 10.454-3.712 9.347-.504 20.71 8.603 25.709 4.469 2.453 8.857 5.144 12.31 7.78 1.725 1.318 3.162 2.58 4.243 3.75 1.107 1.198 1.7 2.147 1.944 2.822.652 1.806.774 2.943.79 3.729.007.363-.006.664-.023 1.036l-.011.254c-.019.444-.042 1.093.06 1.792.242 1.661 1.076 2.982 2.416 4.285 1.252 1.217 3.158 2.623 5.941 4.476a12.13 12.13 0 0 1 5.403 9.697c.194 6.14.634 13.456 1.538 19.235.447 2.857 1.037 5.544 1.857 7.562.404.994.955 2.058 1.749 2.898.844.893 2.183 1.731 3.916 1.547 2.112-.223 4.041-.5 5.641-1.065 1.723-.608 3.226-1.604 4.268-3.303.957-1.561 1.334-3.418 1.522-5.34.19-1.949.216-4.361.216-7.241 0-1.721.597-3.103 1.827-4.624 1.097-1.356 2.518-2.624 4.321-4.233.411-.366.841-.75 1.292-1.157 4.739-4.276 10.484-10.043 13.344-20.765.763-2.861.414-5.646-1.135-7.93-1.505-2.22-3.887-3.59-6.513-4.256-4.507-1.142-10.566-3.598-15.637-10.161-2.724-3.525-7.442-4.667-11.407-3.412-6.997 2.215-15.437.977-21.673-2.043-3.11-1.506-5.416-3.333-6.707-5.113-1.245-1.717-1.407-3.134-.922-4.37.13-.334.34-.617.56-.799.21-.174.364-.206.44-.21.576-.024 1.335.2 2.738.913.255.129.54.28.85.444 1.14.604 2.612 1.385 4.122 1.898 2.084.71 4.528 1.05 7.314.278 2.724-.756 5.483-2.494 8.399-5.392 2.068-2.055 4.07-3.349 6.108-3.544 2.454-.235 4.816-.2 7.121-.11.515.021 1.038.045 1.562.069 1.741.08 3.506.16 5.108.117 2.114-.057 4.341-.326 6.376-1.282 2.137-1.003 3.843-2.659 5.042-5.074 1.283-2.585 1.676-5.004 1.315-7.345-.346-2.25-1.353-4.152-2.346-5.753-.488-.787-.971-1.513-1.434-2.21-1.527-2.296-2.843-4.275-3.435-7.048Z" fill="#000"/></svg>