<svg width="96" height="96" viewBox="0 0 96 96" fill="none" xmlns="http://www.w3.org/2000/svg">
<rect width="96" height="96" fill="white"/>
<path fill-rule="evenodd" clip-rule="evenodd" d="M47.2256 12.1005C57.4886 13.157 61.7992 25.18 68.5026 33.4059C75.7569 42.3077 88.594 49.1395 86.8366 60.7079C85.0423 72.5194 71.4423 76.4378 61.1769 81.6282C50.9099 86.8195 40.2021 94.0208 29.5936 89.6512C18.3243 85.0095 11.3349 72.8267 9.36705 60.288C7.53317 48.6031 12.8044 37.5476 19.9823 28.4114C26.9804 19.504 36.2792 10.9737 47.2256 12.1005Z" fill="#5FEEA9"/>
<path d="M21 49H75V81C75 84.3137 72.3137 87 69 87H27C23.6863 87 21 84.3137 21 81V49Z" stroke="black" stroke-width="4"/>
<rect x="14" y="38" width="68" height="11" rx="5.5" stroke="black" stroke-width="4"/>
<rect x="43" y="49" width="11" height="38" stroke="black" stroke-width="4"/>
<rect x="43" y="38" width="11" height="11" stroke="black" stroke-width="4"/>
<path d="M48 49C48 49 42.1559 50.8441 39.5 53.5C36.8441 56.1559 35 62 35 62" stroke="black" stroke-width="4" stroke-linecap="round"/>
<path d="M48 49C48 49 53.8441 50.8441 56.5 53.5C59.1559 56.1559 61 62 61 62" stroke="black" stroke-width="4" stroke-linecap="round"/>
<path d="M34 31C34 27.134 37.134 24 41 24C44.866 24 48 27.134 48 31V38H41C37.134 38 34 34.866 34 31Z" stroke="black" stroke-width="4"/>
<path d="M62 31C62 27.134 58.866 24 55 24C51.134 24 48 27.134 48 31V38H55C58.866 38 62 34.866 62 31Z" stroke="black" stroke-width="4"/>
<path d="M48 16V9" stroke="black" stroke-width="4" stroke-linecap="round"/>
<path d="M38.9999 16.2812L33.9999 11.2814" stroke="black" stroke-width="4" stroke-linecap="round"/>
<path d="M57 16.2813L62 11.2812" stroke="black" stroke-width="4" stroke-linecap="round"/>
</svg>
