<svg width="96" height="96" viewBox="0 0 96 96" fill="none" xmlns="http://www.w3.org/2000/svg">
<rect width="96" height="96" fill="white"/>
<path fill-rule="evenodd" clip-rule="evenodd" d="M53.7149 89.9122C44.2413 88.9895 40.2623 78.4883 34.0746 71.3037C27.3783 63.5287 15.5286 57.5617 17.1508 47.4576C18.8071 37.1413 31.3609 33.7189 40.8367 29.1855C50.3139 24.6514 60.1981 18.3616 69.9905 22.1781C80.3929 26.2322 86.8447 36.8729 88.6612 47.8244C90.354 58.0302 85.4882 67.6863 78.8625 75.666C72.4027 83.4459 63.8192 90.8964 53.7149 89.9122Z" fill="#5FEEA9"/>
<path d="M46.4865 14.2922C47.3808 13.612 48.6192 13.612 49.5135 14.2922L53.316 17.1845C54.8817 18.3754 56.8526 18.9035 58.804 18.655L63.5432 18.0515C64.6578 17.9095 65.7302 18.5287 66.1646 19.565L68.0115 23.971C68.772 25.7852 70.2148 27.228 72.029 27.9885L76.435 29.8354C77.4713 30.2698 78.0905 31.3422 77.9485 32.4568L77.345 37.196C77.0965 39.1474 77.6246 41.1183 78.8155 42.684L81.7078 46.4865C82.388 47.3808 82.388 48.6192 81.7078 49.5135L78.8155 53.316C77.6246 54.8817 77.0965 56.8526 77.345 58.804L77.9485 63.5432C78.0905 64.6578 77.4713 65.7302 76.435 66.1646L72.029 68.0115C70.2148 68.772 68.772 70.2148 68.0115 72.029L66.1646 76.435C65.7302 77.4713 64.6578 78.0905 63.5432 77.9485L58.804 77.345C56.8526 77.0965 54.8817 77.6246 53.316 78.8155L49.5135 81.7078C48.6192 82.388 47.3808 82.388 46.4865 81.7078L42.684 78.8155C41.1183 77.6246 39.1474 77.0965 37.196 77.345L32.4568 77.9485C31.3422 78.0905 30.2698 77.4713 29.8354 76.435L27.9885 72.029C27.228 70.2148 25.7852 68.772 23.971 68.0115L19.565 66.1646C18.5287 65.7302 17.9095 64.6578 18.0515 63.5432L18.655 58.804C18.9035 56.8526 18.3754 54.8817 17.1845 53.316L14.2922 49.5135C13.612 48.6192 13.612 47.3808 14.2922 46.4865L17.1845 42.684C18.3754 41.1183 18.9035 39.1474 18.655 37.196L18.0515 32.4568C17.9095 31.3422 18.5287 30.2698 19.565 29.8354L23.971 27.9885C25.7852 27.228 27.228 25.7852 27.9885 23.971L29.8354 19.565C30.2698 18.5287 31.3422 17.9095 32.4568 18.0515L37.196 18.655C39.1474 18.9035 41.1183 18.3754 42.684 17.1845L46.4865 14.2922Z" stroke="black" stroke-width="5"/>
<circle cx="38" cy="38" r="5.5" stroke="black" stroke-width="5"/>
<circle cx="58" cy="58" r="5.5" stroke="black" stroke-width="5"/>
<path d="M40.5 66L56.5 30" stroke="black" stroke-width="5" stroke-linecap="round" stroke-linejoin="round"/>
</svg>
