<svg xmlns="http://www.w3.org/2000/svg" width="96" height="96" viewBox="0 0 96 96" fill="none">
  <rect width="96" height="96" fill="white"/>
  <path fill-rule="evenodd" clip-rule="evenodd" d="M20.0916 55.2446C21.0545 45.3764 32.0122 41.2316 39.5092 34.786C47.6222 27.8107 53.8487 15.4673 64.392 17.1571C75.1569 18.8824 78.7281 31.9593 83.4586 41.8299C88.1899 51.702 94.7531 61.998 90.7707 72.1985C86.5403 83.0343 75.437 89.7549 64.0094 91.6471C53.3598 93.4104 43.2839 88.3419 34.9572 81.4401C26.8391 74.7112 19.0647 65.77 20.0916 55.2446Z" fill="#5FEEA9"/>
  <path fill-rule="evenodd" clip-rule="evenodd" d="M43.0742 34.7901C43.2948 34.7251 43.4863 34.586 43.6163 34.3962L47.1751 29.2035C47.5723 28.6239 48.4277 28.6239 48.8249 29.2035L52.3837 34.3962C52.5137 34.586 52.7052 34.7251 52.9258 34.7901L58.9642 36.5701C59.6381 36.7688 59.9024 37.5822 59.474 38.1391L55.6351 43.1284C55.4948 43.3107 55.4217 43.5358 55.428 43.7657L55.6011 50.0585C55.6204 50.7609 54.9284 51.2636 54.2664 51.0282L48.3351 48.919C48.1183 48.842 47.8817 48.842 47.665 48.919L41.7336 51.0282C41.0716 51.2636 40.3796 50.7609 40.3989 50.0585L40.572 43.7657C40.5783 43.5358 40.5052 43.3107 40.3649 43.1284L36.5261 38.1391C36.0976 37.5822 36.3619 36.7688 37.0359 36.5701L43.0742 34.7901ZM46.9158 36.6575L48 35.0755L49.0842 36.6575C49.7344 37.6062 50.6917 38.3017 51.7948 38.6269L53.6344 39.1692L52.4649 40.6892C51.7636 41.6007 51.3979 42.726 51.4295 43.8757L51.4823 45.7928L49.6752 45.1502C48.5917 44.7649 47.4084 44.7649 46.3248 45.1502L44.5177 45.7928L44.5705 43.8757C44.6021 42.726 44.2364 41.6007 43.5351 40.6892L42.3656 39.1692L44.2052 38.6269C45.3083 38.3017 46.2656 37.6062 46.9158 36.6575Z" fill="black"/>
  <path fill-rule="evenodd" clip-rule="evenodd" d="M35.4554 11L35.0231 11.2543C34.9981 11.2683 34.9735 11.2828 34.9492 11.2977L17.3064 21.6759L8.54262 51.2536L26 57.415V85H70V57.415L87.4574 51.2536L78.678 21.623L58.9696 11.2502C58.9449 11.2365 58.9198 11.2233 58.8943 11.2106L58.4942 11H58.0289C58.008 10.9997 57.9872 10.9997 57.9665 11H36.0335C36.0128 10.9997 35.992 10.9997 35.9711 11H35.4554ZM20.6936 24.3241L34.7724 16.0425C38.9751 26.9839 55.1508 26.9461 59.2707 15.9289L75.322 24.377L82.5426 48.7464L70 53.1732V36C70 34.8954 69.1046 34 68 34C66.8954 34 66 34.8954 66 36V55.9534C65.9993 55.9844 65.9993 56.0155 66 56.0466V81H30V56.0465C30.0007 56.0154 30.0007 55.9844 30 55.9535V36C30 34.8954 29.1046 34 28 34C26.8954 34 26 34.8954 26 36V53.1732L13.4574 48.7464L20.6936 24.3241ZM38.6828 15H55.3172C52.1949 21.9604 41.8051 21.9604 38.6828 15Z" fill="black"/>
</svg>