<svg width="96" height="96" viewBox="0 0 96 96" fill="none" xmlns="http://www.w3.org/2000/svg">
<rect width="96" height="96" fill="white"/>
<path fill-rule="evenodd" clip-rule="evenodd" d="M19.0916 55.2446C20.0545 45.3764 31.0122 41.2316 38.5092 34.786C46.6222 27.8107 52.8487 15.4673 63.392 17.1571C74.1569 18.8824 77.7282 31.9593 82.4586 41.8299C87.1899 51.702 93.7531 61.998 89.7707 72.1985C85.5403 83.0343 74.437 89.7549 63.0094 91.6471C52.3598 93.4104 42.2839 88.3419 33.9572 81.4401C25.8391 74.7112 18.0647 65.77 19.0916 55.2446Z" fill="#5FEEA9"/>
<path fill-rule="evenodd" clip-rule="evenodd" d="M58.4409 60.9138C71.6958 60.9138 82.4409 50.1687 82.4409 36.9138C82.4409 23.659 71.6958 12.9138 58.4409 12.9138C45.1861 12.9138 34.4409 23.659 34.4409 36.9138C34.4409 50.1687 45.1861 60.9138 58.4409 60.9138ZM58.4409 64.9138C73.9049 64.9138 86.4409 52.3778 86.4409 36.9138C86.4409 21.4498 73.9049 8.91382 58.4409 8.91382C42.9769 8.91382 30.4409 21.4498 30.4409 36.9138C30.4409 52.3778 42.9769 64.9138 58.4409 64.9138Z" fill="black"/>
<path d="M64.0837 29.1473L58.441 24.9138L52.7983 29.1473L47.0283 33.2056L49.3109 39.8804L51.3876 46.622L58.441 46.5138L65.4944 46.622L67.5711 39.8804L69.8537 33.2056L64.0837 29.1473Z" fill="black"/>
<path d="M37.7379 35.0761L44.2255 32.306L43.3807 25.3026L42.751 18.2765L39.0348 21.6225L39.4021 25.7207L39.8949 29.8057L36.1108 31.4215L32.378 33.1525L31.3383 38.0438L37.7379 35.0761Z" fill="black"/>
<path d="M79.2397 36.0747L73.3864 32.1376L75.5292 25.4166L77.4648 18.6332L80.4879 22.6165L79.3588 26.5732L78.1089 30.4934L81.5231 32.7899L84.8652 35.19L84.9695 40.1895L79.2397 36.0747Z" fill="black"/>
<path d="M53.2396 17.0746L47.3862 13.1375L52.1088 11.4933L55.523 13.7898L58.8651 16.1899L62.1042 13.6525L65.4196 11.2157L70.2066 12.6614L64.5226 16.8392L58.9694 21.1894L53.2396 17.0746Z" fill="black"/>
<path d="M53.0193 61.965L50.8149 55.264L48.8171 48.4986L41.7629 48.5244L34.7112 48.3338L37.603 52.4134L41.7162 52.5246L45.8308 52.5095L46.9961 56.4557L48.2819 60.3643L53.0193 61.965Z" fill="black"/>
<path d="M82.8174 48.4985L75.7632 48.5243L68.7115 48.3337L66.5562 55.0506L64.1958 61.6983L68.9694 60.2087L70.3461 56.3312L71.6033 52.4133L75.7164 52.5245L79.831 52.5095L82.8174 48.4985Z" fill="black"/>
<path fill-rule="evenodd" clip-rule="evenodd" d="M58.4409 16.9138C59.5455 16.9138 60.4409 17.4817 60.4409 18.1821V28.6455C60.4409 29.346 59.5455 29.9138 58.4409 29.9138C57.3363 29.9138 56.4409 29.346 56.4409 28.6455V18.1821C56.4409 17.4817 57.3363 16.9138 58.4409 16.9138Z" fill="black"/>
<path fill-rule="evenodd" clip-rule="evenodd" d="M40.6025 30.1261C41.0376 29.1108 42.2134 28.6405 43.2287 29.0756L50.2287 32.0756C51.2439 32.5107 51.7142 33.6865 51.2791 34.7017C50.844 35.717 49.6682 36.1873 48.653 35.7522L41.653 32.7522C40.6377 32.3171 40.1674 31.1413 40.6025 30.1261Z" fill="black"/>
<path d="M54.2209 46.259C54.964 45.4417 54.9037 44.1768 54.0864 43.4338C53.2691 42.6908 52.0042 42.751 51.2612 43.5684L44.8164 50.6576L47.941 53.167L54.2209 46.259Z" fill="black"/>
<path d="M63.2611 46.2592C62.5181 45.4419 62.5783 44.177 63.3956 43.434C64.2129 42.691 65.4778 42.7512 66.2209 43.5686L71.9893 49.9138L69.4409 53.0571L63.2611 46.2592Z" fill="black"/>
<path fill-rule="evenodd" clip-rule="evenodd" d="M77.243 30.6463C76.8937 29.5984 76.0818 28.9252 75.4295 29.1427L66.0921 32.2551C65.4398 32.4726 65.1942 33.4983 65.5435 34.5462C65.8928 35.5941 66.7047 36.2673 67.357 36.0499L76.6944 32.9374C77.3467 32.72 77.5923 31.6942 77.243 30.6463Z" fill="black"/>
<path d="M30 55L13 72" stroke="black" stroke-width="4" stroke-linecap="round" stroke-linejoin="round"/>
<path d="M27 46L16 57" stroke="black" stroke-width="4" stroke-linecap="round" stroke-linejoin="round"/>
<path d="M36 62L12 86" stroke="black" stroke-width="4" stroke-linecap="round" stroke-linejoin="round"/>
<path d="M44 67L32 79" stroke="black" stroke-width="4" stroke-linecap="round" stroke-linejoin="round"/>
<path d="M54 70L46 78" stroke="black" stroke-width="4" stroke-linecap="round" stroke-linejoin="round"/>
</svg>
