<svg width="96" height="96" viewBox="0 0 96 96" fill="none" xmlns="http://www.w3.org/2000/svg">
<rect width="96" height="96" fill="white"/>
<path fill-rule="evenodd" clip-rule="evenodd" d="M20.0916 55.2446C21.0545 45.3764 32.0122 41.2316 39.5092 34.786C47.6222 27.8107 53.8487 15.4673 64.392 17.1571C75.1569 18.8824 78.7282 31.9593 83.4586 41.8299C88.1899 51.702 94.7531 61.998 90.7707 72.1985C86.5403 83.0343 75.437 89.7549 64.0094 91.6471C53.3598 93.4104 43.2839 88.3419 34.9572 81.4401C26.8391 74.7112 19.0647 65.77 20.0916 55.2446Z" fill="#5FEEA9"/>
<path fill-rule="evenodd" clip-rule="evenodd" d="M11.1383 63.7015C11.2859 62.7233 12.1266 62 13.1159 62H83.1159C84.1008 62 84.9391 62.7171 85.0917 63.6901L83.1159 64C85.0917 63.6901 85.092 63.6916 85.0922 63.6933L85.0928 63.697L85.0942 63.7064L85.098 63.7321C85.1009 63.7523 85.1046 63.7787 85.1089 63.8111C85.1175 63.876 85.1284 63.9648 85.1402 64.0761C85.1637 64.2985 85.1908 64.6113 85.2093 65.0017C85.2464 65.7816 85.2499 66.8775 85.122 68.1867C84.8666 70.8004 84.0823 74.3088 81.9543 77.8439C77.6163 85.0506 68.0999 91.744 48.1415 91.9998C28.1567 92.2561 18.6124 85.5606 14.2688 78.2044C12.1435 74.6052 11.3631 71.0046 11.1092 68.3213C10.9819 66.9762 10.9855 65.8483 11.0223 65.046C11.0407 64.6444 11.0675 64.3228 11.0908 64.0946C11.1024 63.9805 11.1132 63.8896 11.1216 63.8236C11.1258 63.7905 11.1294 63.7637 11.1322 63.7433L11.1359 63.7175L11.1373 63.7083L11.1378 63.7046C11.1381 63.703 11.1383 63.7015 13.1159 64L11.1383 63.7015ZM15 66C14.9989 66.5468 15.0213 67.2043 15.0914 67.9444C15.3062 70.2141 15.9634 73.2073 17.7131 76.1706C21.1195 81.9395 29.0753 88.2439 48.0902 88.0002C67.1317 87.756 75.1153 81.4494 78.5273 75.7811C80.2744 72.8787 80.9276 69.9809 81.141 67.7977C81.2075 67.1169 81.2308 66.51 81.2317 66H15Z" fill="black"/>
<path d="M49.4113 42.3948C45.8714 41.1213 41.8705 41.0839 38.0988 42.5806C34.9309 43.8378 32.3875 45.9936 30.645 48.6391L35.145 49.3502C36.3331 48.0498 37.827 46.9919 39.5743 46.2985L49.4113 42.3948Z" fill="black"/>
<path d="M38.8365 44.4397L69.5095 32.2673" stroke="black" stroke-width="4" stroke-linecap="round"/>
<path d="M79.1 56.4338C85.26 53.9892 88.272 47.0137 85.8275 40.8536C83.3829 34.6935 76.4074 31.6815 70.2473 34.1261L60.4103 38.0299C62.1137 34.6756 65.0002 31.905 68.7719 30.4082C76.9853 27.1487 86.2859 31.1647 89.5454 39.3782C92.8048 47.5916 88.7888 56.8923 80.5754 60.1517C76.6282 61.7181 72.4299 61.6042 68.7717 60.1517L67.8891 55.1794C71.0722 57.3567 75.2457 57.9633 79.1 56.4338Z" fill="black"/>
<circle cx="73.1981" cy="41.5622" r="2" transform="rotate(-21.6454 73.1981 41.5622)" fill="black"/>
<circle cx="70.9556" cy="46.7555" r="2" transform="rotate(-21.6454 70.9556 46.7555)" fill="black"/>
<circle cx="78.3915" cy="43.8046" r="2" transform="rotate(-21.6454 78.3915 43.8046)" fill="black"/>
<circle cx="76.149" cy="48.998" r="2" transform="rotate(-21.6454 76.149 48.998)" fill="black"/>
<path d="M46.8404 37.4977C46.1274 35.701 47.0059 33.6665 48.8026 32.9535L53.45 31.1092C55.2467 30.3962 57.2812 31.2747 57.9942 33.0714L59.2852 36.3246L48.1314 40.7509L46.8404 37.4977Z" stroke="black" stroke-width="4"/>
<path d="M27.8121 39.0804C32.1485 37.49 36.5802 41.1904 35.7893 45.741L35.049 50L31.076 49.5L31.8484 45.056C32.112 43.5391 30.6348 42.3057 29.1893 42.8358L12.8362 48.833C11.3908 49.3631 11.0612 51.2592 12.243 52.246L24.5 62.4799L20.6783 64.5L9.67934 55.3164C6.1339 52.3561 7.12259 46.6679 11.459 45.0776L27.8121 39.0804Z" fill="black"/>
<path d="M46.6412 48.7735C51.2399 49.2041 53.6479 54.4515 50.9756 58.2188L45.9369 65.3222L42.6744 63.008L47.7131 55.9045C48.6038 54.6488 47.8012 52.8996 46.2683 52.7561L28.926 51.1322C27.3931 50.9887 26.2797 52.5584 26.9218 53.9577L31.4999 63.9338L27.3587 64.5L23.2864 55.626C21.3599 51.4281 24.7003 46.719 29.299 47.1496L46.6412 48.7735Z" fill="black"/>
<path d="M54.8679 54.6886C55.9067 50.1881 61.4279 48.4999 64.806 51.6498L77.5453 63.5284L73.2581 64.9999L62.0781 54.5753C60.9521 53.5253 59.1117 54.0881 58.7654 55.5882L56.7084 64.4999L52.663 64.2408L54.8679 54.6886Z" fill="black"/>
<path fill-rule="evenodd" clip-rule="evenodd" d="M41.1405 18.705C44.9065 21.379 44.3655 27.1271 40.1668 29.0515L24.3326 36.3089C20.1338 38.2333 15.4263 34.8907 15.859 30.2923L17.4911 12.9508C17.9239 8.35229 23.1724 5.94675 26.9384 8.6208L41.1405 18.705ZM38.5001 25.4153C39.8997 24.7738 40.0801 22.8578 38.8247 21.9664L24.6226 11.8823C23.3673 10.9909 21.6178 11.7928 21.4735 13.3256L19.8414 30.6671C19.6972 32.1999 21.2663 33.3141 22.6659 32.6726L38.5001 25.4153Z" fill="black"/>
<path d="M13.5 71.5H82" stroke="black" stroke-width="4" stroke-linecap="round" stroke-linejoin="round"/>
<path d="M51 32L50.0869 30.0217C48.9392 27.5349 50.048 24.5898 52.5508 23.4774L54.2396 22.7268C55.7679 22.0476 57.558 22.7275 58.25 24.25V24.25C58.942 25.7725 60.7321 26.4524 62.2604 25.7732L68.5 23" stroke="black" stroke-width="4" stroke-linecap="round" stroke-linejoin="round"/>
<circle cx="26.5" cy="16.5" r="1.5" fill="black"/>
<circle cx="24.5" cy="21.5" r="1.5" fill="black"/>
<circle cx="34.5" cy="23.5" r="1.5" fill="black"/>
<circle cx="29.5" cy="23.5" r="1.5" fill="black"/>
<circle cx="23.5" cy="27.5" r="1.5" fill="black"/>
<circle cx="16.5" cy="50.5" r="1.5" fill="black"/>
<circle cx="20.5" cy="53.5" r="1.5" fill="black"/>
<circle cx="23.5" cy="49.5" r="1.5" fill="black"/>
<circle cx="22.5" cy="57.5" r="1.5" fill="black"/>
<circle cx="27.5" cy="46.5" r="1.5" fill="black"/>
<circle cx="65.5" cy="61.5" r="1.5" fill="black"/>
<circle cx="61.5" cy="59.5" r="1.5" fill="black"/>
<circle cx="31.5" cy="54.5" r="1.5" fill="black"/>
<circle cx="38.1175" cy="58.1174" r="1.5" transform="rotate(41.5063 38.1175 58.1174)" fill="black"/>
<circle cx="42.5" cy="55.5" r="1.5" fill="black"/>
<circle cx="32.5" cy="58.5" r="1.5" fill="black"/>
</svg>
