<svg width="96" height="96" viewBox="0 0 96 96" fill="none" xmlns="http://www.w3.org/2000/svg">
<rect width="96" height="96" fill="white"/>
<path fill-rule="evenodd" clip-rule="evenodd" d="M20.0916 55.2446C21.0545 45.3764 32.0122 41.2316 39.5092 34.786C47.6222 27.8107 53.8487 15.4673 64.392 17.1571C75.1569 18.8824 78.7282 31.9593 83.4586 41.8299C88.1899 51.702 94.7531 61.998 90.7707 72.1985C86.5403 83.0343 75.437 89.7549 64.0094 91.6471C53.3598 93.4104 43.2839 88.3419 34.9572 81.4401C26.8391 74.7112 19.0647 65.77 20.0916 55.2446Z" fill="#5FEEA9"/>
<path d="M28 36V83H68V36" stroke="black" stroke-width="4" stroke-linecap="round"/>
<path d="M28 56L11 50L19 23L36 13H58L77 23L85 50L68 56" stroke="black" stroke-width="4" stroke-linecap="round"/>
<path d="M36 13V13C38.1811 25.2936 55.8189 25.2936 58 13V13" stroke="black" stroke-width="4" stroke-linecap="round"/>
<path d="M55.6351 43.1285L54.05 41.9089L56.9991 38.076L52.3603 36.7086L52.9258 34.7902L52.3603 36.7086C51.6984 36.5135 51.124 36.0962 50.734 35.527L55.6351 43.1285ZM55.6351 43.1285L54.05 41.9089C53.6292 42.4558 53.4098 43.131 53.4288 43.8208L53.5617 48.6551L49.0051 47.0347C48.355 46.8035 47.645 46.8035 46.9949 47.0347L42.4383 48.6551L42.5712 43.8208C42.5902 43.131 42.3708 42.4558 41.95 41.9089L40.4679 43.0493L41.95 41.9089L39.0009 38.076L43.6397 36.7086L43.0742 34.7902L43.6397 36.7086C44.3016 36.5135 44.876 36.0962 45.266 35.527L48 31.5378L50.7339 35.527L55.6351 43.1285ZM48.8249 30.3342C48.8247 30.3345 48.8245 30.3348 48.8243 30.3351L48.8249 30.3342L48 29.7689L48.8249 30.3342Z" stroke="black" stroke-width="4"/>
</svg>
