<svg width="96" height="96" viewBox="0 0 96 96" fill="none" xmlns="http://www.w3.org/2000/svg">
<rect width="96" height="96" fill="white"/>
<path fill-rule="evenodd" clip-rule="evenodd" d="M9.10053 53.7744C10.157 43.5114 22.18 39.2008 30.4059 32.4974C39.3077 25.2431 46.1395 12.406 57.7079 14.1634C69.5194 15.9577 73.4378 29.5577 78.6282 39.8231C83.8194 50.0901 91.0208 60.7979 86.6512 71.4064C82.0095 82.6757 69.8267 89.6651 57.288 91.6329C45.6031 93.4668 34.5476 88.1956 25.4114 81.0177C16.504 74.0196 7.97374 64.7208 9.10053 53.7744Z" fill="#5FEEA9"/>
<path d="M73 53L78.5 47.5M75.5 60.5H83M73 68L78.5 74" stroke="black" stroke-width="4" stroke-linecap="round" stroke-linejoin="round"/>
<path fill-rule="evenodd" clip-rule="evenodd" d="M19.7862 17.2181C21.051 12.7916 26.5522 10.6315 30.4998 13L32.9531 14.8395C36.1502 16.7578 37.2826 20.8454 35.5284 24.1354L28.8983 36.5701C28.172 37.9323 28.598 39.6232 29.883 40.4787L44.9945 50.5394C45.3925 50.8044 45.86 50.9457 46.3382 50.9457H48.5958C54.4432 50.9457 59.5044 55.011 60.7656 60.7207C61.1375 62.4045 59.8559 64.0001 58.1316 64.0001H44.2336C43.0993 64.0001 41.9819 63.7244 40.9777 63.1968L16.1686 50.1615C13.2335 48.6193 11.783 45.2297 12.6938 42.0417L19.7862 17.2181ZM28.0604 16.5687C26.3686 15.5536 24.1744 16.4199 23.6323 18.317L16.5399 43.1406C16.1495 44.5069 16.7712 45.9596 18.0291 46.6205L42.8382 59.6558C43.2686 59.8819 43.7475 60.0001 44.2336 60.0001H56.343C55.0139 56.9762 52.0012 54.9457 48.5958 54.9457H46.3382C45.0712 54.9457 43.8324 54.5711 42.7778 53.869L27.6663 43.8083C24.668 41.8122 23.674 37.8665 25.3687 34.6881L31.9988 22.2534C32.7506 20.8434 32.2653 19.0916 30.8951 18.2695L28.0604 16.5687Z" fill="black"/>
<path d="M25.3635 12.7462C25.7432 12.2744 26.3946 12 27.0002 12H42.1383C44.0727 12 45.9208 12.8005 47.2441 14.2114L54.0752 21.4951C58.6725 26.397 56.3846 33.9624 50.7235 36.0824C51.873 36.7519 53.1023 37.524 54.3516 38.3986C59.5931 42.068 65.5586 47.8026 66.9685 55.6462C67.9464 61.0866 66.5876 66.5336 64.7024 71.0256C62.8084 75.5388 60.3034 79.2765 58.7475 81.3835C57.4693 83.1144 55.4602 84 53.4325 84H25.8002C23.3748 84 20.9048 82.7261 19.8351 80.251C17.0515 73.8104 14.6217 61.9257 21.2274 50.7595C21.3754 50.5093 21.5195 50.2561 21.6599 50L25.1872 51.8866C25.0199 52.1928 24.8476 52.4961 24.6701 52.7961C18.9603 62.4478 21.0048 72.8749 23.5069 78.6641C23.8395 79.4338 24.6908 80 25.8002 80H53.4325C54.3173 80 55.0779 79.6193 55.5298 79.0073C56.9801 77.0434 59.288 73.5907 61.0141 69.4777C62.7491 65.3433 63.8179 60.7282 63.0316 56.3538C61.9063 50.0937 57.027 45.1543 52.0576 41.6755C49.611 39.9627 47.2322 38.6672 45.4628 37.8001C44.5801 37.3674 43.854 37.0438 43.3535 36.8302C43.1034 36.7234 42.91 36.6443 42.7819 36.593C42.7179 36.5673 42.6703 36.5486 42.6401 36.5368L42.6081 36.5244L42.6022 36.5222C41.6993 36.1802 41.1696 35.242 41.3432 34.2922C41.5169 33.3421 42.3447 32.6519 43.3106 32.6519H47.5106C51.8882 32.6519 54.1523 27.4245 51.1576 24.2314L44.3265 16.9478C43.7594 16.3431 42.9673 16 42.1383 16H29.3394C29.3906 16.307 29.4513 16.1753 29.5002 16.5L25.1872 15.5C25.1149 15.1212 25.0416 14.7633 24.9681 14.428C24.8385 13.8365 24.9839 13.2181 25.3635 12.7462Z" fill="black"/>
</svg>
