<svg width="12" height="12" viewBox="0 0 12 12" fill="none" xmlns="http://www.w3.org/2000/svg">
<path d="M5.645 8.85027C5.59814 8.80383 5.56094 8.74857 5.53555 8.68769C5.51017 8.62681 5.4971 8.56151 5.4971 8.49556C5.4971 8.42961 5.51017 8.36431 5.53555 8.30343C5.56094 8.24255 5.59814 8.1873 5.645 8.14085L7.295 6.49721H3.5C3.36739 6.49721 3.24021 6.44457 3.14645 6.35088C3.05268 6.25719 3 6.13012 3 5.99762C3 5.86512 3.05268 5.73805 3.14645 5.64436C3.24021 5.55067 3.36739 5.49803 3.5 5.49803H7.295L5.645 3.85439C5.55085 3.76031 5.49795 3.63272 5.49795 3.49968C5.49795 3.36664 5.55085 3.23905 5.645 3.14497C5.73915 3.0509 5.86685 2.99805 6 2.99805C6.13315 2.99805 6.26085 3.0509 6.355 3.14497L8.855 5.64291C8.90052 5.69043 8.9362 5.74645 8.96 5.80778C8.98645 5.86758 9.00012 5.93224 9.00012 5.99762C9.00012 6.063 8.98645 6.12766 8.96 6.18746C8.9362 6.24879 8.90052 6.30482 8.855 6.35233L6.355 8.85027C6.30852 8.89709 6.25322 8.93426 6.19229 8.95963C6.13136 8.98499 6.06601 8.99805 6 8.99805C5.93399 8.99805 5.86864 8.98499 5.80771 8.95963C5.74678 8.93426 5.69148 8.89709 5.645 8.85027Z" fill="#BC3EE9"/>
</svg>
