<svg width="96" height="96" viewBox="0 0 96 96" fill="none" xmlns="http://www.w3.org/2000/svg">
<rect width="96" height="96" fill="white"/>
<path fill-rule="evenodd" clip-rule="evenodd" d="M13.6005 53.2744C14.657 43.0114 26.68 38.7008 34.9059 31.9974C43.8077 24.7431 50.6395 11.906 62.2079 13.6634C74.0194 15.4577 77.9378 29.0577 83.1282 39.3231C88.3194 49.5901 95.5208 60.2979 91.1512 70.9064C86.5095 82.1757 74.3267 89.1651 61.788 91.1329C50.1031 92.9668 39.0476 87.6956 29.9114 80.5177C21.004 73.5196 12.4737 64.2208 13.6005 53.2744Z" fill="#5FEEA9"/>
<path d="M63 19H34C32.3431 19 31 20.3431 31 22V77H43V81H27V22C27 18.134 30.134 15 34 15H63C66.866 15 70 18.134 70 22V81H54V77H66V22C66 20.3431 64.6569 19 63 19Z" fill="black"/>
<path d="M22 37.4815C20.3431 37.4815 19 38.6505 19 40.0926V77.5185H29V81H15V40.0926C15 36.7277 18.134 34 22 34H29V37.4815H22Z" fill="black"/>
<path d="M77 77.5185V40.0926C77 38.6505 75.6569 37.4815 74 37.4815H68V34H74C77.866 34 81 36.7277 81 40.0926V81H68V77.5185H77Z" fill="black"/>
<path d="M43 30L54 30" stroke="black" stroke-width="4" stroke-linecap="round" stroke-linejoin="round"/>
<path d="M48.5 24.5V35.5" stroke="black" stroke-width="4" stroke-linecap="round" stroke-linejoin="round"/>
<rect x="34" y="42" width="5" height="5" rx="1" fill="black"/>
<rect x="42" y="42" width="5" height="5" rx="1" fill="black"/>
<rect x="50" y="42" width="5" height="5" rx="1" fill="black"/>
<rect x="58" y="42" width="5" height="5" rx="1" fill="black"/>
<rect x="50" y="50" width="5" height="5" rx="1" fill="black"/>
<rect x="58" y="50" width="5" height="5" rx="1" fill="black"/>
<rect x="42" y="50" width="5" height="5" rx="1" fill="black"/>
<rect x="34" y="50" width="5" height="5" rx="1" fill="black"/>
<path d="M41 79V69C41 67.3431 42.3431 66 44 66H53C54.6569 66 56 67.3431 56 69V79" stroke="black" stroke-width="4" stroke-linecap="round" stroke-linejoin="round"/>
</svg>
